<?xml version="1.0" encoding="UTF-8" standalone="no"?>
<!-- Created with Inkscape (http://www.inkscape.org/) -->

<svg
   width="181.13391mm"
   height="94.057098mm"
   viewBox="0 0 181.13391 94.057098"
   version="1.1"
   id="svg5"
   sodipodi:docname="controlled_p.svg"
   inkscape:version="1.2.2 (1:1.2.2+202212051550+b0a8486541)"
   xmlns:inkscape="http://www.inkscape.org/namespaces/inkscape"
   xmlns:sodipodi="http://sodipodi.sourceforge.net/DTD/sodipodi-0.dtd"
   xmlns="http://www.w3.org/2000/svg"
   xmlns:svg="http://www.w3.org/2000/svg">
  <sodipodi:namedview
     id="namedview7"
     pagecolor="#ffffff"
     bordercolor="#666666"
     borderopacity="1.0"
     inkscape:showpageshadow="2"
     inkscape:pageopacity="0.0"
     inkscape:pagecheckerboard="0"
     inkscape:deskcolor="#d1d1d1"
     inkscape:document-units="mm"
     showgrid="false"
     inkscape:zoom="0.4792789"
     inkscape:cx="294.19196"
     inkscape:cy="218.03589"
     inkscape:window-width="1294"
     inkscape:window-height="704"
     inkscape:window-x="72"
     inkscape:window-y="27"
     inkscape:window-maximized="1"
     inkscape:current-layer="layer1" />
  <defs
     id="defs2" />
  <g
     inkscape:label="Layer 1"
     inkscape:groupmode="layer"
     id="layer1"
     transform="translate(-49.375832,-42.71587)">
    <path
       style="font-variation-settings:normal;opacity:1;vector-effect:none;fill:none;fill-opacity:1;stroke:#000000;stroke-width:1.365;stroke-linecap:butt;stroke-linejoin:miter;stroke-miterlimit:4;stroke-dasharray:none;stroke-dashoffset:0;stroke-opacity:1;-inkscape-stroke:none;stop-color:#000000;stop-opacity:1"
       d="M 49.375832,52.399779 H 230.50975"
       id="path245" />
    <path
       style="font-variation-settings:normal;opacity:1;vector-effect:none;fill:none;fill-opacity:1;stroke:#000000;stroke-width:1.365;stroke-linecap:butt;stroke-linejoin:miter;stroke-miterlimit:4;stroke-dasharray:none;stroke-dashoffset:0;stroke-opacity:1;-inkscape-stroke:none;stop-color:#000000;stop-opacity:1"
       d="m 51.83466,113.96094 174.8844,0.73726"
       id="path247" />
    <rect
       style="fill:#f9f9f9;stroke:#000000;stroke-width:1.665;stroke-linejoin:round;stroke-miterlimit:4.4;stroke-dasharray:none"
       id="rect301"
       width="57.270279"
       height="47.414982"
       x="112.58827"
       y="88.52549"
       rx="1.9430933"
       ry="2.505079" />
    <path
       style="font-variation-settings:normal;opacity:1;vector-effect:none;fill:none;fill-opacity:1;stroke:#000000;stroke-width:1.365;stroke-linecap:butt;stroke-linejoin:miter;stroke-miterlimit:4;stroke-dasharray:none;stroke-dashoffset:0;stroke-opacity:1;-inkscape-stroke:none;stop-color:#000000;stop-opacity:1"
       d="m 141.58202,52.1233 0.10245,35.71101"
       id="path463" />
    <path
       style="fill:#f2f2f2;fill-rule:evenodd;stroke:#000000;stroke-width:0.865;stroke-dasharray:none;stroke-opacity:1"
       id="path517"
       sodipodi:type="arc"
       sodipodi:cx="140.7368"
       sodipodi:cy="52.44585"
       sodipodi:rx="9.2974653"
       sodipodi:ry="9.2974653"
       sodipodi:start="0"
       sodipodi:end="6.2656791"
       sodipodi:arc-type="arc"
       d="m 150.03427,52.44585 a 9.2974653,9.2974653 0 0 1 -9.25678,9.297377 9.2974653,9.2974653 0 0 1 -9.3378,-9.215996 9.2974653,9.2974653 0 0 1 9.17504,-9.378045 9.2974653,9.2974653 0 0 1 9.41811,9.133909"
       sodipodi:open="true" />
    <path
       style="font-variation-settings:normal;opacity:1;vector-effect:none;fill:none;fill-opacity:1;stroke:#000000;stroke-width:1.365;stroke-linecap:butt;stroke-linejoin:miter;stroke-miterlimit:4;stroke-dasharray:none;stroke-dashoffset:0;stroke-opacity:1;-inkscape-stroke:none;stop-color:#000000;stop-opacity:1"
       d="m 141.42834,42.723247 -0.15368,20.228554"
       id="path1073" />
    <path
       style="font-variation-settings:normal;opacity:1;vector-effect:none;fill:none;fill-opacity:1;stroke:#000000;stroke-width:1.365;stroke-linecap:butt;stroke-linejoin:miter;stroke-miterlimit:4;stroke-dasharray:none;stroke-dashoffset:0;stroke-opacity:1;-inkscape-stroke:none;stop-color:#000000;stop-opacity:1"
       d="m 131.18322,53.229192 18.95349,-0.552937"
       id="path1075" />
    <path
       style="fill:#f2f2f2;stroke:#000000;stroke-width:1.665;stroke-linejoin:round;stroke-miterlimit:4.4;stroke-dasharray:none;stroke-opacity:1"
       id="path1142"
       d="m 131.35184,101.45246 c -0.50384,4.83302 -0.82206,9.68161 -1.09144,14.53245 0.0364,2.91726 -0.50061,5.87264 -0.25261,8.79021 0.17962,-0.49284 0.0462,-1.03406 0.14777,-1.53686 0.009,-0.031 0.0183,-0.0619 0.0275,-0.0929 5.3e-4,-10e-4 -0.018,-0.009 -0.0185,-0.008 v 0 c -0.0106,0.0307 -0.0211,0.0614 -0.0316,0.0921 -0.16609,0.48295 -0.12092,1.06127 -0.069,1.55555 0.16327,-0.70834 0.19835,-1.48052 0.25815,-2.19726 0.18091,-2.16838 0.29804,-4.34134 0.45344,-6.51156 0.3175,-4.86268 0.64422,-9.73048 0.69853,-14.60444 0.001,-0.009 -0.12075,-0.0284 -0.12215,-0.0198 z" />
    <path
       style="fill:#f2f2f2;stroke:#000000;stroke-width:1.665;stroke-linejoin:round;stroke-miterlimit:4.4;stroke-dasharray:none;stroke-opacity:1"
       id="path1146"
       d="m 133.75724,100.90884 c 6.21236,-1.629208 12.62274,-2.438658 19.00921,-3.021191 2.09152,-0.03918 1.27006,-0.23372 2.52523,0.192502 0.01,0.0024 0.0435,-0.133146 0.0339,-0.135543 v 0 c -1.28964,-0.764876 -0.45246,-0.413745 -2.65756,-0.595611 -6.43296,0.261157 -12.91131,1.153324 -18.97238,3.413343 -0.0104,0.004 0.0512,0.15086 0.0616,0.1465 z" />
    <path
       style="fill:#f2f2f2;stroke:#000000;stroke-width:1.665;stroke-linejoin:round;stroke-miterlimit:4.4;stroke-dasharray:none;stroke-opacity:1"
       id="path1148"
       d="m 153.9117,98.983796 c 0.67048,5.236924 0.15998,10.536534 -0.29307,15.769044 -0.33427,4.41324 -1.17103,8.7539 -1.92609,13.10536 -0.003,0.0698 -0.0801,0.20481 -0.0104,0.20929 0.11009,0.007 0.68513,-2.43983 0.71874,-2.57671 0.004,-0.0125 -0.17325,-0.0705 -0.17735,-0.058 v 0 c -0.0323,0.1501 -0.60307,2.59625 -0.49857,2.65101 0.061,0.032 0.0687,-0.11936 0.10302,-0.17903 1.38716,-4.20705 1.93985,-8.63981 2.44478,-13.02195 0.43122,-5.27468 0.88835,-10.68908 -0.25269,-15.908413 -5.3e-4,-0.0077 -0.10902,0.0016 -0.10836,0.0094 z" />
    <path
       style="fill:#f2f2f2;stroke:#000000;stroke-width:1.665;stroke-linejoin:round;stroke-miterlimit:4.4;stroke-dasharray:none;stroke-opacity:1"
       id="path1150"
       d="m 73.435373,108.60999 c -0.974336,0.94977 -1.865352,1.98196 -2.819858,2.9503 -0.507497,0.51485 -1.079566,0.96728 -1.554599,1.51222 -0.502271,0.5762 -0.897403,1.23806 -1.36794,1.84045 -0.453277,0.5803 -0.935115,1.1377 -1.402673,1.70656 -0.91925,1.13174 -1.790525,2.30036 -2.694255,3.44419 -0.0082,0.009 0.121777,0.12479 0.12995,0.11561 v 0 c 1.008327,-1.05483 1.943794,-2.17141 2.866007,-3.30251 1.896983,-2.27952 0.902766,-1.16381 2.986505,-3.34369 0.46541,-0.55304 0.83488,-1.18099 1.282806,-1.74828 0.843066,-1.06773 1.813541,-2.0359 2.626106,-3.12983 0.0032,-0.004 -0.04887,-0.0487 -0.05205,-0.045 z" />
    <path
       style="fill:#f2f2f2;stroke:#000000;stroke-width:1.699;stroke-linejoin:round;stroke-miterlimit:4.4;stroke-dasharray:none;stroke-opacity:1"
       id="path5047"
       d="m 222.64928,108.27214 c -1.21848,1.08403 -2.12903,2.45125 -3.16059,3.69886 -0.56965,0.68897 -1.23557,1.30074 -1.75261,2.03002 -0.57307,0.80829 -0.98527,1.71973 -1.5043,2.56374 -0.48705,0.79203 -1.00883,1.56216 -1.51325,2.34324 -0.38394,0.63475 -0.76788,1.2695 -1.15183,1.90425 -0.016,0.0233 0.31289,0.24907 0.32886,0.22581 v 0 c 0.41084,-0.61423 0.82169,-1.22847 1.23254,-1.8427 2.0749,-3.13882 0.96426,-1.58825 3.34223,-4.64432 0.5011,-0.74253 0.85576,-1.57549 1.33431,-2.33275 0.8619,-1.36391 1.894,-2.62954 2.89205,-3.89433 0.004,-0.003 -0.0437,-0.0552 -0.0474,-0.0518 z" />
  </g>
</svg>
