<?xml version="1.0" encoding="UTF-8" standalone="no"?>
<!-- Created with Inkscape (http://www.inkscape.org/) -->

<svg
   width="245.76492mm"
   height="91.120995mm"
   viewBox="0 0 245.76492 91.120995"
   version="1.1"
   id="svg5"
   sodipodi:docname="cossin.svg"
   inkscape:version="1.2.2 (1:1.2.2+202212051550+b0a8486541)"
   xmlns:inkscape="http://www.inkscape.org/namespaces/inkscape"
   xmlns:sodipodi="http://sodipodi.sourceforge.net/DTD/sodipodi-0.dtd"
   xmlns="http://www.w3.org/2000/svg"
   xmlns:svg="http://www.w3.org/2000/svg">
  <sodipodi:namedview
     id="namedview7"
     pagecolor="#ffffff"
     bordercolor="#666666"
     borderopacity="1.0"
     inkscape:showpageshadow="2"
     inkscape:pageopacity="0.0"
     inkscape:pagecheckerboard="0"
     inkscape:deskcolor="#d1d1d1"
     inkscape:document-units="mm"
     showgrid="true"
     inkscape:zoom="0.9585578"
     inkscape:cx="487.71185"
     inkscape:cy="267.5895"
     inkscape:window-width="1294"
     inkscape:window-height="704"
     inkscape:window-x="72"
     inkscape:window-y="27"
     inkscape:window-maximized="1"
     inkscape:current-layer="layer1">
    <inkscape:grid
       type="xygrid"
       id="grid182"
       originx="-448.45273"
       originy="-206.84897" />
  </sodipodi:namedview>
  <defs
     id="defs2">
    <inkscape:path-effect
       effect="bspline"
       id="path-effect1592"
       is_visible="true"
       lpeversion="1"
       weight="33.333333"
       steps="2"
       helper_size="0"
       apply_no_weight="true"
       apply_with_weight="true"
       only_selected="false" />
    <inkscape:path-effect
       effect="bspline"
       id="path-effect249"
       is_visible="true"
       lpeversion="1"
       weight="33.333333"
       steps="2"
       helper_size="0"
       apply_no_weight="true"
       apply_with_weight="true"
       only_selected="false" />
    <inkscape:path-effect
       effect="bspline"
       id="path-effect249-3"
       is_visible="true"
       lpeversion="1"
       weight="33.333333"
       steps="2"
       helper_size="0"
       apply_no_weight="true"
       apply_with_weight="true"
       only_selected="false" />
    <inkscape:path-effect
       effect="bspline"
       id="path-effect1592-3"
       is_visible="true"
       lpeversion="1"
       weight="33.333333"
       steps="2"
       helper_size="0"
       apply_no_weight="true"
       apply_with_weight="true"
       only_selected="false" />
  </defs>
  <g
     inkscape:label="Layer 1"
     inkscape:groupmode="layer"
     id="layer1"
     transform="translate(-28.418074,-20.448681)">
    <path
       style="font-variation-settings:normal;opacity:1;vector-effect:none;fill:none;fill-opacity:1;stroke:#000000;stroke-width:1.365;stroke-linecap:butt;stroke-linejoin:miter;stroke-miterlimit:4;stroke-dasharray:none;stroke-dashoffset:0;stroke-opacity:1;-inkscape-stroke:none;stop-color:#000000;stop-opacity:1"
       d="M 28.418847,37.217338 C 109.79961,37.125179 191.1801,37.03302 272.56033,36.940862"
       id="path247"
       inkscape:path-effect="#path-effect249"
       inkscape:original-d="M 28.418847,37.217338 C 109.79961,37.125443 191.1801,37.033283 272.56033,36.940862" />
    <path
       style="font-variation-settings:normal;vector-effect:none;fill:none;fill-opacity:1;stroke:#000000;stroke-width:1.365;stroke-linecap:butt;stroke-linejoin:miter;stroke-miterlimit:4;stroke-dasharray:none;stroke-dashoffset:0;stroke-opacity:1;-inkscape-stroke:none;stop-color:#000000"
       d="M 30.040736,84.949139 C 111.4215,84.856982 192.80199,84.764825 274.18222,84.672669"
       id="path247-6"
       inkscape:path-effect="#path-effect249-3"
       inkscape:original-d="m 30.040736,84.949139 c 81.380764,-0.0919 162.761254,-0.18405 244.141484,-0.27647" />
    <rect
       style="fill:#ffffff;fill-opacity:1;stroke:#000000;stroke-width:1.306;stroke-linejoin:round;stroke-miterlimit:4.4;stroke-opacity:0.999501"
       id="rect443"
       width="32.579529"
       height="29.213903"
       x="45.579418"
       y="22.149611"
       rx="1.9430933"
       ry="2.505079" />
    <rect
       style="fill:#ffffff;fill-opacity:1;stroke:#000000;stroke-width:1.306;stroke-linejoin:round;stroke-miterlimit:4.4;stroke-opacity:0.999501"
       id="rect443-7"
       width="32.579529"
       height="29.213903"
       x="226.70857"
       y="21.101681"
       rx="1.9430933"
       ry="2.505079" />
    <ellipse
       style="fill:#ffffff;fill-rule:evenodd;stroke:#000000;stroke-width:1.465;stroke-dasharray:none;stroke-opacity:1"
       id="path1423"
       cx="117.73077"
       cy="36.779598"
       rx="5.1481848"
       ry="5.1377816" />
    <ellipse
       style="fill:#000000;fill-opacity:1;fill-rule:evenodd;stroke:#000000;stroke-width:1.465;stroke-dasharray:none;stroke-opacity:1"
       id="path1423-5"
       cx="198.82042"
       cy="35.276825"
       rx="5.1481848"
       ry="5.1377816" />
    <path
       style="font-variation-settings:normal;opacity:1;vector-effect:none;fill:none;fill-opacity:1;stroke:#000000;stroke-width:1.365;stroke-linecap:butt;stroke-linejoin:miter;stroke-miterlimit:4;stroke-dasharray:none;stroke-dashoffset:0;stroke-opacity:1;-inkscape-stroke:none;stop-color:#000000;stop-opacity:1"
       d="m 117.14169,40.857568 c 0.11953,14.407543 0.23905,28.814823 0.35857,43.221833"
       id="path1590"
       inkscape:path-effect="#path-effect1592"
       inkscape:original-d="m 117.14169,40.857568 c 0.11979,14.407541 0.23931,28.814821 0.35857,43.221833" />
    <path
       style="font-variation-settings:normal;vector-effect:none;fill:none;fill-opacity:1;stroke:#000000;stroke-width:1.365;stroke-linecap:butt;stroke-linejoin:miter;stroke-miterlimit:4;stroke-dasharray:none;stroke-dashoffset:0;stroke-opacity:1;-inkscape-stroke:none;stop-color:#000000"
       d="m 199.24439,40.737676 c 0.11953,14.407543 0.23905,28.814823 0.35857,43.221833"
       id="path1590-5"
       inkscape:path-effect="#path-effect1592-3"
       inkscape:original-d="m 199.24439,40.737676 c 0.11979,14.407541 0.23931,28.814821 0.35857,43.221833" />
    <rect
       style="fill:#ffffff;fill-opacity:1;stroke:#000000;stroke-width:2.18252;stroke-linejoin:round;stroke-miterlimit:4.4;stroke-opacity:0.999501"
       id="rect443-6-2"
       width="60.594303"
       height="43.86591"
       x="166.93971"
       y="66.06546"
       rx="3.6139379"
       ry="3.7614818" />
    <path
       style="fill:#000000;fill-opacity:1;stroke:#000000;stroke-width:1.465;stroke-linejoin:round;stroke-miterlimit:4.4;stroke-dasharray:none;stroke-opacity:1"
       id="path2019"
       d="m 54.393315,31.328324 c -0.161205,2.037953 -0.06479,4.08073 0.09683,6.114674 0.09631,1.409645 0.385625,2.782393 0.873363,4.103812 0.07552,0.250018 -0.09261,0.448342 -0.188717,0.668949 -0.13308,0.305459 -0.122497,0.304633 -0.224089,0.632783 -0.04747,0.18161 -0.256976,1.063326 0.172106,0.994666 0.109541,-0.11852 0.06079,-0.0466 0.132292,-0.224586 0.0013,-0.0029 -0.03997,-0.02048 -0.04121,-0.01757 v 0 c -0.04884,0.173061 -0.01146,0.101885 -0.09664,0.220993 -0.352568,0.05452 -0.0958,-0.807842 -0.06987,-0.936416 0.12486,-0.446291 0.356905,-0.883396 0.382101,-1.345012 -0.226452,-1.352942 -0.515125,-2.699245 -0.572762,-4.075075 -0.150461,-2.041626 -0.240387,-4.086815 -0.385196,-6.128457 5.29e-4,-0.0055 -0.07758,-0.01431 -0.0782,-0.0088 z" />
    <path
       style="fill:#000000;fill-opacity:1;stroke:#000000;stroke-width:1.465;stroke-linejoin:round;stroke-miterlimit:4.4;stroke-dasharray:none;stroke-opacity:1"
       id="path2021"
       d="m 55.019566,38.750551 c 2.313627,-0.414761 4.682638,-0.367345 7.026129,-0.449432 0.476263,-0.04109 0.959244,-0.01921 1.432899,-0.0925 0.0032,3.5e-5 0.0037,-0.04496 5.29e-4,-0.04499 v 0 c -0.455226,-0.208608 -0.998331,-0.148621 -1.479725,-0.205771 -2.379218,-0.03465 -4.742439,0.14029 -7.111727,0.336888 -0.03223,0.0093 0.09969,0.465138 0.131921,0.455809 z" />
    <path
       style="fill:#000000;fill-opacity:1;stroke:#000000;stroke-width:1.465;stroke-linejoin:round;stroke-miterlimit:4.4;stroke-dasharray:none;stroke-opacity:1"
       id="path2023"
       d="m 62.927268,30.737814 c 0.02228,1.807824 0.343038,3.598502 0.43438,5.40073 0.02463,0.486236 0.008,0.973683 0.01196,1.460527 0.496615,1.819087 0.827421,3.739115 0.76409,5.633992 -0.07363,0.568709 -0.14928,-0.0276 -0.15045,-0.218146 5.29e-4,-0.0044 -0.0616,-0.01098 -0.06207,-0.0066 v 0 c 0.0092,0.225888 0.09704,0.87803 0.338338,0.25242 0.345607,-1.880576 -0.195056,-3.755998 -0.119388,-5.645324 -0.117761,-0.487373 -0.262821,-0.968949 -0.353279,-1.46212 -0.08731,-0.476025 -0.119484,-0.960527 -0.179179,-1.440796 -0.165163,-1.328825 -0.322244,-2.661761 -0.59672,-3.973584 7.9e-5,-0.0062 -0.0876,-0.0073 -0.08768,-0.0011 z" />
    <path
       style="fill:#000000;fill-opacity:1;stroke:#000000;stroke-width:1.465;stroke-linejoin:round;stroke-miterlimit:4.4;stroke-dasharray:none;stroke-opacity:1"
       id="path2025"
       d="m 236.76795,30.531111 c -0.26699,2.343007 -0.5663,4.681828 -0.86465,7.021118 -0.17007,1.467877 -0.34401,2.939338 -0.37229,4.418597 -0.0127,0.66244 -0.0342,1.344729 0.2205,1.964833 0.045,0.0013 0.0996,0.03221 0.13484,0.0043 0.25537,-0.202732 0.26531,-1.006115 0.24553,-1.310757 5.3e-4,-0.004 -0.0565,-0.0109 -0.057,-0.0069 v 0 c -0.0174,0.319114 -0.0217,1.098873 -0.23601,1.306425 -0.0465,-0.627234 0.0203,-1.262544 0.0731,-1.887021 0.12385,-1.463331 0.28042,-2.924183 0.46046,-4.381587 0.26547,-2.360568 0.56999,-4.739376 0.45583,-7.119141 7.9e-4,-0.0043 -0.0596,-0.0141 -0.0603,-0.0098 z" />
    <path
       style="fill:#000000;fill-opacity:1;stroke:#000000;stroke-width:1.465;stroke-linejoin:round;stroke-miterlimit:4.4;stroke-dasharray:none;stroke-opacity:1"
       id="path2027"
       d="m 236.94998,37.857346 c 0.26518,-0.07915 0.52199,-0.195572 0.79554,-0.237458 0.36556,-0.05597 2.55646,-0.127407 2.80122,-0.132617 1.60935,-0.03425 3.2108,0.0046 4.81802,0.08018 0.90841,0.184307 1.94058,-0.02394 2.8292,0.291878 0.003,0.0016 0.024,-0.04669 0.0206,-0.04815 v 0 c -0.56271,-0.61186 -2.15985,-0.529 -2.88489,-0.695256 -1.626,-0.110001 -3.23436,-0.17657 -4.86417,-0.0784 -2.72832,0.164338 -0.40083,0.06755 -2.78524,0.342035 -0.28562,0.03288 -0.57439,0.02673 -0.86158,0.04009 -0.031,0.0093 0.10033,0.446974 0.13128,0.437692 z" />
    <path
       style="fill:#000000;fill-opacity:1;stroke:#000000;stroke-width:1.465;stroke-linejoin:round;stroke-miterlimit:4.4;stroke-dasharray:none;stroke-opacity:1"
       id="path2029"
       d="m 247.96773,28.950614 c -0.16097,1.518759 -0.30135,3.03933 -0.46735,4.557628 -0.0621,0.568103 -0.0941,1.140426 -0.18824,1.704099 -0.0935,0.55983 -0.24939,1.107451 -0.37408,1.661176 0.0157,0.546603 0.0578,1.093089 0.047,1.639808 -0.01,0.492924 -0.0771,0.983052 -0.10882,1.475055 -0.077,1.194869 -0.10647,2.390383 -0.13844,3.586919 0.001,0.392951 -0.057,0.455226 0.16216,0.103241 0.002,-0.0038 -0.0511,-0.03428 -0.0532,-0.03051 v 0 c -0.15064,0.371581 -0.065,0.381968 0.038,-0.04111 0.39348,-2.171107 0.30284,-4.413596 0.93408,-6.540571 -0.003,-0.5828 -0.0319,-1.166093 -0.008,-1.748401 0.0237,-0.574746 0.10969,-1.145336 0.15104,-1.719082 0.11096,-1.53986 0.17678,-3.090704 0.10337,-4.633712 0.001,-0.0069 -0.0966,-0.02143 -0.0976,-0.01452 z" />
    <rect
       style="fill:#ffffff;fill-opacity:1;stroke:#000000;stroke-width:2.18252;stroke-linejoin:round;stroke-miterlimit:4.4;stroke-opacity:0.999501"
       id="rect443-6"
       width="60.594303"
       height="43.86591"
       x="86.235809"
       y="66.612503"
       rx="3.6139379"
       ry="3.7614818" />
    <path
       style="fill:#000000;fill-opacity:1;stroke:#000000;stroke-width:1.065;stroke-linejoin:round;stroke-miterlimit:4.4;stroke-dasharray:none;stroke-opacity:1"
       id="path3708"
       d="m 95.273385,85.485814 c 0.0013,-0.06592 0.01405,-0.132543 0.0043,-0.197757 -0.08942,-0.6002 -0.566865,-1.141879 -1.197144,-1.187958 -0.207415,-0.01516 -0.413216,0.04751 -0.619821,0.07126 -0.220792,0.112633 -0.463058,0.190563 -0.662374,0.337896 -1.401355,1.035886 -2.053063,3.283511 -2.236819,4.916046 -0.06704,0.59554 -0.03417,1.198113 -0.05125,1.797169 0.09148,0.544383 0.119586,1.103302 0.274447,1.633148 0.263874,0.902828 0.753298,1.811301 1.644414,2.25815 0.364577,0.182814 0.804582,0.20215 1.211337,0.172342 1.234792,-0.09049 1.834046,-0.614939 2.882574,-1.222968 0.473512,-0.419319 0.981554,-0.802613 1.420532,-1.257958 0.95004,-0.985468 1.694815,-2.029445 2.314809,-3.248335 0.43469,-0.854596 0.82373,-1.904942 0.9167,-2.878421 0.0287,-0.300884 -0.041,-0.60312 -0.0614,-0.904681 -0.10061,-0.155213 -0.14724,-0.364072 -0.30183,-0.465633 -0.37634,-0.247242 -0.80701,0.05102 -1.064666,0.28126 -0.525471,0.469575 -0.921216,1.115216 -1.209916,1.746541 -0.180483,0.394674 -0.29904,0.814824 -0.448559,1.222238 -0.08456,0.432141 -0.206655,0.858604 -0.253687,1.296424 -0.146553,1.364242 0.09873,3.187893 1.32644,4.04373 0.26941,0.187806 0.598004,0.271663 0.897008,0.407495 0.27606,-0.01937 0.56195,0.01744 0.82818,-0.05809 0.73779,-0.209314 1.33819,-0.705665 1.83573,-1.268211 0.6551,-0.740701 1.31276,-1.862924 1.69025,-2.753736 0.23768,-0.560885 0.38484,-1.155959 0.57726,-1.733936 0.14374,-0.99095 0.43624,-2.04805 0.0978,-3.052977 -0.11995,-0.356135 -0.32772,-0.715928 -0.63597,-0.930876 -0.35066,-0.244522 -0.80087,-0.379775 -1.22823,-0.369067 -1.21627,0.03047 -2.02678,0.871204 -2.93027,1.529024 -0.0749,0.06844 0.89291,1.127969 0.96783,1.059535 v 0 c 0.76871,-0.877483 0.98917,-1.316723 1.97076,-1.847734 0.15786,-0.0854 0.36548,-0.215579 0.52272,-0.129058 0.18624,0.102478 0.25928,0.360577 0.2821,0.571915 0.072,0.666457 -0.30031,2.065732 -0.42191,2.622952 -0.42656,1.493547 -0.79145,3.03171 -1.59571,4.380564 -0.25867,0.433813 -0.73198,1.109096 -1.24648,1.337003 -0.18005,0.07976 -0.39211,0.03692 -0.58817,0.05538 -0.14074,-0.05055 -0.303389,-0.06087 -0.422218,-0.151661 -0.419775,-0.32072 -0.663107,-0.824185 -0.801595,-1.317451 -0.307674,-1.095877 -0.119843,-2.206903 0.105883,-3.296039 0.271775,-1.019347 0.528974,-2.063025 1.01183,-3.009881 0.0796,-0.156144 0.18603,-0.297418 0.28852,-0.4396 0.0361,-0.05007 0.0854,-0.182025 0.12614,-0.135599 0.0564,0.06435 -0.0138,0.170566 -0.0207,0.25585 -0.0849,0.218291 -0.15868,0.441192 -0.25454,0.654878 -0.384508,0.857091 -0.785492,1.583483 -1.27522,2.39754 -0.549733,0.913794 -1.391176,2.223175 -2.058329,3.05199 -0.357669,0.444338 -0.767789,0.843775 -1.151683,1.265661 -0.720704,0.613598 -1.77242,1.825072 -2.893319,1.372131 -0.183595,-0.07419 -0.338699,-0.235397 -0.427683,-0.412294 -0.384869,-0.765101 -0.387681,-1.711857 -0.469676,-2.527806 0.01183,-1.467495 -0.02785,-1.842431 0.155258,-3.30345 0.08382,-0.668803 0.276056,-1.850387 0.573595,-2.513472 0.105191,-0.234421 0.264406,-0.444934 0.438338,-0.634053 0.134784,-0.146553 0.317537,-0.240308 0.476306,-0.360463 0.153937,-0.04041 0.302847,-0.113459 0.461812,-0.121227 0.574563,-0.02808 0.942956,0.534932 1.151035,0.988277 -2.65e-4,0.0053 0.07505,0.0093 0.07533,0.004 z" />
    <path
       style="fill:#000000;fill-opacity:1;stroke:#000000;stroke-width:1.065;stroke-linejoin:round;stroke-miterlimit:4.4;stroke-dasharray:none;stroke-opacity:1"
       id="path3710"
       d="m 110.60195,86.270156 c 0.21263,-0.313317 0.48454,-0.948926 -0.003,-1.184662 -0.12608,-0.06102 -0.27649,-0.04514 -0.41473,-0.0677 -0.22474,0.05052 -0.4594,0.0684 -0.67421,0.151548 -1.05236,0.407302 -2.29632,1.478735 -2.36331,2.689389 -0.0152,0.274849 0.0957,0.542155 0.1436,0.813234 0.16135,0.236 0.2823,0.505471 0.48407,0.708006 0.76106,0.763943 1.79374,1.127263 2.72885,1.607688 0.7487,0.384651 0.55737,0.194699 0.8825,0.68703 -0.0299,0.144452 -0.006,0.312214 -0.0897,0.433356 -0.26226,0.377442 -0.96319,0.665057 -1.33513,0.799502 -1.01914,0.36839 -2.0984,0.51099 -3.16405,0.666398 -0.24835,0.03156 -0.49671,0.06312 -0.74507,0.09468 -0.0472,0.0055 0.03,0.673386 0.0773,0.667923 v 0 c 0.28625,0.03824 0.57249,0.07648 0.85874,0.114712 0.37329,-0.02609 0.75032,-0.01953 1.11988,-0.07829 0.78861,-0.125365 1.60764,-0.377748 2.3043,-0.776745 0.53273,-0.30511 1.11175,-0.764363 1.36458,-1.355109 0.098,-0.228984 0.0759,-0.492329 0.11388,-0.738492 -0.15184,-0.262898 -0.2535,-0.562065 -0.45551,-0.788691 -0.53058,-0.595238 -1.7845,-1.034359 -2.5082,-1.345919 -0.1964,-0.08455 -0.40844,-0.142434 -0.58522,-0.262734 -0.17993,-0.122444 -0.31251,-0.303004 -0.46877,-0.454504 -0.041,-0.183727 -0.13934,-0.363662 -0.12289,-0.55118 0.0438,-0.499404 0.44166,-0.944716 0.74475,-1.289169 0.50302,-0.571659 1.08001,-1.088538 1.72193,-1.498859 0.0967,-0.01799 0.19184,-0.05765 0.29015,-0.05401 0.29998,0.01111 0.0318,0.807733 0.0241,0.976908 -0.003,0.005 0.0682,0.04069 0.0708,0.03569 z" />
    <path
       style="fill:#000000;fill-opacity:1;stroke:#000000;stroke-width:1.065;stroke-linejoin:round;stroke-miterlimit:4.4;stroke-dasharray:none;stroke-opacity:1"
       id="path3712"
       d="m 118.54089,84.476717 c 0.0901,-0.185507 0.1551,-0.386837 0.18228,-0.591891 0.008,-0.05662 0.0609,-0.18627 0.006,-0.171241 -0.27787,0.07578 -0.52977,0.875784 -0.55251,0.926928 -0.11464,0.369445 -0.24523,0.734314 -0.34391,1.108339 -0.12618,0.478266 -0.23271,0.961761 -0.33018,1.446694 -0.33958,1.689521 -0.55309,3.391072 -0.53409,5.117431 0.005,0.420116 0.051,0.838732 0.0765,1.258099 -0.0566,0.03811 0.22699,1.512173 0.56276,1.106731 0.0816,-0.09852 0.0962,-0.237059 0.14427,-0.355587 0.004,-0.02151 -0.30031,-0.0769 -0.30423,-0.05539 v 0 c 0.0322,0.126838 0.0409,0.262059 0.0965,0.380518 0.0236,0.0503 0.0822,0.130776 0.13066,0.103511 0.31107,-0.175192 0.12864,-0.902208 0.37993,-1.001387 0.0732,-0.394716 0.1587,-0.78735 0.21963,-1.184148 0.16498,-1.074516 0.28208,-2.240283 0.35471,-3.32123 0.0393,-0.584703 0.0567,-1.17067 0.083,-1.756103 0.0224,-0.498565 0.0502,-0.996972 0.0629,-1.495875 0.0101,-0.395497 0.004,-0.791245 0.006,-1.186865 -0.005,-0.06688 0.003,-0.932942 -0.18539,-1.13048 -0.0379,-0.03984 -0.0422,0.101986 -0.0559,0.155241 -0.0344,0.133371 -0.0562,0.312637 -0.064,0.449961 -0.003,0.05826 -5.3e-4,0.1167 -7.9e-4,0.175049 -0.002,0.0047 0.0649,0.02638 0.0664,0.02169 z" />
    <path
       style="fill:#000000;fill-opacity:1;stroke:#000000;stroke-width:1.065;stroke-linejoin:round;stroke-miterlimit:4.4;stroke-dasharray:none;stroke-opacity:1"
       id="path3714"
       d="m 118.40848,90.001117 c 0.19821,0.03531 0.42847,0.08617 0.62683,0.05979 0.20362,-0.02708 0.39313,-0.127895 0.59706,-0.152509 0.26652,-0.03217 0.53696,-0.0056 0.80518,-0.01675 0.86262,-0.03568 0.92492,-0.05723 1.78586,-0.151201 0.052,-0.01164 -0.11272,-0.746258 -0.16466,-0.734613 v 0 c -0.60583,0.07129 -1.16388,0.128894 -1.76542,0.231769 -0.26239,0.04487 -0.51862,0.126297 -0.78308,0.156708 -0.21628,0.02487 -0.43787,-0.0245 -0.65307,0.0084 -0.22555,0.03453 -0.37333,0.150789 -0.54912,0.267965 -0.0234,0.0071 0.0771,0.3375 0.10042,0.330398 z" />
    <path
       style="fill:#000000;fill-opacity:1;stroke:#000000;stroke-width:1.065;stroke-linejoin:round;stroke-miterlimit:4.4;stroke-dasharray:none;stroke-opacity:1"
       id="path3716"
       d="m 124.36818,82.878695 c -0.25784,0.361553 -0.4182,0.784375 -0.58508,1.191985 -0.32802,0.801206 -0.4961,1.214937 -0.75289,2.075812 -0.13106,0.439393 -0.23684,0.885939 -0.35526,1.328909 -0.30805,1.387536 -0.52508,2.792334 -0.54918,4.215572 -0.0118,0.696029 -0.002,1.370137 0.17738,2.045629 0.0453,0.170593 0.14009,0.324025 0.21013,0.486037 -5.3e-4,0.02703 0.38172,0.03481 0.38227,0.0078 v 0 c 0.032,-0.139632 0.0715,-0.277768 0.0961,-0.418897 0.1317,-0.755464 0.13805,-1.08894 0.22901,-1.901589 0.15282,-1.365504 0.29746,-2.734524 0.54896,-4.086188 0.28438,-1.628698 0.58704,-3.263821 0.64995,-4.919623 0.002,-0.0036 -0.0496,-0.02906 -0.0514,-0.02543 z" />
    <path
       style="fill:#000000;fill-opacity:1;stroke:#000000;stroke-width:1.065;stroke-linejoin:round;stroke-miterlimit:4.4;stroke-dasharray:none;stroke-opacity:1"
       id="path3718"
       d="m 129.68617,84.858738 c -0.45336,1.130171 -0.78324,2.308202 -1.05844,3.493204 -0.10962,0.472041 -0.22009,0.944348 -0.30498,1.421456 -0.0859,0.482764 -0.13805,0.97093 -0.20708,1.456396 -0.0723,1.13973 -0.22878,2.314517 0.0109,3.448396 0.0512,0.242449 0.17872,0.731531 0.47887,0.860804 0.10962,0.04721 0.2387,0.0019 0.35805,0.0029 0.14445,-0.07437 0.29603,-0.136285 0.43336,-0.22311 0.2157,-0.136374 0.96678,-0.723614 1.13749,-0.851527 0.58866,-0.441077 0.72738,-0.532657 1.3232,-0.953019 0.0393,-0.02882 -0.36825,-0.584245 -0.40753,-0.555429 v 0 c -0.23249,0.157025 -0.47418,0.301215 -0.69746,0.471072 -0.71514,0.544028 -1.30926,1.21467 -1.84716,1.929575 -0.0293,0.03382 -0.0528,0.12914 -0.0879,0.101451 -0.0489,-0.03847 -0.0222,-0.123499 -0.0189,-0.185602 0.009,-0.169355 0.0342,-0.337466 0.055,-0.505772 0.13381,-1.084464 0.28807,-2.166665 0.44946,-3.247295 0.28089,-2.073823 0.1164,-0.791353 0.36146,-2.87328 0.14626,-1.242512 0.34491,-2.504366 0.19884,-3.756837 0.002,-0.01251 -0.17465,-0.04594 -0.17701,-0.03342 z" />
    <path
       style="fill:#000000;fill-opacity:1;stroke:#000000;stroke-width:1.065;stroke-linejoin:round;stroke-miterlimit:4.4;stroke-dasharray:none;stroke-opacity:1"
       id="path3720"
       d="m 126.79263,90.398666 c 0.40628,0.07236 0.71986,0.386763 1.11154,0.488757 0.3226,0.084 1.83932,0.138666 2.09957,0.110064 0.41975,-0.04613 0.82377,-0.186256 1.23565,-0.279387 0.0725,-0.01529 -0.14364,-1.040818 -0.21616,-1.025533 v 0 c -1.58544,-0.04492 -0.86226,-0.09057 -2.32517,0.105413 -0.29568,0.03961 -0.59904,0.04243 -0.88668,0.121579 -0.22322,0.06142 -0.40992,0.219427 -0.62863,0.295388 -0.12104,0.04204 -0.25363,0.03673 -0.38044,0.05509 -0.009,-7.94e-4 -0.0188,0.127942 -0.01,0.128627 z" />
    <path
       style="fill:#000000;fill-opacity:1;stroke:#000000;stroke-width:1.5175;stroke-linejoin:round;stroke-miterlimit:4.4;stroke-dasharray:none;stroke-opacity:1"
       id="path3722"
       d="m 170.33182,89.120484 c 0.90701,-0.02832 1.79259,-0.317247 2.67336,-0.573341 0.021,-0.0039 -0.0224,-0.389349 -0.0434,-0.385367 v 0 c -0.13191,-0.02376 -0.26258,-0.074 -0.39574,-0.07129 -0.74151,0.0151 -1.6145,0.46489 -2.27039,0.901999 -0.008,0.0034 0.0291,0.131305 0.0361,0.127992 z" />
    <path
       style="fill:#000000;fill-opacity:1;stroke:#000000;stroke-width:1.5175;stroke-linejoin:round;stroke-miterlimit:4.4;stroke-dasharray:none;stroke-opacity:1"
       id="path3724"
       d="m 176.42954,85.478387 c -0.0133,0.114353 -0.0194,0.230493 -0.0399,0.343037 -0.0429,0.235954 -0.1034,0.466012 -0.14997,0.70077 -0.14841,0.747164 -0.29403,1.495398 -0.42799,2.247153 -0.22445,1.259623 -0.21771,1.320998 -0.37872,2.567947 -0.0164,0.410455 -0.34739,2.392316 0.3368,2.419909 0.26026,0.01055 0.69631,-0.376057 0.87135,-0.504744 0.69834,-0.543803 1.28604,-1.265436 1.86909,-1.992943 0.0353,-0.04371 -0.44069,-0.69042 -0.4759,-0.646717 v 0 c -0.57941,0.703039 -1.16451,1.401694 -1.68147,2.185129 -0.11727,0.169581 -0.23196,0.342109 -0.35165,0.50874 -0.22597,0.314543 -0.3096,0.480773 -0.18551,-0.02156 0.45179,-1.828792 -0.15725,0.804775 0.39687,-1.640577 0.34223,-1.847529 0.71783,-3.911201 0.40552,-5.809982 -0.0205,-0.124356 -0.0618,-0.241346 -0.0926,-0.362017 -3.1e-4,-0.0088 -0.0962,-0.0031 -0.0959,0.0058 z" />
    <path
       style="fill:#000000;fill-opacity:1;stroke:#000000;stroke-width:1.5175;stroke-linejoin:round;stroke-miterlimit:4.4;stroke-dasharray:none;stroke-opacity:1"
       id="path3726"
       d="m 176.44648,81.268226 c -0.12827,0.507389 0.31932,0.730514 0.54461,0.306625 0.0515,-0.09686 0.0625,-0.220933 0.0938,-0.331399 -0.0147,-0.576374 -0.079,-0.636778 -0.42347,-0.951869 -0.0125,-0.0065 -0.0831,0.218442 -0.0709,0.22495 v 0 c 0.1776,0.16073 0.28064,0.352194 0.30797,0.640822 -0.009,0.0871 -0.001,0.179407 -0.0262,0.261325 -0.0211,0.07062 -0.0616,0.131435 -0.10565,0.181047 -0.19535,0.219984 -0.22849,-0.135787 -0.24546,-0.304868 0.001,-0.0068 -0.0733,-0.03347 -0.0746,-0.02663 z" />
    <path
       style="fill:#000000;fill-opacity:1;stroke:#000000;stroke-width:1.5175;stroke-linejoin:round;stroke-miterlimit:4.4;stroke-dasharray:none;stroke-opacity:1"
       id="path3728"
       d="m 189.24706,83.270736 c 0.31144,-0.96858 -0.38967,-1.099146 -0.96132,-0.793044 -0.21476,0.115002 -0.40637,0.292503 -0.60954,0.438754 -0.20306,0.224422 -0.4234,0.424881 -0.60918,0.673273 -0.60233,0.805295 -1.25194,2.167397 -0.72153,3.295772 0.1219,0.259325 0.31677,0.447206 0.47516,0.670806 0.54939,0.483082 1.20162,0.711726 1.77142,1.142559 0.11891,0.08988 0.56446,0.429687 0.5924,0.734599 0.0163,0.176826 -0.0578,0.348164 -0.0866,0.522248 -0.11953,0.184026 -0.21383,0.401457 -0.35838,0.552073 -0.76419,0.796178 -1.92343,0.94077 -2.86278,0.883649 -0.19013,-0.01153 -0.37859,-0.05164 -0.56788,-0.07747 -0.037,-0.0021 -0.059,0.677113 -0.022,0.679133 v 0 c 0.2186,0.0814 0.43111,0.198564 0.65578,0.244193 1.12849,0.229187 2.46588,-0.145709 3.2325,-1.325105 0.1564,-0.24061 0.23427,-0.551412 0.35139,-0.827115 0.0138,-0.276955 0.0948,-0.562133 0.0414,-0.830854 -0.0553,-0.277862 -0.20597,-0.513991 -0.35158,-0.729828 -0.56203,-0.833109 -1.4556,-0.995911 -2.18316,-1.459778 -0.0922,-0.0848 -0.21192,-0.134065 -0.27658,-0.254367 -0.19677,-0.36609 -0.12935,-0.74306 -0.01,-1.127387 0.26748,-0.858072 0.79282,-1.52491 1.25896,-2.198418 0.11677,-0.140626 0.76437,-0.987825 1.01117,-0.944409 0.21451,0.03772 0.11878,0.527589 0.13554,0.686415 -0.002,0.0086 0.092,0.05297 0.0944,0.0443 z" />
    <path
       style="fill:#000000;fill-opacity:1;stroke:#000000;stroke-width:1.5175;stroke-linejoin:round;stroke-miterlimit:4.4;stroke-dasharray:none;stroke-opacity:1"
       id="path3730"
       d="m 194.03271,85.38054 c -0.56404,1.613316 -0.74428,3.389061 -0.85827,5.13772 0.0125,0.251549 -0.0765,1.302291 0.11152,1.550511 0.078,0.102985 0.12053,-0.110455 0.17087,-0.255415 0.002,-0.01445 -0.15475,-0.05541 -0.15697,-0.04099 v 0 c 0.0374,0.205551 0.0481,0.379935 0.1224,0.329701 0.18115,-0.12252 0.32355,-1.234097 0.36463,-1.389109 0.25584,-1.740673 0.46854,-3.519507 0.34768,-5.295913 0.003,-0.0094 -0.10002,-0.04587 -0.10202,-0.03652 z" />
    <path
       style="fill:#000000;fill-opacity:1;stroke:#000000;stroke-width:1.5175;stroke-linejoin:round;stroke-miterlimit:4.4;stroke-dasharray:none;stroke-opacity:1"
       id="path3732"
       d="m 194.65657,80.755911 c -0.18404,0.373368 -0.41926,0.927665 -0.25395,1.385321 0.0246,0.06825 0.069,0.143029 0.12622,0.155777 0.0634,0.01413 0.12053,-0.05826 0.18072,-0.0874 0.0404,-0.10055 0.0983,-0.192194 0.12103,-0.301655 0.0746,-0.358982 0.0239,-0.854712 -0.21768,-1.098528 -0.0673,-0.06789 -0.15785,-0.08324 -0.23677,-0.124874 -0.01,-0.0026 -0.0373,0.180425 -0.0273,0.182935 v 0 c 0.0271,0.01299 0.0616,0.01153 0.0814,0.03901 0.21986,0.305766 0.21686,0.810831 0.20692,1.196318 -0.006,0.04464 0.01,0.106184 -0.0175,0.133903 -0.019,0.01911 -0.0303,-0.05232 -0.0328,-0.08334 -0.026,-0.32721 0.0723,-0.672932 0.12573,-0.985866 0.019,-0.111495 0.035,-0.223875 0.0525,-0.335816 0.004,-0.0099 -0.1044,-0.08576 -0.10852,-0.07579 z" />
    <path
       style="fill:#000000;fill-opacity:1;stroke:#000000;stroke-width:1.5175;stroke-linejoin:round;stroke-miterlimit:4.4;stroke-dasharray:none;stroke-opacity:1"
       id="path3734"
       d="m 197.89045,84.553265 c -0.026,0.124372 -0.0584,0.246798 -0.078,0.373126 -0.0694,0.446286 -0.11565,1.025428 -0.14832,1.465217 -0.075,1.008255 -0.11703,2.017871 -0.15299,3.029435 -0.007,0.28767 -0.0182,0.575219 -0.0214,0.863008 -0.002,0.213045 -0.002,0.42629 0.005,0.639167 0.004,0.124144 0.0113,0.248723 0.028,0.370974 0.005,0.03428 0.0151,0.11341 0.0369,0.09293 0.038,-0.03587 0.0356,-0.11341 0.0475,-0.172523 0.0309,-0.154218 0.0535,-0.310995 0.0803,-0.46649 0.25009,-1.627602 0.52694,-3.253176 1.01566,-4.79302 0.091,-0.286861 0.20074,-0.563131 0.3011,-0.844695 0.21436,-0.418872 0.70022,-1.478108 1.20875,-0.958206 0.11978,0.122391 0.25606,0.593372 0.2992,0.718407 0.0339,0.197607 0.0825,0.39191 0.10177,0.592821 0.0245,0.256082 0.0256,0.515231 0.029,0.773247 0.0159,1.18981 -0.10578,2.357407 -0.20926,3.536262 -0.0303,0.428236 -0.0678,0.834144 -0.0698,1.262859 -3.2e-4,0.08847 -0.002,0.414414 0.0584,0.452592 0.0234,0.01478 0.0426,-0.03863 0.064,-0.05794 6.7e-4,-0.0047 -0.0499,-0.01971 -0.0508,-0.0151 v 0 c 0.0451,0.09332 0.0481,0.175252 0.13416,0.02866 0.24719,-0.421422 0.28822,-1.005839 0.40654,-1.490171 0.24991,-1.731955 0.41146,-3.529848 -0.12228,-5.20505 -0.19221,-0.449548 -0.23321,-0.67661 -0.5922,-0.96386 -0.43591,-0.348811 -0.95819,-0.121968 -1.32528,0.262807 -0.17699,0.185508 -0.31336,0.428205 -0.47004,0.642308 -0.13682,0.288799 -0.29201,0.56422 -0.41047,0.866394 -0.61979,1.580916 -0.82856,3.400463 -0.68616,5.153037 0.018,0.08574 0.0785,0.639794 0.23778,0.73283 0.0438,0.02553 0.10402,-0.01137 0.13707,-0.05651 0.29458,-0.402953 0.3217,-1.327289 0.40525,-1.811439 0.11515,-1.662233 0.17466,-3.383137 -0.17624,-5.007522 6.6e-4,-0.0076 -0.0823,-0.02127 -0.083,-0.01364 z" />
    <path
       style="fill:#000000;fill-opacity:1;stroke:#000000;stroke-width:1.5175;stroke-linejoin:round;stroke-miterlimit:4.4;stroke-dasharray:none;stroke-opacity:1"
       id="path3736"
       d="m 207.46683,78.987037 c -0.69655,2.675491 -0.90786,5.508672 -1.16412,8.297754 -0.0743,1.170463 -0.13874,1.870322 -0.14381,3.010221 -3.2e-4,0.0992 -0.0112,1.018393 0.10303,1.271714 0.017,0.03746 0.0796,0.02457 0.10002,-0.0099 0.0599,-0.101329 0.0764,-0.235442 0.11453,-0.353165 0.002,-0.02282 -0.24567,-0.07246 -0.24837,-0.04964 v 0 c 0.0318,0.141665 0.034,0.300704 0.0953,0.424988 0.14257,0.289414 0.3392,-0.105064 0.38807,-0.213226 0.50518,-1.118316 0.57467,-2.496716 0.7829,-3.727703 0.25695,-2.85477 0.47225,-5.754026 0.12278,-8.613819 0.002,-0.0138 -0.14838,-0.05105 -0.15041,-0.03725 z" />
    <path
       style="fill:#000000;fill-opacity:1;stroke:#000000;stroke-width:1.5175;stroke-linejoin:round;stroke-miterlimit:4.4;stroke-dasharray:none;stroke-opacity:1"
       id="path3738"
       d="m 207.18298,86.573375 c 0.18721,0.03154 0.51494,0.09539 0.67995,0.07077 0.1894,-0.02827 0.36771,-0.135138 0.55591,-0.174685 0.72928,-0.153244 1.47881,-0.111202 2.21448,-0.126028 0.18728,-0.01153 0.37457,-0.02303 0.56185,-0.03454 0.0344,-0.0034 -10e-4,-0.634051 -0.0361,-0.630738 v 0 c -0.19922,-0.04232 -0.39843,-0.08462 -0.59765,-0.126937 -1.03648,-0.04617 -0.47316,-0.0525 -1.53651,0.03098 -0.25144,0.01971 -0.50273,0.04418 -0.75445,0.05677 -0.62853,0.03141 -0.72773,-0.07395 -1.24604,0.411722 -0.0284,0.01461 0.1301,0.537276 0.15855,0.522717 z" />
    <path
       style="fill:#000000;fill-opacity:1;stroke:#000000;stroke-width:1.5175;stroke-linejoin:round;stroke-miterlimit:4.4;stroke-dasharray:none;stroke-opacity:1"
       id="path3740"
       d="m 213.5319,79.164854 c -0.0816,0.08543 -0.17154,0.159073 -0.24498,0.256276 -0.88144,1.166635 -1.33207,3.159075 -1.68415,4.672641 -0.10615,0.425955 -0.55899,2.150469 -0.59444,2.638791 -0.0305,0.42068 0.0698,0.841724 0.0711,1.264269 9.9e-4,0.339068 -0.0463,0.675528 -0.0639,1.013822 -0.0319,0.611915 -0.0311,0.823683 -0.0408,1.399039 0.02,0.228967 -0.10602,1.054412 0.0911,1.216436 0.01,-0.0045 0.0189,-0.0093 0.0283,-0.0138 0.001,-0.0013 -0.0113,-0.02908 -0.0129,-0.02793 v 0 c -0.002,0.0039 -0.005,0.0073 -0.007,0.01088 0.0374,-0.355923 0.22742,-0.694738 0.26457,-1.05704 0.14575,-0.58096 0.17485,-0.669642 0.3019,-1.313915 0.0631,-0.319952 0.0919,-0.652572 0.17705,-0.963789 0.10152,-0.371073 0.29882,-0.693896 0.38025,-1.073235 0.18789,-0.875378 0.0728,-1.83064 0.26207,-2.70494 0.13899,-0.862725 0.25492,-1.732312 0.41797,-2.5879 0.17293,-0.907374 0.43452,-1.780737 0.7276,-2.632343 0.005,-0.0068 -0.0683,-0.104105 -0.0735,-0.09735 z" />
    <path
       style="fill:#000000;fill-opacity:1;stroke:#000000;stroke-width:1.5175;stroke-linejoin:round;stroke-miterlimit:4.4;stroke-dasharray:none;stroke-opacity:1"
       id="path3742"
       d="m 217.39686,80.329788 c -0.1094,2.118392 -0.26244,4.233681 -0.47406,6.338826 -0.12984,1.28028 -0.28632,2.555544 -0.43733,3.831777 -0.0665,0.56248 -0.15647,1.110223 -0.11816,1.679168 0.0388,0.02858 0.0719,0.08707 0.1164,0.08571 0.1327,-0.0039 0.48486,-0.275798 0.55556,-0.317216 0.17738,-0.103911 0.36107,-0.188761 0.53956,-0.289406 0.4378,-0.246865 0.83228,-0.493895 1.26396,-0.758337 0.50083,-0.319064 1.00617,-0.625175 1.51846,-0.91174 0.0128,-0.0039 -0.0286,-0.238483 -0.0414,-0.234685 v 0 c -0.0834,-0.01267 -0.16629,-0.04009 -0.25025,-0.03785 -0.52614,0.01413 -1.02952,0.266694 -1.51327,0.505968 -0.6702,0.42498 -1.15766,0.743898 -1.70774,1.41501 -0.0686,0.08369 -0.31022,0.407064 -0.35998,0.58007 -0.006,0.02028 0.0209,0.03378 0.0314,0.05063 0.0518,-0.06679 0.11303,-0.123202 0.15537,-0.200396 0.20189,-0.367658 0.36031,-0.85977 0.48065,-1.267207 0.36745,-1.244031 0.61121,-2.538924 0.73117,-3.862939 0.11603,-2.007319 0.2591,-4.218381 -0.21771,-6.172558 -0.0381,-0.156345 -0.0977,-0.302513 -0.14645,-0.453774 -0.001,-0.01153 -0.12724,0.0073 -0.1262,0.01895 z" />
    <path
       style="fill:#000000;fill-opacity:1;stroke:#000000;stroke-width:1.065;stroke-linejoin:round;stroke-miterlimit:4.4;stroke-dasharray:none;stroke-opacity:1"
       id="path3744"
       d="m 215.11581,86.382731 c 0.13702,0.04772 0.28927,0.0088 0.42639,0.04973 0.13807,0.04117 0.25595,0.13957 0.39608,0.17303 0.16586,0.0396 0.33967,0.0307 0.50973,0.0433 0.80973,0.0599 0.44397,0.0733 1.27383,-0.0896 0.91761,0.021 0.46613,0.0199 1.35444,0.005 0.0387,-0.004 -0.0253,-0.551831 -0.064,-0.547307 v 0 c -0.89302,-0.03431 -0.43931,-0.02529 -1.36115,-0.02543 -0.812,-0.152281 -0.54921,-0.170897 -1.3198,-0.07211 -0.16821,0.02156 -0.34259,0.025 -0.50193,0.08304 -0.12304,0.04482 -0.20846,0.161687 -0.32636,0.218665 -0.12304,0.05947 -0.27369,0.04059 -0.39639,0.104714 -0.004,5.3e-4 0.005,0.0574 0.009,0.05675 z" />
  </g>
</svg>
