<?xml version="1.0" encoding="UTF-8" standalone="no"?>
<!-- Created with Inkscape (http://www.inkscape.org/) -->

<svg
   width="297mm"
   height="210mm"
   viewBox="0 0 297 210"
   version="1.1"
   id="svg23412"
   inkscape:version="1.2.2 (1:1.2.2+202212051550+b0a8486541)"
   sodipodi:docname="main_qsvt.svg"
   xmlns:inkscape="http://www.inkscape.org/namespaces/inkscape"
   xmlns:sodipodi="http://sodipodi.sourceforge.net/DTD/sodipodi-0.dtd"
   xmlns="http://www.w3.org/2000/svg"
   xmlns:svg="http://www.w3.org/2000/svg">
  <sodipodi:namedview
     id="namedview23414"
     pagecolor="#ffffff"
     bordercolor="#666666"
     borderopacity="1.0"
     inkscape:showpageshadow="2"
     inkscape:pageopacity="0.0"
     inkscape:pagecheckerboard="0"
     inkscape:deskcolor="#d1d1d1"
     inkscape:document-units="mm"
     showgrid="false"
     inkscape:zoom="0.4792789"
     inkscape:cx="471.54173"
     inkscape:cy="462.15262"
     inkscape:window-width="1294"
     inkscape:window-height="704"
     inkscape:window-x="72"
     inkscape:window-y="27"
     inkscape:window-maximized="1"
     inkscape:current-layer="layer1" />
  <defs
     id="defs23409">
    <inkscape:path-effect
       effect="bspline"
       id="path-effect4777"
       is_visible="true"
       lpeversion="1"
       weight="33.333333"
       steps="2"
       helper_size="0"
       apply_no_weight="true"
       apply_with_weight="true"
       only_selected="false" />
    <inkscape:path-effect
       effect="bspline"
       id="path-effect4781"
       is_visible="true"
       lpeversion="1"
       weight="33.333333"
       steps="2"
       helper_size="0"
       apply_no_weight="true"
       apply_with_weight="true"
       only_selected="false" />
  </defs>
  <g
     inkscape:label="Layer 1"
     inkscape:groupmode="layer"
     id="layer1">
    <g
       id="g5600"
       transform="matrix(1.6778918,0,0,1.5332346,-240.25221,-41.295306)">
      <ellipse
         style="fill:#f9f9f9;fill-opacity:1;fill-rule:evenodd;stroke:#000000;stroke-width:0.484657;stroke-dasharray:none;stroke-opacity:1"
         id="path2843-7"
         cx="227.1185"
         cy="76.452248"
         rx="3.4715266"
         ry="4.1089044" />
      <ellipse
         style="fill:#f9f9f9;fill-opacity:1;fill-rule:evenodd;stroke:#000000;stroke-width:0.590057;stroke-dasharray:none;stroke-opacity:1"
         id="path2843-5"
         cx="240.41211"
         cy="77.07045"
         rx="3.7987082"
         ry="4.1478209" />
      <path
         style="font-variation-settings:normal;vector-effect:none;fill:none;fill-opacity:1;stroke:#000000;stroke-width:1.22966;stroke-linecap:butt;stroke-linejoin:miter;stroke-miterlimit:4;stroke-dasharray:none;stroke-dashoffset:0;stroke-opacity:1;-inkscape-stroke:none;stop-color:#000000"
         d="m 221.01485,69.379754 c 8.9143,0.241364 17.82838,0.482721 26.74223,0.724073"
         id="path4775"
         inkscape:path-effect="#path-effect4777"
         inkscape:original-d="m 221.01485,69.379754 c 8.91429,0.241615 17.82837,0.482973 26.74223,0.724073" />
      <path
         style="font-variation-settings:normal;vector-effect:none;fill:#4d4d4d;fill-opacity:1;stroke:#000000;stroke-width:1.22966;stroke-linecap:butt;stroke-linejoin:miter;stroke-miterlimit:4;stroke-dasharray:none;stroke-dashoffset:0;stroke-opacity:1;-inkscape-stroke:none;stop-color:#000000"
         d="m 218.67224,81.626031 c 10.22253,0.440751 20.44482,0.881492 30.66687,1.322223"
         id="path4779"
         inkscape:path-effect="#path-effect4781"
         inkscape:original-d="m 218.67224,81.626031 c 10.22252,0.440998 20.44481,0.881736 30.66687,1.322223" />
      <path
         style="fill:#ff8080;fill-opacity:1;stroke:#000000;stroke-width:0.715043;stroke-linejoin:round;stroke-miterlimit:4.4;stroke-dasharray:none;stroke-opacity:1"
         d="m 242.27183,81.756223 c -0.51837,-0.153423 -0.45641,-0.287617 0.41405,-0.896573 2.33013,-1.630084 2.56932,-5.016071 0.50186,-7.10425 -2.03641,-2.056822 -5.41703,-1.367446 -6.53043,1.331685 -0.27341,0.662781 -0.49711,1.569713 -0.49711,2.015403 0,1.284867 0.92423,3.002438 2.06508,3.837718 l 1.04964,0.768502 -4.42617,-0.212968 c -2.4344,-0.117132 -7.04866,-0.323542 -10.25391,-0.458692 -5.73473,-0.241804 -5.82445,-0.258456 -5.62257,-1.043667 0.11283,-0.438867 0.40074,-0.977263 0.63977,-1.196435 0.23904,-0.219169 0.72816,-1.746675 1.08693,-3.394459 0.35878,-1.64778 0.81752,-3.489758 1.01943,-4.093282 l 0.36711,-1.097317 8.40199,0.248703 c 4.6211,0.136786 10.12295,0.248703 12.22636,0.248703 h 3.82434 l 1.04823,5.374557 c 0.57653,2.956008 1.04474,5.501852 1.04045,5.657433 -0.008,0.303111 -5.33905,0.315643 -6.35505,0.01493 z m -13.51009,-1.231314 c 0.46248,-0.202269 1.13545,-0.923592 1.49551,-1.602941 1.25849,-2.374452 0.56195,-5.378776 -1.50916,-6.50935 -1.29859,-0.708876 -1.81991,-0.714651 -3.23226,-0.0358 -1.34951,0.648644 -2.14237,2.271852 -2.14237,4.38606 0,1.277029 0.20517,1.801119 1.11474,2.847447 1.18897,1.367728 2.56443,1.662094 4.27354,0.914591 z"
         id="path4921" />
      <path
         style="fill:#ff8080;fill-opacity:1;stroke:#000000;stroke-width:0.707517;stroke-linejoin:round;stroke-miterlimit:4.4;stroke-dasharray:none;stroke-opacity:1"
         id="path5124"
         d="m 215.88932,83.108976 c -2.42223,2.201482 -4.59152,4.740589 -6.76549,7.253601 -0.84395,1.012387 -1.73677,1.975122 -2.53986,3.032427 -0.0767,0.100968 -0.2836,0.208133 -0.2154,0.316871 0.0431,0.06871 0.30179,-0.224022 0.63082,-0.570631 0.20442,-0.257022 1.32377,-1.438883 0.84374,-1.048797 -0.005,0.04193 -0.58455,0.595787 -0.28903,0.367382 0.0428,-0.05037 0.0857,-0.100659 0.1296,-0.149795 7.2e-4,-0.0011 -0.0109,-0.01486 -0.0117,-0.01391 v 0 c -0.0438,0.04917 -0.0887,0.09734 -0.1335,0.145378 -0.20551,0.334259 0.29067,-0.31756 0.32714,-0.322643 0.35056,-0.542489 -0.70667,0.712882 -0.93502,0.941585 -0.30906,0.36901 -0.57052,0.65947 -0.51134,0.711253 0.0929,0.08126 0.19202,-0.153078 0.28205,-0.238457 0.94279,-0.894107 1.80831,-1.891916 2.69753,-2.853414 2.19005,-2.490669 4.33604,-5.031967 6.55029,-7.494587 0.005,-0.0048 -0.0551,-0.08114 -0.0598,-0.07627 z" />
      <path
         style="fill:#ff8080;fill-opacity:1;stroke:#000000;stroke-width:0.707517;stroke-linejoin:round;stroke-miterlimit:4.4;stroke-dasharray:none;stroke-opacity:1"
         id="path5126"
         d="m 207.27184,92.974123 c 0.14592,0.291195 0.31267,0.569828 0.43776,0.873584 0.42811,1.039619 0.76051,2.12843 1.17304,3.176357 0.80571,2.046717 1.67913,4.053386 2.56853,6.053056 0.29218,0.99234 0.94274,1.78998 1.28161,2.75623 0.0784,0.22348 0.0607,0.47783 0.11287,0.71121 0.0147,0.0656 0.0329,0.207 0.0859,0.17756 0.53471,-0.29692 0.13634,-0.38801 -0.0333,-0.47489 -0.23699,-0.57872 -0.60787,-1.12938 -0.61612,-1.78795 4.4e-4,-0.004 -0.0489,-0.0114 -0.0494,-0.007 v 0 c -0.012,0.67305 0.31631,1.25432 0.59691,1.82379 0.0372,0.17802 -0.0207,0.43254 0.11177,0.53407 0.33898,0.25979 0.52914,-0.17073 0.42688,-0.40169 -0.10465,-0.23635 -0.29686,-0.41049 -0.40652,-0.64383 -0.42603,-0.90658 -0.61944,-1.9441 -1.12409,-2.80833 -0.86592,-2.01202 -1.74554,-4.016023 -2.61019,-6.028765 -0.44789,-1.042607 -0.93634,-2.063496 -1.34263,-3.128424 -0.11412,-0.299137 -0.18975,-0.615812 -0.28462,-0.923717 -0.007,-0.02671 -0.33453,0.07237 -0.32844,0.09908 z" />
      <path
         style="fill:#ff8080;fill-opacity:1;stroke:#000000;stroke-width:0.484659;stroke-linejoin:round;stroke-miterlimit:4.4;stroke-dasharray:none;stroke-opacity:1"
         id="path5128"
         d="m 212.96718,105.82535 c -0.6953,0.3332 -0.21252,0.0285 -0.89085,0.75091 -0.69307,0.73808 -1.19738,1.10616 -1.44062,2.21014 0.0449,0.1139 0.0507,0.26219 0.13467,0.34169 0.47279,0.44792 2.09288,-0.37379 2.45373,-0.73104 0.21026,-0.20814 0.31979,-0.5215 0.47967,-0.78226 0.2928,-0.60854 0.56273,-1.25928 0.30256,-1.95239 -0.0737,-0.19634 -0.13824,-0.42799 -0.29356,-0.54552 -0.30842,-0.23338 -0.90586,-0.0347 -1.20008,0.0234 -0.71733,0.78507 -1.63421,1.6661 -1.57161,2.93976 0.0121,0.24706 0.0597,0.51335 0.19154,0.70891 0.14324,0.21253 0.39035,0.29604 0.58553,0.44406 0.28114,0.0449 0.56084,0.16529 0.84345,0.13476 1.17885,-0.12739 2.63227,-1.59434 2.77537,-2.98509 0.0297,-0.2889 -0.0698,-0.57628 -0.10463,-0.86442 -0.45456,-0.76387 -1.16207,-1.46355 -2.0496,-1.27083 -0.56524,0.12274 -0.94606,0.6466 -1.33262,1.06423 -0.008,0.008 0.0901,0.14445 0.0985,0.13644 v 0 c 0.19437,-0.14926 0.36732,-0.34452 0.58309,-0.44778 0.46736,-0.22366 1.64786,-0.39112 2.108,-0.075 0.19383,0.13315 0.29408,0.39413 0.44111,0.5912 0.031,0.26102 0.12364,0.52194 0.0933,0.78308 -0.17234,1.48092 -1.5173,2.3548 -2.64954,2.68588 -0.24806,0.0725 -0.50842,0.0684 -0.76264,0.10265 -0.16704,-0.10601 -0.38133,-0.14721 -0.5011,-0.31802 -0.56456,-0.80514 0.18713,-2.41759 0.78968,-2.89506 0.1761,-0.13954 0.40911,-0.14339 0.61366,-0.21509 0.15786,-0.0603 0.30785,-0.1647 0.47359,-0.18084 0.005,-5.1e-4 0.70778,0.18921 0.71912,0.20252 0.43198,0.50691 -0.0782,1.34983 -0.32412,1.74311 -0.20209,0.17314 -0.41556,0.33 -0.60631,0.51942 -0.20446,0.20304 -0.36225,0.46583 -0.57646,0.65511 -0.2756,0.24351 -1.11282,0.8482 -1.51822,0.51233 -0.0744,-0.0617 -0.0749,-0.1926 -0.11245,-0.28891 0.22613,-0.802 0.81303,-1.66413 1.43563,-2.12198 0.29908,-0.21994 0.6891,-0.2417 0.96263,-0.52394 0.0216,-0.0122 -0.12877,-0.36361 -0.15037,-0.35138 z" />
      <path
         style="fill:#ff8080;fill-opacity:1;stroke:#000000;stroke-width:0.484659;stroke-linejoin:round;stroke-miterlimit:4.4;stroke-dasharray:none;stroke-opacity:1"
         id="path5130"
         d="m 250.0705,81.957548 c 0.17,0.02495 0.34985,0.0047 0.51001,0.07482 0.144,0.06311 1.63581,1.092047 1.64367,1.09742 1.29476,0.886789 2.5943,1.753384 3.91047,2.597877 1.36413,0.820937 2.75807,1.587869 4.2086,2.1872 0.43832,0.181103 0.96389,0.40028 1.44506,0.422751 -0.42061,-0.194302 -0.87418,-0.270427 -1.31557,-0.380857 -0.003,-2.15e-4 -0.003,0.01889 -0.003,0.0191 v 0 c 0.40071,0.223733 0.88499,0.288515 1.32108,0.324128 -0.45049,-0.255092 -0.93462,-0.45124 -1.39295,-0.683628 -1.40699,-0.713398 -2.78898,-1.489639 -4.16041,-2.288883 -1.32982,-0.789825 -2.62831,-1.632378 -3.94613,-2.447059 -0.31707,-0.196024 -0.63484,-0.390779 -0.95662,-0.576418 -0.23963,-0.138248 -0.50019,-0.231044 -0.72722,-0.395037 -0.16678,-0.12048 -0.29512,-0.300052 -0.4427,-0.450078 -0.0306,-0.0077 -0.12529,0.490963 -0.0947,0.498659 z" />
      <path
         style="fill:#ff8080;fill-opacity:1;stroke:#000000;stroke-width:0.484659;stroke-linejoin:round;stroke-miterlimit:4.4;stroke-dasharray:none;stroke-opacity:1"
         id="path5132"
         d="m 262.77482,88.599073 c -2.05945,2.492547 -3.97537,5.136589 -5.92299,7.743924 -1.08472,1.291662 -1.8763,3.149539 -3.40765,3.816373 -0.25141,-0.0474 -0.9258,0.46142 -1.12605,0.4698 -0.33672,0.0141 -0.11156,-0.2043 -0.26838,-0.0206 0.35767,0.22249 0.47948,0.039 0.76639,-0.21038 0.003,-0.003 -0.0371,-0.0602 -0.0407,-0.0569 v 0 c -0.19438,0.18545 -0.45912,0.26541 -0.47247,0.57459 0.0122,-0.0795 -0.008,-0.17629 0.0364,-0.23846 0.11421,-0.15874 0.95225,-0.3391 1.13757,-0.43284 1.56866,-0.622266 2.53871,-2.301979 3.65114,-3.619463 1.97118,-2.587922 3.89768,-5.221911 5.70637,-7.963681 0.003,-0.0048 -0.0559,-0.06728 -0.0596,-0.06242 z" />
      <path
         style="fill:#ff8080;fill-opacity:1;stroke:#000000;stroke-width:0.484659;stroke-linejoin:round;stroke-miterlimit:4.4;stroke-dasharray:none;stroke-opacity:1"
         id="path5134"
         d="m 251.89603,99.923059 c -0.8846,0.431901 -1.71266,1.922561 -1.05063,2.994191 0.14105,0.22832 0.37121,0.36262 0.55682,0.54393 0.22471,0.0285 0.45608,0.15415 0.67417,0.0856 0.24954,-0.0785 0.44593,-0.30713 0.64304,-0.49987 0.63675,-0.6226 1.14311,-1.59734 1.08847,-2.59956 -0.0178,-0.32533 -0.16409,-0.624013 -0.24612,-0.936018 -0.15846,-0.235885 -0.27478,-0.518937 -0.47538,-0.707659 -0.20102,-0.189101 -0.45166,-0.304037 -0.69851,-0.396699 -0.63711,-0.239148 -1.07018,-0.289956 -1.60349,0.317583 -0.48621,0.553873 -0.61408,1.437583 -0.78567,2.144513 0.0791,1.21782 0.27473,2.52419 1.54689,2.83314 0.50093,0.12165 1.8887,-0.36421 2.30979,-0.64103 0.32177,-0.21153 0.56633,-0.55008 0.84949,-0.82512 0.1362,-0.34399 0.35534,-0.65898 0.40861,-1.03197 0.0519,-0.36302 -0.02,-0.74233 -0.10458,-1.0971 -0.25745,-1.079048 -0.48261,-1.300244 -1.46381,-1.638673 -0.78307,-0.270097 -1.35797,-0.06466 -2.13373,0.07156 -0.27145,0.280886 -0.62209,0.485583 -0.81432,0.842656 -0.31653,0.587964 -0.44742,2.458637 0.0225,3.034237 0.21896,0.26824 0.53561,0.45797 0.85271,0.50636 0.26807,0.0409 0.5199,-0.17147 0.77984,-0.25721 0.2069,-0.12859 0.41379,-0.25718 0.62068,-0.38578 0.009,-0.006 -0.0648,-0.14663 -0.0735,-0.14065 v 0 c -0.19248,0.11924 -0.38493,0.23849 -0.57738,0.35773 -0.61464,-0.1015 -1.35231,-0.12684 -1.65384,-0.92188 -0.4073,-1.07393 0.52468,-1.780187 1.0813,-2.398734 0.2844,-0.193879 0.53093,-0.496945 0.85322,-0.581636 0.80686,-0.212033 1.09827,0.159367 1.62109,0.706898 0.9936,1.040582 1.07794,1.346292 0.4337,2.737512 -0.62071,0.59503 -0.97731,1.1068 -1.8475,1.22463 -0.75113,0.10172 -2.04118,-0.42061 -2.39567,-1.26253 -0.13406,-0.31835 -0.0822,-0.70113 -0.12322,-1.0517 0.0813,-0.34957 0.089,-0.73375 0.24386,-1.048689 0.24578,-0.499705 1.38903,-1.35164 1.91671,-1.327124 0.53832,0.025 0.76105,0.54857 1.04245,0.953898 0.17871,0.995215 0.27219,1.793045 -0.23043,2.705375 -0.41821,0.75914 -0.86429,0.90666 -1.59395,0.78037 -0.10395,-0.0632 -0.23463,-0.0876 -0.31185,-0.18954 -0.64319,-0.84937 0.16238,-2.07463 0.77506,-2.57119 0.0202,-0.0111 -0.1165,-0.340904 -0.13678,-0.329778 z" />
      <path
         style="fill:#ff8080;fill-opacity:1;stroke:#000000;stroke-width:0.484659;stroke-linejoin:round;stroke-miterlimit:4.4;stroke-dasharray:none;stroke-opacity:1"
         id="path5136"
         d="m 250.41995,82.972151 c 0.36265,-0.366011 0.63208,-0.847037 1.00396,-1.201391 1.1759,-1.120513 2.62627,-1.829473 4.0425,-2.426798 2.07948,-0.660582 3.6644,-0.388991 5.5473,0.759235 1.47142,1.204828 2.01476,3.155403 2.40328,5.090454 0.37633,2.462682 0.33215,4.977975 0.28424,7.468217 -0.0428,2.824577 -0.37702,5.625865 -0.63014,8.431672 -0.27079,2.82596 -0.31809,5.672 -0.14028,8.50614 0.20542,1.89709 0.67431,3.84766 1.99809,5.12962 0.23269,0.22534 0.50142,0.39626 0.75211,0.59438 2.10083,1.16321 4.10592,0.49015 6.1692,-0.40782 3.04106,-1.57322 5.83738,-3.68792 8.67983,-5.67634 1.33275,-0.87743 2.56144,-1.91817 3.76632,-3.0059 0.0169,-0.0159 -0.17847,-0.29103 -0.19539,-0.27514 v 0 c -1.19814,1.0837 -2.43384,2.08092 -3.77212,2.93014 -2.83556,1.96735 -5.60478,4.09138 -8.59504,5.74071 -1.9331,0.88869 -4.00314,1.64304 -5.98709,0.50319 -0.21907,-0.16988 -0.45527,-0.31366 -0.65721,-0.50965 -1.29255,-1.25464 -1.73212,-3.14754 -1.90832,-5.00401 -0.16874,-2.81903 -0.12896,-5.6496 0.15613,-8.45874 0.26286,-2.813172 0.5432,-5.627041 0.59816,-8.458728 0.0555,-2.510439 0.0749,-5.04289 -0.31512,-7.523574 -0.41843,-2.027868 -1.01685,-4.011881 -2.55476,-5.276408 -0.25981,-0.161929 -0.50907,-0.348604 -0.77947,-0.485783 -1.55839,-0.790692 -3.28879,-0.824562 -4.91496,-0.31955 -1.97059,0.802737 -3.7297,1.894766 -5.1923,3.64306 -0.0142,0.01961 0.22676,0.252628 0.24108,0.233014 z" />
      <path
         style="fill:#ff8080;fill-opacity:1;stroke:#000000;stroke-width:0.484659;stroke-linejoin:round;stroke-miterlimit:4.4;stroke-dasharray:none;stroke-opacity:1"
         id="path5138"
         d="m 249.41572,79.384905 c 1.84512,-1.471305 3.95808,-2.395771 6.04614,-3.309656 2.60488,-0.949488 5.34213,-1.807771 8.10445,-1.593932 0.45019,0.03485 0.89455,0.136687 1.34184,0.205027 1.73619,0.419258 3.35971,1.289507 4.49893,2.896848 0.20647,0.291323 0.38043,0.611248 0.57066,0.916873 1.15151,2.15847 1.35121,4.252587 1.31302,6.728436 -0.39984,3.389819 -1.34825,6.645004 -2.01133,9.970375 -0.26778,1.596157 -0.44883,3.422888 0.57209,4.744547 0.18394,0.238137 0.41483,0.422147 0.62224,0.633227 2.4243,1.62101 4.84256,0.45328 7.19165,-0.741279 2.42837,-1.484901 4.75956,-3.352641 6.25034,-6.074263 0.22714,-0.414668 0.40014,-0.865454 0.60021,-1.298181 0.44868,-1.418275 0.28726,-0.73559 0.51784,-2.037153 0.003,-0.01283 -0.15401,-0.07253 -0.15767,-0.05971 v 0 c -0.28439,1.23925 -0.0991,0.589283 -0.58555,1.938314 -0.58328,1.174097 -0.68331,1.494145 -1.48077,2.567845 -1.45804,1.963029 -3.35942,3.372217 -5.31145,4.598882 -1.87399,1.016675 -4.11473,2.267335 -6.2223,1.364575 -0.25516,-0.1093 -0.48552,-0.28368 -0.72828,-0.42553 -0.18389,-0.17771 -0.38975,-0.32909 -0.55166,-0.533133 -1.01847,-1.283361 -0.773,-3.037712 -0.46599,-4.580537 0.74439,-3.319532 1.75359,-6.593086 1.99792,-10.030463 0.0178,-2.459383 -0.22074,-4.71353 -1.35835,-6.857874 -0.19361,-0.31392 -0.36759,-0.645152 -0.58084,-0.941757 -1.20131,-1.670945 -2.86585,-2.639979 -4.68311,-3.110865 -0.45853,-0.07822 -0.91351,-0.192411 -1.37562,-0.234662 -2.79972,-0.255981 -5.58805,0.565932 -8.21012,1.604749 -1.32306,0.602258 -1.60462,0.6957 -2.86383,1.401408 -2.5164,1.41029 0.0337,0.03535 -2.05421,1.286562 -1.70175,1.019774 0.0423,-0.140983 -1.16598,0.680065 -0.018,0.01463 0.16184,0.305885 0.17973,0.291262 z" />
      <path
         style="fill:#ff8080;fill-opacity:1;stroke:#000000;stroke-width:0.484659;stroke-linejoin:round;stroke-miterlimit:4.4;stroke-dasharray:none;stroke-opacity:1"
         id="path5140"
         d="m 285.87313,90.083033 c -1.26761,3.983106 -1.98786,8.176879 -2.76336,12.316677 -0.23639,1.07618 -0.38777,2.1874 -0.73124,3.23012 -0.0456,0.13853 -0.16943,0.4613 -0.1514,0.13878 0.0476,-0.42166 0.23825,-0.76494 0.43019,-1.11696 0.003,-0.005 -0.0551,-0.0492 -0.0578,-0.0445 v 0 c -0.19098,0.36283 -0.37723,0.72406 -0.39983,1.15899 0.0413,0.2937 0.15931,0.16765 0.28567,-0.0755 0.50084,-0.96402 0.68128,-2.10416 0.97791,-3.1559 0.92003,-4.114242 1.73227,-8.257384 2.45497,-12.423542 0.003,-0.0036 -0.0433,-0.03179 -0.0451,-0.02811 z" />
      <path
         style="fill:#ff8080;fill-opacity:1;stroke:#000000;stroke-width:0.484659;stroke-linejoin:round;stroke-miterlimit:4.4;stroke-dasharray:none;stroke-opacity:1"
         id="path5142"
         d="m 251.37758,88.08247 c 1.26474,-0.412018 2.72801,-1.044467 4.04163,-0.502158 0.23347,0.09638 0.43339,0.277715 0.65008,0.416575 0.15012,0.205228 0.32879,0.386823 0.4504,0.615692 0.71293,1.341841 0.87989,3.551238 1.10629,5.097159 0.10749,0.60955 -0.0833,1.254994 0.0217,1.864776 0.0533,0.3092 0.23077,0.5754 0.30026,0.880311 0.0591,0.258893 0.0532,0.531782 0.0821,0.797351 0.0913,0.839478 0.056,0.562975 0.196,1.363218 0.2287,1.015249 0.68371,1.930446 1.06794,2.873526 0.37466,0.90567 0.90363,1.70891 1.36395,2.5569 0.49258,1.05138 0.93666,2.13397 1.40721,3.19978 0.49211,1.18117 -0.0261,-0.13207 0.33361,0.98325 0.042,0.13013 0.13894,0.23948 0.1531,0.37733 0.0115,0.11339 -0.0761,0.21572 -0.0805,0.3298 -0.005,0.12657 0.0671,0.2416 0.0922,0.36498 0.0337,0.19601 0.0212,0.42173 0.14896,0.57245 0.18687,0.34022 0.43516,0.0183 0.56715,-0.19171 0.003,-0.003 -0.0272,-0.0454 -0.0298,-0.043 v 0 c -0.46279,0.16658 0.0432,0.16221 -0.11845,0.0343 -0.0476,-0.10542 -0.0421,-0.26269 -0.0549,-0.39085 -0.0978,-0.71883 -0.0541,-0.20327 -0.35489,-0.7142 -0.0674,-0.11442 -0.063,-0.26817 -0.11419,-0.39319 -0.0644,-0.15732 -0.15377,-0.29943 -0.23064,-0.44914 -0.068,-0.1712 -0.13596,-0.34241 -0.20393,-0.51361 -0.46253,-1.07483 -0.921,-2.15413 -1.43004,-3.20083 -0.4551,-0.84837 -0.98469,-1.64772 -1.36434,-2.54616 -0.37741,-0.9345 -0.8242,-1.843928 -1.0325,-2.854406 -0.10885,-0.677358 -0.26205,-1.45983 -0.23725,-2.150085 0.0106,-0.295043 0.13883,-0.57866 0.12747,-0.873667 -0.007,-0.163186 -0.38685,-1.735019 -0.42105,-1.879328 -0.21585,-1.575978 -0.38691,-3.831707 -1.15359,-5.178559 -0.15018,-0.263825 -0.36319,-0.472469 -0.54479,-0.708704 -0.23014,-0.146804 -0.44312,-0.336951 -0.69042,-0.44041 -1.34952,-0.564535 -2.82407,0.05703 -4.08879,0.60449 -0.006,0.0033 0.0339,0.101357 0.0399,0.09811 z" />
      <path
         style="fill:#ff8080;fill-opacity:1;stroke:#000000;stroke-width:0.484659;stroke-linejoin:round;stroke-miterlimit:4.4;stroke-dasharray:none;stroke-opacity:1"
         id="path5144"
         d="m 285.22717,90.621463 c -0.34958,0.82429 -0.88419,1.580687 -1.18582,2.429545 -0.14367,0.404335 -0.2039,0.841589 -0.31125,1.26058 -0.75699,2.954355 0.0822,-0.450542 -0.65186,2.561497 -0.41011,1.707711 -0.52771,3.469705 -0.58355,5.230905 -0.0202,0.8279 -0.39014,1.5392 -0.66042,2.28218 -0.18553,0.57645 -0.26598,1.18986 -0.25912,1.80282 0.006,0.23508 0.0689,0.46645 0.0545,0.7012 -0.18605,-0.0373 -0.18498,0.2495 -0.18722,0.3949 -0.009,0.15638 -0.0864,0.21002 -0.0493,0.37614 0,0.003 0.003,0.006 0.003,0.01 0.0601,-0.0597 0.12016,-0.11939 0.18023,-0.17908 0.003,-0.003 -0.0308,-0.0254 -0.0322,-0.0228 v 0 c 0.003,0.0612 0.003,0.12243 0.005,0.18364 -1.4e-4,5.2e-4 0,7.7e-4 0,10e-4 -0.006,-0.15047 -0.0801,-0.22029 -0.0854,-0.3656 0.003,-0.16528 -0.008,-0.39727 0.18318,-0.39201 0.0198,-0.23333 -0.0182,-0.4671 -0.0252,-0.70097 0.003,-0.60333 0.0859,-1.20949 0.2754,-1.77399 0.27974,-0.74741 0.64473,-1.46653 0.6876,-2.29903 0.13551,-1.73513 0.32187,-3.4672 0.72465,-5.152034 0.22806,-0.958402 0.34753,-1.599679 0.69409,-2.511247 0.14765,-0.388315 0.36203,-0.740216 0.50678,-1.129972 0.3122,-0.840751 0.46242,-1.771319 0.92686,-2.538442 0.0104,-0.01695 -0.19805,-0.186179 -0.20846,-0.169219 z" />
      <path
         style="fill:#ff8080;fill-opacity:1;stroke:#000000;stroke-width:0.484659;stroke-linejoin:round;stroke-miterlimit:4.4;stroke-dasharray:none;stroke-opacity:1"
         id="path5146"
         d="m 285.12214,92.883092 c -0.67516,3.333422 -1.34733,6.665452 -2.11031,9.974848 -0.44232,1.00088 -0.40614,2.14871 -0.70188,3.19223 -0.10016,0.35342 -0.27965,0.67033 -0.4269,1.00122 -0.1478,0.33219 -0.39367,0.92709 -0.51357,0.89268 0.23525,0.0802 0.0715,-0.142 0.24602,-0.26422 -0.31875,-0.16251 -0.18838,-0.0413 -0.27158,0.19123 0.18181,0.12041 0.22461,0.0806 0.34608,-0.1609 0.003,-0.003 -0.0351,-0.035 -0.0371,-0.0319 v 0 c -0.18533,0.25073 -0.19733,0.14475 -0.0255,0.46378 0.009,0.0171 0.0282,-0.0737 0.0285,-0.0507 0.15281,-0.32516 0.12146,-0.57318 -0.17269,-0.78055 -0.18383,0.10889 -0.36892,0.53949 -0.23785,0.7812 0.0575,0.10614 0.16347,0.16503 0.24521,0.24755 0.73044,-0.29066 0.84738,-1.44733 1.11111,-2.14406 1.09166,-2.88405 0.12837,0.30951 1.05781,-3.06884 0.78747,-3.330594 1.49724,-6.703213 1.79657,-10.144882 0.006,-0.02717 -0.32794,-0.125828 -0.334,-0.09866 z" />
      <path
         style="fill:#ff8080;fill-opacity:1;stroke:#000000;stroke-width:0.715043;stroke-linejoin:round;stroke-miterlimit:4.4;stroke-dasharray:none;stroke-opacity:1"
         d="m 266.02755,114.7374 c -2.48893,-1.47143 -2.97705,-4.859 -2.1721,-15.074025 1.03419,-13.123765 0.26797,-18.167197 -3.10646,-20.447545 -0.85149,-0.575408 -1.69513,-0.769547 -3.27932,-0.754628 -1.80994,0.01705 -2.47856,0.23121 -4.41546,1.414357 -1.25541,0.76685 -2.39803,1.394271 -2.53917,1.394271 -0.58146,0 -0.21049,-1.880263 0.48108,-2.43838 1.16194,-0.937736 5.60006,-2.799138 8.13854,-3.413412 2.92946,-0.708883 4.34885,-0.70557 6.45837,0.01508 3.06832,1.048202 4.88008,3.672477 5.23029,7.575984 0.13947,1.554517 -0.10467,3.416464 -1.05912,8.077664 -1.10955,5.418602 -1.1989,6.216735 -0.84713,7.567363 1.13266,4.348851 7.21741,3.828991 12.42899,-1.061873 l 1.41586,-1.328714 -0.1935,1.272161 c -0.1064,0.699688 -0.32812,2.290499 -0.4927,3.535137 -0.32305,2.44309 -1.13563,6.3183 -1.44597,6.89595 -0.33261,0.61911 -8.05314,5.80123 -9.744,6.54031 -1.86079,0.81335 -3.72268,0.90161 -4.8582,0.2303 z"
         id="path5148" />
      <path
         style="fill:#999999;fill-opacity:1;stroke:#000000;stroke-width:0.715043;stroke-linejoin:round;stroke-miterlimit:4.4;stroke-dasharray:none;stroke-opacity:1"
         d="m 260.65968,103.01637 c -1.59022,-3.198945 -2.20464,-5.02841 -2.20464,-6.56441 0,-0.496106 0.95906,-2.201902 2.29507,-4.082056 1.26227,-1.776398 2.29094,-3.345827 2.28592,-3.487616 -0.005,-0.141789 -2.5132,-1.689632 -5.57372,-3.439648 -3.0605,-1.750019 -5.56457,-3.307471 -5.56457,-3.46101 0,-0.563671 3.70127,-2.341225 5.18843,-2.491762 2.06736,-0.209271 4.2606,1.066909 5.05848,2.943404 1.35923,3.196715 1.50421,9.393571 0.46477,19.865208 l -0.38392,3.86778 z"
         id="path5150" />
      <path
         style="fill:#999999;fill-opacity:1;stroke:#000000;stroke-width:0.715043;stroke-linejoin:round;stroke-miterlimit:4.4;stroke-dasharray:none;stroke-opacity:1"
         d="m 257.88367,91.493992 c -0.64019,-3.960036 -1.94976,-5.144137 -4.97474,-4.498154 -0.79632,0.170048 -1.4924,0.257917 -1.54684,0.195267 -0.0545,-0.06265 -0.1997,-1.09911 -0.32273,-2.30324 l -0.22366,-2.189326 1.7705,1.189427 c 2.83963,1.907643 6.24081,3.853192 7.8797,4.507355 l 1.51906,0.606331 -1.86931,2.367799 -1.86932,2.3678 z"
         id="path5221" />
      <path
         style="fill:#999999;fill-opacity:1;stroke:#000000;stroke-width:0.484659;stroke-linejoin:round;stroke-miterlimit:4.4;stroke-dasharray:none;stroke-opacity:1"
         id="path5286"
         d="m 226.86188,76.672725 c 0.14207,0.511285 0.562,1.503659 1.17127,1.343503 0.0906,-0.0238 0.15892,-0.110693 0.23839,-0.166037 0.34578,-0.55227 0.26526,-1.54001 -0.40638,-1.741696 -0.1178,-0.03537 -0.24324,0.01239 -0.36486,0.01859 -0.007,0.0012 0.009,0.115939 0.0162,0.114619 v 0 c 0.10522,-0.0049 0.2128,-0.04078 0.31565,-0.01475 0.58924,0.149195 0.64854,1.059118 0.39333,1.544614 -0.0651,0.04798 -0.11939,0.126703 -0.19521,0.143934 -0.4911,0.1116 -0.94415,-0.848834 -1.11072,-1.248706 -4.4e-4,-0.0047 -0.058,0.0012 -0.0577,0.0059 z" />
      <path
         style="fill:#999999;fill-opacity:1;stroke:#000000;stroke-width:0.484659;stroke-linejoin:round;stroke-miterlimit:4.4;stroke-dasharray:none;stroke-opacity:1"
         id="path5288"
         d="m 239.66192,77.159189 c -0.13907,0.372074 -0.13923,1.353287 0.44218,1.034433 0.0971,-0.05324 0.17229,-0.148109 0.25843,-0.222162 0.29243,-0.429386 0.4634,-1.059589 0.13997,-1.544154 -0.0576,-0.08625 -0.14908,-0.133786 -0.22359,-0.200679 -0.005,-0.0025 -0.0357,0.07294 -0.031,0.07547 v 0 c 0.44318,0.424963 0.35826,1.077158 0.0515,1.582878 -0.70279,0.720605 -0.66051,-0.07115 -0.58519,-0.703632 0.003,-0.0042 -0.0508,-0.0264 -0.0522,-0.02214 z" />
      <path
         style="fill:#999999;fill-opacity:1;stroke:#000000;stroke-width:0.484659;stroke-linejoin:round;stroke-miterlimit:4.4;stroke-dasharray:none;stroke-opacity:1"
         id="path5290"
         d="m 236.79811,71.930095 c 1.43239,-0.566287 2.87319,-1.036629 4.20813,-1.887874 0.49165,-0.313521 0.93318,-0.722036 1.41219,-1.060477 0.37259,-0.263243 0.76091,-0.495791 1.14136,-0.743687 0.0239,-0.01583 -0.17058,-0.403282 -0.1944,-0.387468 v 0 c -1.70784,0.905444 -0.78324,0.456905 -2.78483,1.315037 -1.3749,0.701687 -2.57746,1.690281 -3.84977,2.593503 -0.0105,0.0055 0.0568,0.176442 0.0673,0.170966 z" />
      <path
         style="fill:#999999;fill-opacity:1;stroke:#000000;stroke-width:0.484659;stroke-linejoin:round;stroke-miterlimit:4.4;stroke-dasharray:none;stroke-opacity:1"
         id="path5292"
         d="m 225.23562,66.884646 c 0.79563,0.381684 1.54025,0.888363 2.31737,1.312854 0.49832,0.272199 1.01245,0.504804 1.51167,0.774795 0.50662,0.273989 0.98897,0.607867 1.50526,0.856805 0.40606,0.195786 0.83663,0.316029 1.25494,0.474044 0.0277,0.008 0.12509,-0.442255 0.0974,-0.45018 v 0 c -0.40228,-0.286454 -0.77538,-0.63611 -1.20685,-0.859362 -0.49582,-0.256541 -1.04018,-0.365288 -1.55413,-0.569198 -1.31108,-0.520161 -2.58015,-1.188993 -3.91751,-1.618211 -0.005,-7.67e-4 -0.013,0.07779 -0.008,0.07846 z" />
      <path
         style="fill:#999999;fill-opacity:1;stroke:#000000;stroke-width:1.2;stroke-linejoin:round;stroke-miterlimit:4.4;stroke-dasharray:none;stroke-opacity:1"
         id="path5298"
         d="m 177.59253,91.352279 c 4.0991,-2.234303 8.05582,-4.793681 11.5435,-7.914044 0.9838,-0.880192 1.89376,-1.839588 2.84064,-2.75938 3.10259,-3.609964 8.63127,-10.384734 7.58895,-15.595094 -0.12308,-0.615247 -0.54033,-1.132584 -0.8105,-1.698877 -0.51677,-0.311753 -0.97046,-0.767831 -1.55028,-0.93526 -3.42231,-0.988213 -6.50072,2.151172 -8.06777,4.729827 -0.67014,1.102765 -1.14795,2.311485 -1.72192,3.467227 -4.28044,11.895402 -5.30103,24.703609 -6.75658,37.181252 -1.0404,9.96737 -2.23839,19.93378 -2.77709,29.94562 -0.006,0.0909 -0.0116,0.18175 -0.0174,0.27262 -8e-4,0.002 0.0258,0.0127 0.0266,0.0109 v 0 c 0.05,-0.0831 0.10005,-0.16617 0.15007,-0.24925 1.50714,-9.88345 2.1537,-19.8862 3.41216,-29.80079 1.22897,-10.876417 2.01952,-22.363294 4.93075,-32.94674 0.39253,-1.427005 0.92299,-2.812435 1.38448,-4.218653 0.54398,-1.152626 0.9947,-2.354075 1.63194,-3.457882 1.48546,-2.573058 4.37327,-5.639062 7.74791,-4.762707 0.52764,0.13702 0.94712,0.54007 1.42068,0.810107 0.24904,0.540088 0.6428,1.034748 0.74713,1.620269 0.89616,5.02958 -4.66513,11.80856 -7.62841,15.331913 -0.93714,0.916749 -1.83948,1.870485 -2.81143,2.750246 -3.4599,3.131736 -7.37411,5.699463 -11.32049,8.165168 -0.003,0.0026 0.0333,0.05621 0.0371,0.05359 z" />
      <path
         style="fill:#999999;fill-opacity:1;stroke:#000000;stroke-width:0.799999;stroke-linejoin:round;stroke-miterlimit:4.4;stroke-dasharray:none;stroke-opacity:1"
         id="path5300"
         d="m 173.08028,115.25094 c 1.64264,-0.48727 3.18327,-1.24746 4.76297,-1.89588 0.77514,-0.31817 1.58159,-0.56165 2.34077,-0.91622 1.53416,-0.71651 2.98592,-1.59823 4.49658,-2.36303 1.30594,-0.73412 2.69809,-1.36089 3.90595,-2.26032 0.002,-10e-4 -0.0131,-0.0239 -0.0147,-0.0229 v 0 c -1.37214,0.6149 -2.63589,1.46327 -4.01822,2.05952 -2.98108,1.48191 -1.44495,0.7696 -4.61254,2.12794 -2.2828,1.08943 -4.47974,2.38137 -6.8814,3.21876 -0.003,0.002 0.0169,0.0536 0.0206,0.0521 z" />
      <path
         style="fill:#999999;fill-opacity:1;stroke:#000000;stroke-width:1.46972;stroke-linejoin:round;stroke-miterlimit:4.4;stroke-dasharray:none;stroke-opacity:1"
         id="path5302"
         d="m 219.19255,45.245395 c -2.496,4.820214 -5.57739,9.305369 -8.49977,13.87057 -5.97033,9.450771 -10.06635,19.935203 -13.17183,30.639787 -0.71235,2.455473 -1.2989,4.945705 -1.94836,7.418559 -2.47189,9.161929 -3.16987,18.567589 -3.26028,28.005529 -0.1151,3.9677 -0.11446,7.93781 0.61187,11.85495 0.43348,2.33776 0.77289,3.28907 1.43437,5.54772 0.7448,1.30761 0.81766,3.66037 2.14997,4.67071 0.14159,0.10737 0.35412,0.0299 0.53117,0.0448 0.003,-2e-4 8e-4,-0.0507 -0.003,-0.0504 v 0 c -0.14323,-0.0117 -0.32215,0.0604 -0.42972,-0.035 -1.23541,-1.09461 -1.2012,-3.34539 -1.9574,-4.66297 -1.68155,-5.81357 -2.4487,-11.25245 -2.02559,-17.32591 0.23003,-9.37579 1.17046,-18.70772 3.70339,-27.778986 3.54503,-13.163116 7.49166,-26.400308 14.72973,-38.079894 2.87401,-4.604261 5.9136,-9.152623 8.18778,-14.093931 0.002,-0.0037 -0.0507,-0.02928 -0.0525,-0.02556 z" />
      <path
         style="fill:#999999;fill-opacity:1;stroke:#000000;stroke-width:1.46972;stroke-linejoin:round;stroke-miterlimit:4.4;stroke-dasharray:none;stroke-opacity:1"
         id="path5304"
         d="m 282.99838,50.838454 c 3.73629,5.821846 6.29434,12.262511 8.73314,18.703689 1.96384,5.858184 3.81156,11.807058 4.78459,17.924489 0.54046,3.397851 0.50842,4.396238 0.69117,7.783724 0.18664,8.094174 -1.20766,16.087354 -2.93915,23.959044 -1.42041,6.3613 -3.01797,12.66413 -5.47907,18.70708 -1.35192,2.80876 -2.7477,5.79331 -5.19705,7.82503 -0.63611,0.39953 -0.30213,-0.16343 -0.12033,-0.57094 0.003,-0.005 -0.0619,-0.0349 -0.0641,-0.0304 v 0 c -0.1688,0.48224 -0.44077,1.00302 0.22947,0.65664 2.58093,-1.91221 4.01109,-4.95539 5.39607,-7.76085 2.53207,-6.0256 4.20053,-12.32982 5.63867,-18.69887 1.71609,-7.90747 3.18255,-15.92216 2.93426,-24.053576 -0.16232,-3.398393 -0.1265,-4.419764 -0.64135,-7.83122 -0.92771,-6.146934 -2.73241,-12.133957 -4.75152,-17.997633 -2.47179,-6.470988 -5.08503,-12.970956 -9.1362,-18.645618 -0.003,-0.0056 -0.0807,0.02384 -0.0787,0.0294 z" />
      <path
         style="fill:#f9f9f9;fill-opacity:1;stroke:#000000;stroke-width:0.779235;stroke-linejoin:round;stroke-miterlimit:4.4;stroke-dasharray:none;stroke-opacity:1"
         id="path4699"
         d="m 219.74134,73.621038 c -0.49361,2.385487 -1.17939,4.71401 -1.79156,7.062225 -0.99744,3.681956 -2.02214,7.350388 -2.81649,11.098639 -0.79673,3.975211 -1.27696,8.018314 -1.64439,12.071768 -0.13523,2.11798 -0.45292,4.20646 -0.91425,6.26033 -0.31867,1.47769 -0.73925,2.91954 -1.14675,4.3665 -0.38393,1.38577 -0.65412,2.80711 -0.8897,4.2345 -0.28313,1.84988 -0.52823,3.70668 -0.84183,5.55018 -0.49874,2.54473 -0.90796,5.1105 -1.36532,7.66511 -0.13533,0.74322 -0.25392,1.48985 -0.3533,2.24042 -0.002,0.007 0.0859,0.0381 0.0878,0.0309 v 0 c 0.1674,-0.72944 0.32765,-1.46103 0.47037,-2.19748 0.49737,-2.54656 0.92446,-5.11076 1.36442,-7.67107 0.29049,-1.85247 0.49016,-3.72036 0.76522,-5.57567 0.23056,-1.42288 0.49931,-2.83928 0.89168,-4.21635 0.40138,-1.45099 0.8289,-2.89234 1.15489,-4.36953 0.50857,-2.04354 0.84706,-4.13045 1.06206,-6.24216 0.48124,-4.018084 0.98314,-8.03914 1.7254,-12.006144 0.77153,-3.752092 1.76805,-7.424426 2.72515,-11.117884 0.60443,-2.359643 1.29773,-4.722609 1.5669,-7.17061 8.4e-4,-0.0041 -0.0495,-0.01782 -0.0503,-0.01373 z" />
      <path
         style="fill:#f9f9f9;fill-opacity:1;stroke:#000000;stroke-width:0.779235;stroke-linejoin:round;stroke-miterlimit:4.4;stroke-dasharray:none;stroke-opacity:1"
         id="path4701"
         d="m 207.51541,135.34679 c -1.78221,1.29338 -3.4418,2.79409 -5.12535,4.24805 -0.46331,0.40866 -0.93565,0.80345 -1.40154,1.20814 -0.13147,0.11419 -0.26237,0.22927 -0.39193,0.3463 -0.0547,0.0494 -0.2257,0.1246 -0.16068,0.15286 0.0721,0.0313 0.13214,-0.091 0.1982,-0.13655 0.003,-0.003 -0.0301,-0.0433 -0.0327,-0.0407 v 0 c -0.047,0.0731 -0.17838,0.13898 -0.14124,0.2193 0.0337,0.0728 0.13433,-0.0587 0.19725,-0.0982 0.66107,-0.41377 1.25655,-0.95278 1.87965,-1.43351 1.70087,-1.42452 3.36125,-2.91099 5.02359,-4.39415 0.004,-0.004 -0.0409,-0.0754 -0.0453,-0.0716 z" />
      <path
         style="fill:#f9f9f9;fill-opacity:1;stroke:#000000;stroke-width:0.779235;stroke-linejoin:round;stroke-miterlimit:4.4;stroke-dasharray:none;stroke-opacity:1"
         id="path4703"
         d="m 201.63606,143.24421 c 3.46924,-0.73977 6.94494,-1.43085 10.43469,-2.03 3.07657,-0.53768 6.1736,-1.00916 9.17394,-1.98446 1.16751,-0.4381 0.46154,0.0902 -0.0284,0.48717 -0.13808,0.1088 -0.27269,0.22041 -0.37873,0.36989 -8.4e-4,9.6e-4 0.0117,0.0155 0.0126,0.0144 v 0 c 0.12762,-0.1199 0.26493,-0.22457 0.40418,-0.32582 0.49057,-0.39988 1.16824,-1.0051 -0.0612,-0.7265 -3.06827,0.64209 -6.15204,1.1526 -9.24261,1.6332 -3.47504,0.63672 -6.97266,1.26749 -10.33709,2.48586 -0.005,0.002 0.0179,0.0781 0.0226,0.0762 z" />
      <path
         style="fill:#f9f9f9;fill-opacity:1;stroke:#000000;stroke-width:0.779235;stroke-linejoin:round;stroke-miterlimit:4.4;stroke-dasharray:none;stroke-opacity:1"
         id="path4705"
         d="m 226.39089,111.46125 c -1.35073,4.23719 -2.20542,8.66348 -3.04571,13.06381 -0.57186,3.26113 -1.08823,6.53494 -1.52182,9.82429 -0.11511,0.87333 -0.19252,1.7533 -0.32347,2.62366 -0.47485,3.15603 -0.35363,0.8448 -0.39887,3.49381 0.064,0.0645 -0.19786,1.49061 -0.13306,1.57204 0.0341,0.0428 0.0191,-0.11429 0.0232,-0.17218 0.0117,-0.16569 0.0112,-0.33228 0.0207,-0.49816 0.009,-0.0968 0.0175,-0.19362 0.0263,-0.29044 6.7e-4,-0.004 -0.0516,-0.0168 -0.0523,-0.0126 v 0 c -0.008,0.0978 -0.0146,0.19564 -0.0218,0.29346 -0.002,0.0508 -0.0528,0.67548 0.0349,0.69287 0.11989,0.0238 0.28556,-1.54011 0.38029,-1.49937 0.67794,-2.4484 0.16847,-0.30214 0.58584,-3.43648 0.11565,-0.86849 0.27905,-1.72769 0.41465,-2.59235 0.51199,-3.26491 0.9788,-6.53928 1.53963,-9.79392 0.78124,-4.42871 1.60508,-8.8478 2.53397,-13.23907 0.002,-0.005 -0.0606,-0.0345 -0.0624,-0.0295 z" />
      <path
         style="fill:#f9f9f9;fill-opacity:1;stroke:#000000;stroke-width:0.779235;stroke-linejoin:round;stroke-miterlimit:4.4;stroke-dasharray:none;stroke-opacity:1"
         id="path4707"
         d="m 227.29919,110.33763 c 2.85402,0.86813 5.78117,1.38774 8.70646,1.81739 0.83,-0.0153 2.76534,0.56193 3.53707,-0.0507 0.0817,-0.0648 0.11324,-0.18763 0.16987,-0.28145 0.003,-0.004 -0.0428,-0.0445 -0.0453,-0.0409 v 0 c -0.0529,0.0751 -0.0844,0.18022 -0.15877,0.22524 -0.74026,0.4481 -2.73331,-0.25976 -3.50649,-0.25728 -2.89899,-0.49504 -5.79686,-0.99917 -8.69491,-1.50089 -0.005,-5.1e-4 -0.0134,0.0879 -0.008,0.0886 z" />
      <path
         style="fill:#f9f9f9;fill-opacity:1;stroke:#000000;stroke-width:0.779235;stroke-linejoin:round;stroke-miterlimit:4.4;stroke-dasharray:none;stroke-opacity:1"
         id="path4709"
         d="m 241.33861,110.9744 c 1.11367,4.42458 1.93199,8.9437 2.74558,13.45191 0.87327,4.32292 1.40482,8.70908 1.77485,13.12093 0.016,0.12607 -0.0555,0.33261 0.0479,0.37822 0.092,0.0406 0.0416,-0.22232 0.0494,-0.33531 0.0338,-0.48532 -0.003,-0.97983 0.003,-1.46652 -0.0123,0.002 -0.0262,0.30386 -0.0234,0.42425 0,0.002 0.0291,0.007 0.0293,0.004 v 0 c 0,-0.0892 0.0341,-0.49721 -0.0415,-0.43674 -0.0295,0.19462 -0.1132,1.84115 0.0509,1.82066 0.10756,-0.0134 0.0356,-0.24554 0.0534,-0.36831 0.17561,-4.44341 -0.60372,-8.84382 -1.3683,-13.17577 -0.87562,-4.53078 -1.66808,-9.14599 -3.24175,-13.43926 -0.003,-0.007 -0.0805,0.0155 -0.0791,0.0219 z" />
      <path
         style="fill:#f9f9f9;fill-opacity:1;stroke:#000000;stroke-width:0.779235;stroke-linejoin:round;stroke-miterlimit:4.4;stroke-dasharray:none;stroke-opacity:1"
         id="path4711"
         d="m 246.53437,139.00414 c 4.15535,0.41631 8.33315,0.32812 12.49919,0.26654 0.89371,0.0711 1.79591,-0.10342 2.6904,-0.0524 0.0463,0.003 -0.0922,0.01 -0.13845,0.013 -0.14044,0.0106 -0.28094,0.0202 -0.42148,0.0292 -0.18411,0.0118 -0.36827,0.022 -0.55241,0.033 -0.1777,-2.3e-4 -0.35541,-5.1e-4 -0.53311,-7.6e-4 -0.008,9.7e-4 0.006,0.12966 0.0138,0.12854 v 0 c 0.18042,9.7e-4 0.36085,0.002 0.54126,0.003 0.18369,-0.0217 0.36833,-0.0345 0.55106,-0.0651 0.44943,-0.0755 0.59081,-0.15571 0.54081,-0.21917 -0.33501,-0.42513 -2.46471,-0.19369 -2.7436,-0.35482 -4.1528,-0.10264 -8.30613,-0.0706 -12.45824,0.0677 -0.009,7.6e-4 0.003,0.15193 0.0107,0.15106 z" />
      <path
         style="fill:#f9f9f9;fill-opacity:1;stroke:#000000;stroke-width:0.779235;stroke-linejoin:round;stroke-miterlimit:4.4;stroke-dasharray:none;stroke-opacity:1"
         id="path4713"
         d="m 255.16325,134.34326 c 2.21088,0.27803 4.43619,0.38841 6.6588,0.44543 0.58773,-0.0138 1.18332,0.0341 1.76591,-0.0798 0.003,-5.2e-4 -0.003,-0.0517 -0.005,-0.0512 v 0 c -0.58877,-0.12847 -1.19165,-0.12227 -1.78702,-0.18023 -2.21017,-0.11932 -4.4222,-0.21095 -6.6352,-0.18852 -0.003,2.1e-4 0,0.0546 0.003,0.0543 z" />
      <path
         style="fill:#f9f9f9;fill-opacity:1;stroke:#000000;stroke-width:0.779235;stroke-linejoin:round;stroke-miterlimit:4.4;stroke-dasharray:none;stroke-opacity:1"
         id="path4715"
         d="m 252.18318,104.68257 c -0.37668,-1.00498 -0.64093,-2.05739 -0.93024,-3.0981 -0.0155,-0.0546 -0.0312,-0.10918 -0.0467,-0.16377 -9e-5,-0.003 -0.031,-7.7e-4 -0.0309,0.002 v 0 c 0.004,0.0563 0.009,0.11265 0.0131,0.16897 0.19689,1.07568 0.49241,2.13629 0.94907,3.10514 0,0.004 0.0465,-0.0101 0.0457,-0.0138 z" />
      <path
         style="fill:#f9f9f9;fill-opacity:1;stroke:#000000;stroke-width:0.779235;stroke-linejoin:round;stroke-miterlimit:4.4;stroke-dasharray:none;stroke-opacity:1"
         id="path4717"
         d="m 251.20242,101.65762 c 0,-0.16971 0.0124,-0.34026 -0.003,-0.50914 -0.0171,-0.19828 -0.0708,-0.39051 -0.0927,-0.58816 -0.0522,-0.47183 -0.0291,-0.953014 -0.15134,-1.412534 -0.0641,0.28327 -0.0512,0.59439 0.0193,0.874514 0.0288,0.14056 0.0333,-0.360314 0.0289,-0.269824 -0.0217,0.460484 -0.11175,0.916484 -0.11057,1.377654 0.003,1.39816 0.22897,2.41741 0.44647,3.82747 0.61611,6.62128 1.95814,13.10872 2.90492,19.67052 0.23272,1.97959 0.49857,3.97654 0.46033,5.98178 -0.003,0.11086 -0.005,0.9095 -0.18605,1.12873 -0.0307,0.0372 -0.0888,-0.0101 -0.13317,-0.015 -0.22949,-0.42835 -0.14035,-0.92946 0.12775,-1.30042 0.003,-0.002 -0.018,-0.022 -0.0193,-0.0205 v 0 c -0.31883,0.37357 -0.41459,0.93523 -0.10667,1.35975 0.0627,0.006 0.13558,0.0581 0.1882,0.0183 0.26812,-0.2028 0.35695,-0.89759 0.38455,-1.12688 0.24087,-2.00134 -0.007,-4.03487 -0.1593,-6.02774 -0.81973,-6.59351 -2.09503,-13.09259 -3.05138,-19.66038 -0.1353,-1.90478 -0.24744,-3.41801 -0.76747,-5.217134 -0.0246,-0.0851 0.0107,0.398214 0.009,0.268884 -0.0481,-0.283924 -0.0151,-0.581924 -0.0611,-0.868724 0.057,0.83101 0.0461,1.654384 0.0635,2.482864 -0.003,0.0169 0.20644,0.0429 0.20803,0.026 z" />
      <path
         style="fill:#f9f9f9;fill-opacity:1;stroke:#000000;stroke-width:0.779235;stroke-linejoin:round;stroke-miterlimit:4.4;stroke-dasharray:none;stroke-opacity:1"
         id="path4721"
         d="m 245.33934,61.69442 c -0.25835,-0.744849 -0.60566,-1.448068 -0.85218,-2.198293 0.87902,3.641134 1.64524,7.329301 2.45779,10.993963 0.27199,1.266429 0.5448,2.532624 0.81596,3.799287 0.77635,3.626641 0.91658,4.110474 1.53773,7.822582 0.59912,3.580632 1.06612,7.186913 1.51986,10.794676 0.0729,0.784458 0.40695,4.196381 0.43468,5.134071 0.005,0.17092 -0.084,3.339364 -0.087,3.691224 -0.009,1.08444 0.0243,1.57331 0.0689,2.65097 0.18244,1.06388 0.0823,2.62219 0.66677,3.5525 0.0707,0.11255 0.18676,0.17594 0.28014,0.2639 0,0.005 0.0567,-0.0123 0.0557,-0.0168 v 0 c 0.14107,-1.11171 -0.49339,-2.58338 -0.37366,-3.73652 -0.11166,-2.8784 -0.0165,0.37702 -0.003,-2.61129 0.009,-2.050314 -0.0589,-1.54892 -0.17929,-3.759214 -0.34688,-6.367653 0.2184,2.092144 -0.29019,-5.154805 -0.26756,-2.923646 -0.31701,-3.795236 -0.7318,-6.819323 -0.72677,-5.298798 -1.81765,-10.517445 -3.06957,-15.681929 -0.71325,-2.902346 -0.87208,-3.637075 -1.63505,-6.42078 -0.34988,-1.276569 -0.80957,-3.336814 -1.49244,-4.500838 0.0545,0.789878 0.57395,1.498846 0.82824,2.210065 0,0.004 0.0494,-0.0095 0.0486,-0.01342 z" />
      <path
         style="fill:#f9f9f9;fill-opacity:1;stroke:#000000;stroke-width:0.779235;stroke-linejoin:round;stroke-miterlimit:4.4;stroke-dasharray:none;stroke-opacity:1"
         id="path4723"
         d="m 219.57864,78.242169 c 0.19254,-0.672992 0.24986,-1.383511 0.39639,-2.068672 0.062,-0.290045 0.15987,-0.569277 0.21642,-0.860803 0.44603,-2.299674 -0.21752,0.405979 0.3854,-1.916786 0.8466,-3.034166 1.91122,-5.977066 3.02222,-8.893409 0.82298,-2.026818 1.54122,-4.136977 2.73111,-5.924918 0.56301,-0.766439 0.0375,-0.05784 0.49919,-0.664578 0.15529,-0.20405 0.17731,-0.245886 0.17267,-0.245794 -0.0358,7.67e-4 -0.058,0.04844 -0.0869,0.07265 -8.4e-4,0.0013 0.0149,0.01897 0.016,0.01766 v 0 c 0.20781,-0.366426 -0.50755,0.520207 -0.69049,0.734256 -1.27063,1.732011 -2.10176,3.798339 -2.93809,5.83475 -1.14076,2.924316 -2.13235,5.908808 -2.89727,8.993784 -0.15952,0.63407 -0.3807,1.249156 -0.50077,1.894638 -0.0554,0.297745 -0.0498,0.606412 -0.0844,0.908284 -0.0806,0.703461 -0.2266,1.393985 -0.29637,2.099192 -8.4e-4,0.0044 0.0537,0.02421 0.0549,0.01974 z" />
      <path
         style="fill:#f9f9f9;fill-opacity:1;stroke:#000000;stroke-width:0.779235;stroke-linejoin:round;stroke-miterlimit:4.4;stroke-dasharray:none;stroke-opacity:1"
         id="path4725"
         d="m 243.53638,58.226258 c -2.94477,-0.694713 -5.96422,-0.375217 -8.92673,-0.05162 -2.46619,0.296133 -4.88481,0.921821 -7.3165,1.450142 -0.47535,0.103281 -0.95764,0.163119 -1.43116,0.276964 -0.73732,0.177265 -0.68814,-0.0239 -0.67497,0.426829 -8.4e-4,1.39e-4 4.5e-4,0.01938 0.002,0.01925 v 0 c 0.0328,0.06635 0.0324,0.189399 0.0982,0.199063 0.42268,0.06208 2.02872,-0.407173 2.12773,-0.42778 2.42781,-0.505352 4.87996,-0.865344 7.31035,-1.354095 2.91955,-0.44908 5.86407,-0.817163 8.81097,-0.48126 0.003,3.1e-5 0.004,-0.05745 0,-0.05748 z" />
      <path
         style="fill:#f9f9f9;fill-opacity:1;stroke:#000000;stroke-width:0.779235;stroke-linejoin:round;stroke-miterlimit:4.4;stroke-dasharray:none;stroke-opacity:1"
         id="path4727"
         d="m 230.16834,98.672466 c 1.60815,0.53444 3.26095,0.99139 4.94293,1.03982 0.43596,0.0126 0.87189,-0.0254 1.30784,-0.0382 1.07651,-0.13913 3.4816,-0.52246 4.12717,-1.73217 0.0421,-0.0788 0.0268,-0.18246 0.0401,-0.27368 -0.0523,-0.0597 -0.10467,-0.11932 -0.15698,-0.17898 -0.003,-0.002 -0.0217,0.0399 -0.0193,0.0415 v 0 c 0.0443,0.0403 0.0886,0.0806 0.13287,0.12095 -0.13411,0.4772 -0.62984,0.71724 -0.99913,0.90205 -1.00383,0.50235 -2.07962,0.71204 -3.165,0.811 -1.16284,0.0383 -1.38867,0.0893 -2.54243,-0.0445 -1.23377,-0.14308 -2.44008,-0.49913 -3.66385,-0.71508 -0.004,-2.5e-4 -0.008,0.067 -0.004,0.0673 z" />
      <path
         style="fill:#f9f9f9;fill-opacity:1;stroke:#000000;stroke-width:0.779235;stroke-linejoin:round;stroke-miterlimit:4.4;stroke-dasharray:none;stroke-opacity:1"
         id="path4729"
         d="m 240.66555,88.411501 c -0.16227,2.937806 -0.0952,5.88301 -0.0487,8.823635 -0.003,0.22677 0.0281,4.413824 -0.14663,4.373724 -0.003,10e-6 -0.003,0.0208 1.4e-4,0.0208 v 0 c 0.24805,0.0349 0.16118,0.071 0.24844,-0.43559 0.22173,-1.286964 0.19172,-2.614084 0.2157,-3.917454 -0.0306,-2.952333 -0.0801,-5.906178 -0.20238,-8.855442 0,-0.0054 -0.0659,-0.01508 -0.0665,-0.0097 z" />
      <path
         style="fill:#f9f9f9;fill-opacity:1;stroke:#000000;stroke-width:0.779235;stroke-linejoin:round;stroke-miterlimit:4.4;stroke-dasharray:none;stroke-opacity:1"
         id="path4733"
         d="m 229.57601,97.526756 c 2.15196,-1.025138 4.10206,-2.449889 5.95516,-4.057168 1.35708,-1.382775 2.89925,-2.899276 3.43772,-4.983555 0.052,-0.2011 0.0528,-0.415158 0.0793,-0.622737 0.003,-0.0086 -0.10402,-0.04481 -0.10624,-0.03616 v 0 c -0.49441,2.287476 -2.08114,3.915426 -3.60937,5.35321 -1.8385,1.596823 -3.75232,3.042614 -5.78641,4.28991 -0.003,0.003 0.0264,0.0589 0.0299,0.0565 z" />
    </g>
    <path
       style="opacity:0.75;fill:#000000;stroke:#000000;stroke-width:2.35733;stroke-linejoin:round;stroke-miterlimit:4.4;stroke-opacity:0.987992"
       id="path24986"
       d="m 198.54421,171.46941 c 0.1714,-0.23914 0.2915,-0.51479 0.514,-0.71737 0.85652,-0.7798 1.92077,-1.3519 2.88486,-2.02362 1.38254,-0.96325 2.75208,-1.93786 4.10379,-2.93543 0.17142,-0.1336 0.343,-0.26726 0.51447,-0.4009 0.0272,-0.0303 0.12173,-0.10545 0.0815,-0.0908 -0.0801,0.0297 -0.13943,0.092 -0.20907,0.13785 -0.005,0.003 0.0458,0.0435 0.0488,0.0404 v 0 c 0.37665,-0.54601 -0.45504,0.0499 -0.63728,0.0811 -2.04402,1.20948 -3.99443,2.53956 -5.80326,4.02231 -0.39908,0.32715 -0.7506,0.69969 -1.15855,1.01796 -0.24966,0.19479 -0.53908,0.34454 -0.80865,0.51682 -0.0277,0.0297 0.44149,0.38116 0.46926,0.35144 z" />
  </g>
</svg>
