<?xml version="1.0" encoding="UTF-8" standalone="no"?>
<!-- Created with Inkscape (http://www.inkscape.org/) -->

<svg
   width="225.20467mm"
   height="115.31451mm"
   viewBox="0 0 225.20467 115.31451"
   version="1.1"
   id="svg5"
   sodipodi:docname="projector_rotation.svg"
   inkscape:version="1.2.2 (1:1.2.2+202212051550+b0a8486541)"
   xmlns:inkscape="http://www.inkscape.org/namespaces/inkscape"
   xmlns:sodipodi="http://sodipodi.sourceforge.net/DTD/sodipodi-0.dtd"
   xmlns="http://www.w3.org/2000/svg"
   xmlns:svg="http://www.w3.org/2000/svg">
  <sodipodi:namedview
     id="namedview7"
     pagecolor="#ffffff"
     bordercolor="#666666"
     borderopacity="1.0"
     inkscape:showpageshadow="2"
     inkscape:pageopacity="0.0"
     inkscape:pagecheckerboard="0"
     inkscape:deskcolor="#d1d1d1"
     inkscape:document-units="mm"
     showgrid="false"
     inkscape:zoom="0.4792789"
     inkscape:cx="250.37614"
     inkscape:cy="167.96066"
     inkscape:window-width="1294"
     inkscape:window-height="704"
     inkscape:window-x="72"
     inkscape:window-y="27"
     inkscape:window-maximized="1"
     inkscape:current-layer="layer1" />
  <defs
     id="defs2" />
  <g
     inkscape:label="Layer 1"
     inkscape:groupmode="layer"
     id="layer1"
     transform="translate(-38.943086,-23.347153)">
    <path
       style="font-variation-settings:normal;opacity:1;vector-effect:none;fill:none;fill-opacity:1;stroke:#000000;stroke-width:1.50193;stroke-linecap:butt;stroke-linejoin:miter;stroke-miterlimit:4;stroke-dasharray:none;stroke-dashoffset:0;stroke-opacity:1;-inkscape-stroke:none;stop-color:#000000;stop-opacity:1"
       d="M 40.155215,52.399779 H 259.4522"
       id="path245" />
    <path
       style="font-variation-settings:normal;opacity:1;fill:none;fill-opacity:1;stroke:#000000;stroke-width:1.485;stroke-linecap:butt;stroke-linejoin:miter;stroke-miterlimit:4;stroke-dasharray:none;stroke-dashoffset:0;stroke-opacity:1;stop-color:#000000;stop-opacity:1"
       d="M 38.943432,113.09191 264.1474,112.98683"
       id="path247" />
    <rect
       style="fill:#f9f9f9;stroke:#000000;stroke-width:1.665;stroke-linejoin:round;stroke-miterlimit:4.4;stroke-dasharray:none"
       id="rect301"
       width="57.270279"
       height="47.414982"
       x="69.456268"
       y="88.15686"
       rx="1.9430933"
       ry="2.505079" />
    <path
       style="font-variation-settings:normal;opacity:1;vector-effect:none;fill:none;fill-opacity:1;stroke:#000000;stroke-width:1.42622;stroke-linecap:butt;stroke-linejoin:miter;stroke-miterlimit:4;stroke-dasharray:none;stroke-dashoffset:0;stroke-opacity:1;-inkscape-stroke:none;stop-color:#000000;stop-opacity:1"
       d="m 98.757494,49.080478 0.10221,39.078008"
       id="path463" />
    <path
       style="fill:#f2f2f2;fill-rule:evenodd;stroke:#000000;stroke-width:0.865;stroke-dasharray:none;stroke-opacity:1"
       id="path517"
       sodipodi:type="arc"
       sodipodi:cx="98.32196"
       sodipodi:cy="52.077221"
       sodipodi:rx="9.2974653"
       sodipodi:ry="9.2974653"
       sodipodi:start="0"
       sodipodi:end="6.2656791"
       sodipodi:arc-type="arc"
       d="m 107.61943,52.077221 a 9.2974653,9.2974653 0 0 1 -9.256779,9.297376 9.2974653,9.2974653 0 0 1 -9.3378,-9.215995 9.2974653,9.2974653 0 0 1 9.17504,-9.378045 9.2974653,9.2974653 0 0 1 9.418109,9.133909"
       sodipodi:open="true" />
    <path
       style="font-variation-settings:normal;opacity:1;vector-effect:none;fill:none;fill-opacity:1;stroke:#000000;stroke-width:1.365;stroke-linecap:butt;stroke-linejoin:miter;stroke-miterlimit:4;stroke-dasharray:none;stroke-dashoffset:0;stroke-opacity:1;-inkscape-stroke:none;stop-color:#000000;stop-opacity:1"
       d="M 99.013499,42.354616 98.859819,62.58317"
       id="path1073" />
    <path
       style="font-variation-settings:normal;opacity:1;vector-effect:none;fill:none;fill-opacity:1;stroke:#000000;stroke-width:1.365;stroke-linecap:butt;stroke-linejoin:miter;stroke-miterlimit:4;stroke-dasharray:none;stroke-dashoffset:0;stroke-opacity:1;-inkscape-stroke:none;stop-color:#000000;stop-opacity:1"
       d="M 88.768379,52.860561 107.72186,52.307624"
       id="path1075" />
    <path
       style="fill:#f2f2f2;stroke:#000000;stroke-width:1.665;stroke-linejoin:round;stroke-miterlimit:4.4;stroke-dasharray:none;stroke-opacity:1"
       id="path1142"
       d="m 88.527194,98.411261 c -0.50384,4.833019 -0.82206,9.681609 -1.09144,14.532449 0.0364,2.91726 -0.50061,5.87264 -0.25261,8.79021 0.17962,-0.49284 0.0462,-1.03406 0.14777,-1.53686 0.009,-0.031 0.0183,-0.0619 0.0275,-0.0929 5.3e-4,-10e-4 -0.018,-0.009 -0.0185,-0.008 v 0 c -0.0106,0.0307 -0.0211,0.0614 -0.0316,0.0921 -0.16609,0.48295 -0.12092,1.06127 -0.069,1.55555 0.16327,-0.70834 0.19835,-1.48052 0.25815,-2.19726 0.18091,-2.16838 0.29804,-4.34134 0.45344,-6.51156 0.3175,-4.86268 0.64422,-9.73048 0.69853,-14.604439 0.001,-0.009 -0.12075,-0.0284 -0.12215,-0.0198 z" />
    <path
       style="fill:#f2f2f2;stroke:#000000;stroke-width:1.665;stroke-linejoin:round;stroke-miterlimit:4.4;stroke-dasharray:none;stroke-opacity:1"
       id="path1146"
       d="m 90.932594,97.867641 c 6.21236,-1.629208 12.622736,-2.438658 19.009206,-3.021191 2.09152,-0.03918 1.27006,-0.23372 2.52523,0.192502 0.01,0.0024 0.0435,-0.133146 0.0339,-0.135543 v 0 c -1.28964,-0.764876 -0.45246,-0.413745 -2.65756,-0.595611 -6.43296,0.261157 -12.911306,1.153324 -18.972376,3.413343 -0.0104,0.004 0.0512,0.15086 0.0616,0.1465 z" />
    <path
       style="fill:#f2f2f2;stroke:#000000;stroke-width:1.665;stroke-linejoin:round;stroke-miterlimit:4.4;stroke-dasharray:none;stroke-opacity:1"
       id="path1148"
       d="m 111.08705,95.942597 c 0.67048,5.236923 0.15998,10.536533 -0.29307,15.769043 -0.33427,4.41324 -1.17103,8.7539 -1.92609,13.10536 -0.003,0.0698 -0.0801,0.20481 -0.0104,0.20929 0.11009,0.007 0.68513,-2.43983 0.71874,-2.57671 0.004,-0.0125 -0.17325,-0.0705 -0.17735,-0.058 v 0 c -0.0323,0.1501 -0.60307,2.59625 -0.49857,2.65101 0.061,0.032 0.0687,-0.11936 0.10302,-0.17903 1.38716,-4.20705 1.93985,-8.63981 2.44478,-13.02195 0.43122,-5.27468 0.88835,-10.68908 -0.25269,-15.908412 -5.3e-4,-0.0077 -0.10902,0.0016 -0.10836,0.0094 z" />
    <rect
       style="fill:#f9f9f9;stroke:#000000;stroke-width:1.665;stroke-linejoin:round;stroke-miterlimit:4.4;stroke-dasharray:none"
       id="rect301-3"
       width="57.270279"
       height="47.414982"
       x="169.47929"
       y="90.414185"
       rx="1.9430933"
       ry="2.505079" />
    <path
       style="font-variation-settings:normal;vector-effect:none;fill:none;fill-opacity:1;stroke:#000000;stroke-width:1.42704;stroke-linecap:butt;stroke-linejoin:miter;stroke-miterlimit:4;stroke-dasharray:none;stroke-dashoffset:0;stroke-opacity:1;-inkscape-stroke:none;stop-color:#000000"
       d="m 198.78052,51.337778 0.10221,39.124112"
       id="path463-6" />
    <path
       style="fill:#f2f2f2;fill-rule:evenodd;stroke:#000000;stroke-width:0.865;stroke-dasharray:none;stroke-opacity:1"
       id="path517-7"
       sodipodi:type="arc"
       sodipodi:cx="197.93518"
       sodipodi:cy="51.661972"
       sodipodi:rx="9.2974653"
       sodipodi:ry="9.2974653"
       sodipodi:start="0"
       sodipodi:end="6.2656791"
       sodipodi:arc-type="arc"
       d="m 207.23265,51.661972 a 9.2974653,9.2974653 0 0 1 -9.25678,9.297376 9.2974653,9.2974653 0 0 1 -9.3378,-9.215995 9.2974653,9.2974653 0 0 1 9.17504,-9.378045 9.2974653,9.2974653 0 0 1 9.41811,9.133909"
       sodipodi:open="true" />
    <path
       style="font-variation-settings:normal;vector-effect:none;fill:none;fill-opacity:1;stroke:#000000;stroke-width:1.365;stroke-linecap:butt;stroke-linejoin:miter;stroke-miterlimit:4;stroke-dasharray:none;stroke-dashoffset:0;stroke-opacity:1;-inkscape-stroke:none;stop-color:#000000"
       d="m 198.62672,41.93937 -0.15368,20.228554"
       id="path1073-5" />
    <path
       style="font-variation-settings:normal;vector-effect:none;fill:none;fill-opacity:1;stroke:#000000;stroke-width:1.365;stroke-linecap:butt;stroke-linejoin:miter;stroke-miterlimit:4;stroke-dasharray:none;stroke-dashoffset:0;stroke-opacity:1;-inkscape-stroke:none;stop-color:#000000"
       d="m 188.3816,52.445315 18.95349,-0.552937"
       id="path1075-3" />
    <path
       style="fill:#f2f2f2;stroke:#000000;stroke-width:1.665;stroke-linejoin:round;stroke-miterlimit:4.4;stroke-dasharray:none;stroke-opacity:1"
       id="path1142-5"
       d="m 188.55022,100.66858 c -0.50384,4.83302 -0.82206,9.68161 -1.09144,14.53245 0.0364,2.91726 -0.50061,5.87264 -0.25261,8.79021 0.17962,-0.49284 0.0462,-1.03406 0.14777,-1.53686 0.009,-0.031 0.0183,-0.0619 0.0275,-0.0929 5.3e-4,-0.001 -0.018,-0.009 -0.0185,-0.008 v 0 c -0.0106,0.0307 -0.0211,0.0614 -0.0316,0.0921 -0.16609,0.48295 -0.12092,1.06127 -0.069,1.55555 0.16327,-0.70834 0.19835,-1.48052 0.25815,-2.19726 0.18091,-2.16838 0.29804,-4.34134 0.45344,-6.51156 0.3175,-4.86268 0.64422,-9.73048 0.69853,-14.60444 0.001,-0.009 -0.12075,-0.0284 -0.12215,-0.0198 z" />
    <path
       style="fill:#f2f2f2;stroke:#000000;stroke-width:1.665;stroke-linejoin:round;stroke-miterlimit:4.4;stroke-dasharray:none;stroke-opacity:1"
       id="path1146-6"
       d="m 190.95562,100.12496 c 6.21236,-1.629209 12.62274,-2.438659 19.00921,-3.021189 2.09152,-0.0392 1.27006,-0.23372 2.52523,0.1925 0.01,0.002 0.0435,-0.13314 0.0339,-0.13554 v 0 c -1.28964,-0.76488 -0.45246,-0.41375 -2.65756,-0.59561 -6.43296,0.26116 -12.91131,1.15332 -18.97238,3.41334 -0.0104,0.004 0.0512,0.150859 0.0616,0.146499 z" />
    <path
       style="fill:#f2f2f2;stroke:#000000;stroke-width:1.665;stroke-linejoin:round;stroke-miterlimit:4.4;stroke-dasharray:none;stroke-opacity:1"
       id="path1148-2"
       d="m 211.11008,98.199921 c 0.67048,5.236919 0.15998,10.536529 -0.29307,15.769039 -0.33427,4.41324 -1.17103,8.7539 -1.92609,13.10536 -0.003,0.0698 -0.0801,0.20481 -0.0104,0.20929 0.11009,0.007 0.68513,-2.43983 0.71874,-2.57671 0.004,-0.0125 -0.17325,-0.0705 -0.17735,-0.058 v 0 c -0.0323,0.1501 -0.60307,2.59625 -0.49857,2.65101 0.061,0.032 0.0687,-0.11936 0.10302,-0.17903 1.38716,-4.20705 1.93985,-8.63981 2.44478,-13.02195 0.43122,-5.27468 0.88835,-10.68908 -0.25269,-15.908409 -5.3e-4,-0.008 -0.10902,0.002 -0.10836,0.009 z" />
    <rect
       style="fill:#f2f2f2;stroke:#000000;stroke-width:1.699;stroke-linejoin:round;stroke-miterlimit:4.4;stroke-dasharray:none;stroke-opacity:1"
       id="rect2033"
       width="53.750191"
       height="45.863483"
       x="126.98211"
       y="24.196653"
       rx="2.8756745"
       ry="3.8125052" />
    <path
       style="fill:#f2f2f2;stroke:#000000;stroke-width:1.699;stroke-linejoin:round;stroke-miterlimit:4.4;stroke-dasharray:none;stroke-opacity:1"
       id="path4957"
       d="m 134.96686,52.032619 c 1.40313,-0.583496 2.52686,-1.578306 3.50459,-2.716033 0.33413,-0.467542 1.55689,-2.132158 0.7194,-2.659448 -0.12517,-0.07881 -0.28268,-0.0872 -0.42402,-0.130794 -0.17894,0.01876 -0.36218,0.01299 -0.53681,0.05627 -1.49851,0.371358 -3.06892,1.9035 -4.13604,2.93837 -1.32689,1.457055 -2.61451,3.145642 -2.73203,5.196329 -0.0181,0.315365 0.034,0.630851 0.051,0.946277 0.0939,0.293037 0.14991,0.601091 0.28182,0.879107 0.58473,1.232369 1.81235,1.892795 3.11677,2.086491 0.33814,0.05021 0.68268,0.03694 1.02402,0.05541 0.34031,-0.04163 0.68516,-0.05558 1.02093,-0.124891 0.79581,-0.164264 1.31539,-0.408091 2.05563,-0.741132 1.31024,-0.589487 2.57767,-1.257972 3.84733,-1.928818 1.17891,-0.586994 2.29377,-1.26937 3.37018,-2.023787 0.0231,-0.01582 -0.20063,-0.342869 -0.22376,-0.327047 v 0 c -1.13331,0.644819 -2.2817,1.260325 -3.43689,1.865257 -0.44185,0.240406 -0.8837,0.480814 -1.32556,0.72122 -0.4247,0.233344 -0.84855,0.46826 -1.27412,0.700032 -1.28458,0.699611 -2.56273,1.426329 -4.06414,1.479727 -0.32216,-0.01767 -0.64706,-0.0075 -0.96648,-0.05299 -1.15431,-0.164219 -2.2641,-0.669438 -2.80812,-1.757098 -0.1259,-0.251698 -0.17978,-0.533371 -0.26967,-0.800055 -0.009,-0.291735 -0.0504,-0.584337 -0.0263,-0.875199 0.16282,-1.961094 1.43457,-3.554727 2.70175,-4.953667 1.00946,-1.021167 2.45377,-2.597753 3.84515,-3.084682 0.15294,-0.05352 0.31731,-0.0658 0.47597,-0.09869 0.10435,0.01159 0.21847,-0.01082 0.31305,0.03475 0.68839,0.331766 -0.6114,2.080056 -0.8226,2.401408 -0.96602,1.11316 -2.10846,2.007465 -3.33528,2.821011 -0.007,0.0038 0.0477,0.09652 0.0542,0.09268 z" />
    <path
       style="fill:#f2f2f2;stroke:#000000;stroke-width:1.699;stroke-linejoin:round;stroke-miterlimit:4.4;stroke-dasharray:none;stroke-opacity:1"
       id="path4959"
       d="m 135.0894,37.569497 c 1.39361,-0.124947 2.73407,-0.56928 4.06332,-0.980583 0.0296,-0.01159 -0.13423,-0.43016 -0.16383,-0.418576 v 0 c -1.32037,0.392557 -2.62023,0.840748 -3.92901,1.269449 -0.009,0.0021 0.0203,0.131797 0.0295,0.12971 z" />
    <path
       style="fill:#f2f2f2;stroke:#000000;stroke-width:1.699;stroke-linejoin:round;stroke-miterlimit:4.4;stroke-dasharray:none;stroke-opacity:1"
       id="path4961"
       d="m 143.12638,37.66014 c -0.31888,1.336966 -0.38202,2.729079 -0.39691,4.099555 0.0297,0.496671 -0.0391,0.313396 0.0916,0.580004 -2.6e-4,0.0031 0.043,0.0073 0.0433,0.0042 v 0 c 0.1234,-0.238784 0.0506,-0.069 0.12114,-0.540769 0.12461,-1.370054 0.1769,-2.744763 0.21237,-4.11979 0.002,-0.0051 -0.0699,-0.02828 -0.0715,-0.02323 z" />
    <path
       style="fill:#f2f2f2;stroke:#000000;stroke-width:1.699;stroke-linejoin:round;stroke-miterlimit:4.4;stroke-dasharray:none;stroke-opacity:1"
       id="path4963"
       d="m 143.08845,32.717316 c 0.0446,0.143886 1.58331,-0.488267 0.90054,-0.447773 -0.003,0.0013 0.0168,0.04708 0.02,0.04567 v 0 c 0.0328,-0.02776 0.0612,-0.06194 0.0985,-0.08329 0.0716,-0.04094 -0.12927,0.10582 -0.20488,0.138824 -0.26912,0.117491 -0.55789,0.17117 -0.83389,0.268454 -0.006,0.0013 0.0142,0.07951 0.0197,0.07811 z" />
    <path
       style="fill:#f2f2f2;stroke:#000000;stroke-width:1.699;stroke-linejoin:round;stroke-miterlimit:4.4;stroke-dasharray:none;stroke-opacity:1"
       id="path4965"
       d="m 149.21679,34.664681 c -0.87848,1.038561 -1.5189,2.340555 -1.74106,3.690382 -0.0527,0.319953 -0.0443,0.647004 -0.0664,0.970505 0.0637,0.267369 0.0727,0.554056 0.19105,0.802108 0.61286,1.284272 2.19674,0.541158 3.02711,-0.01201 0.31894,-0.212476 0.60212,-0.474279 0.90317,-0.711417 1.16881,-1.160211 2.45973,-2.524485 2.7437,-4.223837 0.0345,-0.206185 0.018,-0.417695 0.0271,-0.626541 -0.0851,-0.530456 -0.42446,-1.193271 -1.0858,-1.037474 -0.41202,0.09706 -0.61381,0.352208 -0.92237,0.622281 -1.41482,1.667656 -1.90202,3.830781 -2.24229,5.935404 -0.25314,2.374638 -0.28401,4.834961 0.45443,7.128449 0.0791,0.117567 0.15813,0.235135 0.2372,0.352702 0.002,0.0094 0.13596,-0.02289 0.13368,-0.03233 v 0 c -0.0278,-0.114171 -0.0556,-0.228338 -0.0834,-0.342509 -0.38688,-2.307455 -0.50277,-4.655097 -0.29424,-6.988262 0.31815,-2.044896 0.7363,-4.164523 1.95992,-5.882172 0.13416,-0.1417 0.25253,-0.300222 0.40247,-0.4251 0.62097,-0.517171 1.16042,-0.08233 1.21096,0.624998 -0.0212,0.188566 -0.0196,0.381143 -0.0637,0.565698 -0.38374,1.604727 -1.66958,2.845282 -2.75003,4.004495 -0.54251,0.455473 -2.1555,1.903881 -2.99342,1.467972 -0.4489,-0.233526 -0.42661,-0.748387 -0.50431,-1.15371 0.0285,-0.30402 0.0339,-0.611087 0.0855,-0.912059 0.22806,-1.331806 0.78091,-2.588559 1.44679,-3.754024 0.005,-0.0054 -0.0714,-0.06889 -0.0759,-0.06353 z" />
    <path
       style="fill:#f2f2f2;stroke:#000000;stroke-width:1.699;stroke-linejoin:round;stroke-miterlimit:4.4;stroke-dasharray:none;stroke-opacity:1"
       id="path4967"
       d="m 158.41638,32.048616 c 2.02651,0.03311 4.04236,-0.359161 6.01002,-0.809778 0.22491,0.304017 0.71068,-0.339257 1.00972,-0.174236 0.0493,0.02721 -0.0645,0.09364 -0.10659,0.131109 -0.13784,0.122848 -0.28887,0.230089 -0.43097,0.347982 -0.86812,0.720246 -0.59592,0.492954 -1.5023,1.367465 -1.47798,1.540216 -2.70037,3.311832 -3.6489,5.223624 -0.58487,1.178803 -0.75791,1.747104 -1.20645,2.965934 -0.24877,0.943128 -0.62994,1.914295 -0.60151,2.910591 0.0132,0.461666 0.13595,0.48282 0.42807,0.250452 1.08611,-0.87212 2.65221,-1.057164 3.98023,-1.319265 1.07676,-0.165669 2.16226,-0.273908 3.25056,-0.323329 0.38027,-0.01728 0.88899,-0.07068 1.27553,0.02929 -0.0259,0.0096 -0.0519,0.01908 -0.0778,0.02864 -0.002,0.0021 0.0263,0.02933 0.0283,0.02733 v 0 c 0.0246,-0.04311 0.0492,-0.08622 0.0738,-0.129336 -0.35935,-0.310481 -0.90623,-0.311725 -1.35766,-0.32742 -1.11353,-0.03871 -2.22636,0.0845 -3.31768,0.298903 -1.34724,0.32058 -2.92606,0.610171 -3.92771,1.645123 -0.0423,0.0618 -0.15042,0.24052 -0.15169,0.165656 -0.004,-0.2417 0.14666,-0.710449 0.19474,-0.870643 0.26209,-0.873247 0.40457,-1.238533 0.72428,-2.146885 1.13942,-2.920013 2.59467,-5.734931 4.6433,-8.130302 0.25045,-0.283339 0.49865,-0.568682 0.75134,-0.850016 0.0858,-0.09553 0.85656,-0.896593 0.96842,-1.129699 0.0444,-0.09251 0.0757,-0.22995 0.009,-0.307698 -0.17984,-0.208814 -1.07815,-0.0722 -1.1211,-0.06979 -1.98148,0.309409 -3.94247,0.725339 -5.91129,1.104913 -0.006,0.0011 0.008,0.09242 0.0146,0.09139 z" />
    <path
       style="fill:#f2f2f2;stroke:#000000;stroke-width:1.699;stroke-linejoin:round;stroke-miterlimit:4.4;stroke-dasharray:none;stroke-opacity:1"
       id="path4969"
       d="m 157.3096,38.537181 c 0.20128,-0.0236 0.40129,-0.06391 0.60383,-0.07083 0.32109,-0.01098 0.6434,0.04241 0.96369,0.0172 0.64566,-0.05079 2.22125,-0.356727 2.79023,-0.532929 4.29508,-1.330111 -1.25425,0.06324 3.04921,-0.958173 1.20702,-0.244152 2.41128,-0.501533 3.61453,-0.76355 0.022,-0.0051 -0.0503,-0.316606 -0.0724,-0.311489 v 0 c -1.25995,0.04254 -2.50078,0.204936 -3.72807,0.50955 -2.09205,0.476729 -1.02442,0.292349 -3.20424,0.545317 -0.53787,0.104971 -2.10486,0.605949 -2.6667,0.842092 -0.28317,0.119018 -0.53696,0.300419 -0.81824,0.423847 -0.18161,0.0797 -0.37731,0.12238 -0.56597,0.18357 -0.008,0.0024 0.0259,0.117798 0.0341,0.115388 z" />
    <path
       style="fill:#f2f2f2;stroke:#000000;stroke-width:1.485;stroke-linejoin:round;stroke-miterlimit:4.4;stroke-dasharray:none"
       id="path6014"
       d="m 51.77311,105.52097 c -2.269961,4.8197 -4.486888,9.66331 -6.564632,14.56932 -0.01561,0.0301 0.409448,0.25098 0.425069,0.22093 v 0 c 2.279541,-4.82333 4.53804,-9.68504 6.208744,-14.75859 0.0021,-0.005 -0.06694,-0.0365 -0.06918,-0.0317 z" />
    <path
       style="fill:#f2f2f2;stroke:#000000;stroke-width:1.485;stroke-linejoin:round;stroke-miterlimit:4.4;stroke-dasharray:none"
       id="path6016"
       d="m 259.8931,105.03695 c -3.14804,3.87493 -5.74471,8.15835 -8.29472,12.43878 -0.0219,0.0332 0.44779,0.3436 0.46974,0.31038 v 0 c 2.621,-4.23885 5.17089,-8.52193 7.8754,-12.70856 0.003,-0.004 -0.0476,-0.0442 -0.0504,-0.0406 z" />
  </g>
</svg>
