<?xml version="1.0" encoding="UTF-8" standalone="no"?>
<!-- Created with Inkscape (http://www.inkscape.org/) -->

<svg
   width="258.01434mm"
   height="100.66102mm"
   viewBox="0 0 258.01434 100.66102"
   version="1.1"
   id="svg5"
   inkscape:version="1.2.2 (1:1.2.2+202212051550+b0a8486541)"
   sodipodi:docname="uphiuminusphi.svg"
   xmlns:inkscape="http://www.inkscape.org/namespaces/inkscape"
   xmlns:sodipodi="http://sodipodi.sourceforge.net/DTD/sodipodi-0.dtd"
   xmlns="http://www.w3.org/2000/svg"
   xmlns:svg="http://www.w3.org/2000/svg">
  <sodipodi:namedview
     id="namedview7"
     pagecolor="#ffffff"
     bordercolor="#666666"
     borderopacity="1.0"
     inkscape:showpageshadow="2"
     inkscape:pageopacity="0.0"
     inkscape:pagecheckerboard="0"
     inkscape:deskcolor="#d1d1d1"
     inkscape:document-units="mm"
     showgrid="false"
     inkscape:zoom="0.67780272"
     inkscape:cx="231.63082"
     inkscape:cy="328.26661"
     inkscape:window-width="1294"
     inkscape:window-height="704"
     inkscape:window-x="72"
     inkscape:window-y="27"
     inkscape:window-maximized="1"
     inkscape:current-layer="layer1" />
  <defs
     id="defs2" />
  <g
     inkscape:label="Layer 1"
     inkscape:groupmode="layer"
     id="layer1"
     transform="translate(-14.847073,-42.657863)">
    <path
       style="fill:none;stroke:#000000;stroke-width:1.16876;stroke-linecap:butt;stroke-linejoin:miter;stroke-dasharray:none;stroke-opacity:1"
       d="M 15.080814,67.087885 C 17.924987,65.846655 272.858,67.343434 272.858,67.343434"
       id="path426" />
    <path
       style="fill:none;stroke:#000000;stroke-width:1.26932;stroke-linecap:butt;stroke-linejoin:miter;stroke-dasharray:none;stroke-opacity:1"
       d="m 16.381884,119.34975 256.159706,2.60659"
       id="path428" />
    <ellipse
       style="fill:#ffffff;fill-rule:evenodd;stroke:#000000;stroke-width:0.943701;stroke-dasharray:none;stroke-opacity:1"
       id="path1090"
       ry="6.0467749"
       rx="5.8923063"
       cy="67.053215"
       cx="85.823914" />
    <ellipse
       style="fill:#000000;fill-rule:evenodd;stroke:#000000;stroke-width:0.943701;stroke-dasharray:none;stroke-opacity:1"
       id="path1090-6"
       ry="6.0467749"
       rx="5.8923063"
       cy="67.208641"
       cx="194.53539" />
    <rect
       style="fill:#f9f9f9;stroke:#000000;stroke-width:0.943701;stroke-linejoin:round;stroke-miterlimit:4.4;stroke-dasharray:none;stroke-opacity:1"
       id="rect1905"
       width="49.047127"
       height="50.165859"
       x="61.632313"
       y="92.397423"
       rx="2.5655282"
       ry="3.3262591" />
    <rect
       style="fill:#f9f9f9;stroke:#000000;stroke-width:0.712731;stroke-linejoin:round;stroke-miterlimit:4.4;stroke-dasharray:none;stroke-opacity:1"
       id="rect1905-7"
       width="37.147575"
       height="37.781017"
       x="29.302828"
       y="46.809631"
       rx="1.9430933"
       ry="2.505079" />
    <rect
       style="fill:#f9f9f9;stroke:#000000;stroke-width:0.73176;stroke-linejoin:round;stroke-miterlimit:4.4;stroke-dasharray:none;stroke-opacity:1"
       id="rect1905-5"
       width="37.723431"
       height="39.217388"
       x="212.56078"
       y="43.023743"
       rx="1.9732149"
       ry="2.6003182" />
    <rect
       style="fill:#f9f9f9;stroke:#000000;stroke-width:0.943701;stroke-linejoin:round;stroke-miterlimit:4.4;stroke-dasharray:none;stroke-opacity:1"
       id="rect1905-3"
       width="49.047127"
       height="50.165859"
       x="171.88403"
       y="92.681168"
       rx="2.5655282"
       ry="3.3262591" />
    <path
       style="fill:none;stroke:#000000;stroke-width:0.214662;stroke-linecap:butt;stroke-linejoin:miter;stroke-dasharray:none;stroke-opacity:1"
       d="m 195.70278,74.294421 0.53944,18.028353"
       id="path2015" />
    <path
       style="font-variation-settings:normal;opacity:1;vector-effect:none;fill:none;fill-opacity:1;stroke:#000000;stroke-width:1.10571;stroke-linecap:butt;stroke-linejoin:miter;stroke-miterlimit:4;stroke-dasharray:none;stroke-dashoffset:0;stroke-opacity:1;-inkscape-stroke:none;stop-color:#000000;stop-opacity:1"
       d="m 85.865421,73.952064 -0.165986,17.7671 m 72.714655,-9.13157"
       id="path5647"
       sodipodi:nodetypes="cc" />
    <path
       style="font-variation-settings:normal;opacity:1;vector-effect:none;fill:none;fill-opacity:1;stroke:#000000;stroke-width:1.10571;stroke-linecap:butt;stroke-linejoin:miter;stroke-miterlimit:4;stroke-dasharray:none;stroke-dashoffset:0;stroke-opacity:1;-inkscape-stroke:none;stop-color:#000000;stop-opacity:1"
       d="m 195.74429,74.5866 0.49793,18.924174"
       id="path5770" />
    <path
       style="fill:#000000;stroke:#000000;stroke-width:0.565;stroke-linejoin:round;stroke-miterlimit:4.4;stroke-dasharray:none;stroke-opacity:1"
       id="path5818"
       d="m 70.903673,110.89518 c -0.410175,2.18671 -1.025737,4.32597 -1.545196,6.48805 -0.484224,2.48128 -1.215996,5.05085 -0.886428,7.60556 0.04798,0.37196 0.162285,0.73232 0.243425,1.09848 0.140695,0.2608 0.23246,0.55468 0.422079,0.78239 1.130879,1.35807 3.218413,0.0872 4.372591,-0.50321 2.065602,-1.22855 3.883393,-2.85276 5.171967,-4.89563 0.259022,-0.41064 0.47462,-0.84713 0.71193,-1.27069 1.29137,-2.61301 1.884844,-5.46942 2.05422,-8.36104 0.203258,-0.56657 -0.242102,-1.40952 -0.05867,-1.97952 0.04711,-0.14639 0.234172,-0.3576 0.316367,-0.46242 0.380376,-0.55019 0.901954,-1.05039 1.149181,-1.68351 0.0011,-0.002 -0.02037,-0.0158 -0.02138,-0.0143 v 0 c -0.454933,0.50292 -0.79719,1.09917 -1.203664,1.6394 -0.564486,0.828 -0.371668,1.44781 -0.464833,2.44369 -0.320212,2.8173 -0.869998,5.64075 -2.091703,8.21964 -0.230767,0.41457 -0.439733,0.84204 -0.692299,1.2437 -1.261678,2.00647 -3.047463,3.58234 -5.041,4.83599 -0.900165,0.50295 -3.031326,1.98648 -3.984834,0.72743 -0.163711,-0.21617 -0.234291,-0.48911 -0.351435,-0.73366 -0.0629,-0.35199 -0.153702,-0.70012 -0.188696,-1.05598 -0.248449,-2.52648 0.482499,-5.04897 0.942335,-7.5057 0.483753,-2.18234 1.069157,-4.36428 1.209421,-6.60326 0.0011,-0.004 -0.06228,-0.0199 -0.06337,-0.0154 z" />
    <path
       style="fill:#000000;stroke:#000000;stroke-width:0.564999;stroke-linejoin:round;stroke-miterlimit:4.4;stroke-dasharray:none;stroke-opacity:1"
       id="path5820"
       d="m 84.731335,121.80106 c -1.263332,2.4831 -2.372712,5.29455 -2.657822,8.08966 -0.04213,0.41307 -0.0048,0.83041 -0.0072,1.24561 0.0947,0.25111 0.117292,0.54309 0.284112,0.75331 0.912313,1.14966 3.604567,-1.30087 4.250754,-1.83474 1.60098,-1.40653 2.951424,-3.06767 3.879146,-4.98746 0.348218,-1.11339 0.915995,-2.5318 0.292018,-3.63643 -0.105016,-0.059 -0.197073,-0.15267 -0.315042,-0.17702 -0.970833,-0.20043 -2.012895,1.28156 -2.44279,1.9164 -1.10082,2.1713 -1.468699,4.61718 -1.860663,6.99484 -0.285552,1.88855 -0.531617,3.7941 -0.494499,5.70768 0.03392,0.41372 0.0044,0.2397 0.06523,0.52551 -2.43e-4,0.003 0.04759,0.007 0.04783,0.003 v 0 c 0.02506,-0.27628 0.01146,-0.10742 0.03489,-0.50702 0.134681,-1.889 0.364046,-3.77182 0.680641,-5.63894 0.398907,-2.34891 0.700757,-4.77276 1.717474,-6.95168 0.413811,-0.65935 1.478973,-2.34895 2.467528,-1.84375 0.512402,1.015 -0.04976,2.49758 -0.367311,3.50762 -0.973267,1.85783 -2.377437,3.42715 -3.933798,4.82266 -0.417047,0.36041 -3.228076,2.98308 -3.823576,2.07251 -0.126833,-0.19393 -0.112871,-0.4495 -0.169307,-0.67426 0.304475,-3.20975 1.468237,-6.27482 2.47015,-9.31911 0.0049,-0.008 -0.112855,-0.0771 -0.117718,-0.0688 z" />
    <path
       style="fill:#000000;stroke:#000000;stroke-width:0.564999;stroke-linejoin:round;stroke-miterlimit:4.4;stroke-dasharray:none;stroke-opacity:1"
       id="path5822"
       d="m 181.91734,111.72208 c -0.977,1.87488 -1.66006,3.8799 -2.26203,5.90038 -0.55691,2.40446 -1.17633,4.90637 -1.00828,7.39968 0.0239,0.35422 0.10576,0.70212 0.15864,1.05319 0.11493,0.25961 0.18129,0.54673 0.34479,0.77884 0.68242,0.96879 1.98863,0.74502 2.88928,0.2614 0.30378,-0.16312 0.56917,-0.38937 0.85375,-0.58405 2.23378,-2.05198 3.6115,-4.79478 4.75718,-7.55722 0.8181,-2.33207 1.2755,-4.77768 1.48502,-7.23623 -0.0387,-0.1341 0.0862,-0.7378 -0.13783,-0.34832 -0.001,0.003 0.0399,0.0198 0.0411,0.0169 v 0 c 0.006,-0.0585 0.0256,-0.11716 0.0179,-0.17543 -0.004,-0.0272 -0.0207,0.0508 -0.0311,0.0762 -0.0275,0.12793 -0.055,0.25586 -0.0825,0.38379 -0.44914,2.3895 -0.79618,4.81587 -1.66437,7.10079 -1.12776,2.71855 -2.4696,5.39572 -4.54557,7.52609 -0.26538,0.19535 -0.51154,0.41995 -0.79614,0.58606 -0.71767,0.4189 -2.00852,0.79312 -2.5742,-0.0943 -0.1403,-0.22009 -0.18893,-0.48663 -0.2834,-0.72994 -0.0369,-0.33713 -0.10136,-0.67237 -0.11076,-1.01139 -0.0684,-2.46433 0.54532,-4.91884 1.06554,-7.30427 0.54933,-2.03658 1.184,-4.03996 1.9437,-6.00864 0.002,-0.004 -0.0583,-0.0378 -0.0607,-0.0335 z" />
    <path
       style="fill:#000000;stroke:#000000;stroke-width:0.564999;stroke-linejoin:round;stroke-miterlimit:4.4;stroke-dasharray:none;stroke-opacity:1"
       id="path5824"
       d="m 189.82062,126.36927 c 1.27593,0.28764 2.59215,0.23053 3.88363,0.3787 0.0743,0.022 0.14853,0.044 0.22279,0.0659 0.004,7.9e-4 0.0167,-0.0604 0.0123,-0.0613 v 0 c -0.0778,-0.0398 -0.15553,-0.0796 -0.2333,-0.1194 -1.27151,-0.28497 -2.59341,-0.23133 -3.88574,-0.35233 -0.006,1e-5 -0.006,0.0884 2.7e-4,0.0884 z" />
    <path
       style="fill:#000000;stroke:#000000;stroke-width:0.564999;stroke-linejoin:round;stroke-miterlimit:4.4;stroke-dasharray:none;stroke-opacity:1"
       id="path5826"
       d="m 199.35924,121.9337 c -0.75191,1.29699 -1.42015,2.70025 -1.67502,4.19074 -0.0692,0.40465 -0.0755,0.81756 -0.1133,1.22635 0.0483,0.35534 0.0216,0.72929 0.14494,1.06602 0.90847,2.47995 4.42531,0.96872 6.00455,0.36615 2.4351,-1.25748 5.13232,-2.67612 6.65327,-5.07173 0.19075,-0.30045 0.30878,-0.64132 0.46317,-0.96198 0.0466,-0.28292 0.13675,-0.56205 0.13973,-0.84876 0.0108,-1.043 -0.76619,-1.82101 -1.70683,-2.13416 -0.24053,-0.0801 -0.49705,-0.10005 -0.74557,-0.15008 -0.24902,0.0173 -0.50375,-0.004 -0.74705,0.0519 -1.96432,0.45023 -3.24211,2.4436 -4.31886,3.96123 -1.77214,2.6804 -2.78179,5.71474 -3.54864,8.80701 -0.34215,1.7167 -0.72441,3.50128 -0.48658,5.25826 0.11979,0.19358 0.0579,0.19431 0.18537,0.0132 0.001,-0.002 -0.0332,-0.0192 -0.0343,-0.0168 v 0 c -0.0271,0.18792 -0.0172,0.19263 -0.0306,0.0121 0.0104,-1.7393 0.25974,-3.46657 0.69501,-5.15034 0.83114,-3.02918 1.87689,-6.004 3.54767,-8.68571 0.92843,-1.42669 2.22582,-3.55637 4.02619,-4.00746 0.22797,-0.0571 0.46905,-0.0303 0.70358,-0.0454 1.61548,0.32732 2.57509,1.01303 2.08476,2.79799 -0.16251,0.29348 -0.29354,0.60675 -0.48752,0.88045 -1.60359,2.26256 -4.23521,3.57606 -6.59504,4.87061 -1.24033,0.53363 -4.77128,2.23162 -5.52756,0.06 -0.11118,-0.31924 -0.0724,-0.6722 -0.10863,-1.0083 0.0995,-1.06433 0.0804,-1.34958 0.36521,-2.39374 0.28627,-1.04954 0.77003,-2.04097 1.16959,-3.049 0.003,-0.004 -0.0548,-0.0426 -0.0575,-0.0385 z" />
    <path
       style="fill:#000000;stroke:#000000;stroke-width:0.564999;stroke-linejoin:round;stroke-miterlimit:4.4;stroke-dasharray:none;stroke-opacity:1"
       id="path5828"
       d="m 225.92578,56.063869 c -0.70607,2.763313 -1.53073,5.496057 -2.29196,8.245107 -0.35114,1.364202 -0.5944,2.239346 -0.87876,3.595473 -0.11291,0.53843 -0.28684,1.419971 -0.30869,2.025446 -0.014,0.388136 -0.0155,0.334315 0.16803,0.217141 0.26718,-0.632669 0.13237,-0.27129 0.37798,-1.093639 0.004,-0.01199 -0.16554,-0.07067 -0.16969,-0.05867 v 0 c -0.1725,0.83802 -0.0904,0.462539 -0.2413,1.127551 -0.0613,0.478425 0.16615,-0.51526 0.25988,-0.854311 0.43948,-1.58969 0.865,-3.183183 1.3057,-4.772541 0.73835,-2.770081 1.51145,-5.563131 1.84666,-8.415231 0.001,-0.0048 -0.0667,-0.02114 -0.0678,-0.01633 z" />
    <path
       style="fill:#000000;stroke:#000000;stroke-width:0.564999;stroke-linejoin:round;stroke-miterlimit:4.4;stroke-dasharray:none;stroke-opacity:1"
       id="path5830"
       d="m 225.29873,63.355931 c 2.29308,0.767747 4.76671,0.848889 7.14994,0.551595 0.1613,-0.05164 0.32259,-0.103277 0.48389,-0.154919 0.009,-0.0024 -0.0264,-0.124219 -0.035,-0.12174 v 0 c -0.16553,0.0092 -0.33105,0.01844 -0.49658,0.02765 -2.3656,0.06474 -4.75399,0.05613 -7.08389,-0.409906 -0.008,-0.0013 -0.0259,0.106026 -0.0183,0.107323 z" />
    <path
       style="fill:#000000;stroke:#000000;stroke-width:0.564999;stroke-linejoin:round;stroke-miterlimit:4.4;stroke-dasharray:none;stroke-opacity:1"
       id="path5832"
       d="m 235.55201,55.950585 c -1.4961,3.768767 -2.85649,7.581603 -4.06654,11.451979 -0.41902,1.599496 -0.96076,3.209599 -1.06844,4.874315 -0.0425,0.657667 -0.12374,0.590603 0.25885,0.551717 0.002,-0.0011 -0.0136,-0.03636 -0.016,-0.03522 v 0 c -0.15865,0.217572 -0.10085,0.163113 0.0414,-0.433358 0.38027,-1.593924 0.88304,-3.156186 1.36384,-4.721355 1.27262,-3.856659 2.67735,-7.693342 3.5927,-11.652758 0.002,-0.0075 -0.10333,-0.0428 -0.10582,-0.03532 z" />
    <path
       style="fill:#000000;stroke:#000000;stroke-width:0.564999;stroke-linejoin:round;stroke-miterlimit:4.4;stroke-dasharray:none;stroke-opacity:1"
       id="path5834"
       d="m 42.095554,60.7843 c -0.683141,2.975636 -1.166942,5.990844 -1.638686,9.005618 -0.281662,1.594908 -0.435657,3.208379 -0.668898,4.810048 -0.08093,0.555715 -0.164407,1.131258 -0.352663,1.663679 -0.207719,-0.238237 -0.05942,-0.892136 -0.02215,-1.197605 0.01976,-0.121806 0.03953,-0.243613 0.0593,-0.365421 0.0016,-0.0065 -0.09015,-0.02894 -0.09174,-0.02246 v 0 c -0.01389,0.123738 -0.02776,0.247476 -0.04164,0.371213 -0.03533,0.331023 -0.229585,1.107335 0.160345,1.253334 0.34965,-0.459975 0.478938,-1.063723 0.609013,-1.615604 0.370152,-1.570482 0.586472,-3.173682 0.868002,-4.760685 0.480544,-3.029997 0.955453,-6.068041 1.186421,-9.128908 0.0011,-0.0048 -0.06637,-0.01797 -0.0673,-0.0132 z" />
    <path
       style="fill:#000000;stroke:#000000;stroke-width:0.564999;stroke-linejoin:round;stroke-miterlimit:4.4;stroke-dasharray:none;stroke-opacity:1"
       id="path5836"
       d="m 41.089617,70.111778 c 0.249261,-0.04228 0.496355,-0.100343 0.747786,-0.126833 0.352938,-0.03719 0.708996,-0.03562 1.06276,-0.06393 1.314908,-0.10523 2.620912,-0.290293 3.922932,-0.497649 0.07721,0.08925 1.1934,-0.280731 0.473734,-0.07033 -0.0021,7.93e-4 0.0075,0.02978 0.0096,0.0291 v 0 c 0.684051,-0.122603 -0.437457,-0.239583 -0.524301,-0.141743 -0.928671,0.06298 -1.851382,0.155435 -2.775905,0.26478 -0.736153,0.08707 -1.466257,0.233042 -2.205948,0.281654 -0.252618,0.01659 -0.506155,-0.01323 -0.759235,-0.01987 -0.02439,0.0034 0.02418,0.348244 0.04857,0.34481 z" />
    <path
       style="fill:#000000;stroke:#000000;stroke-width:0.564999;stroke-linejoin:round;stroke-miterlimit:4.4;stroke-dasharray:none;stroke-opacity:1"
       id="path5838"
       d="m 51.016278,61.131806 c -0.840566,2.421919 -1.525059,4.89027 -2.153986,7.374173 -0.622017,2.493119 -1.268937,4.979863 -1.901865,7.470206 -0.09501,0.614008 -0.447884,1.206839 -0.435136,1.838638 0.03491,0.220437 0.02821,0.185054 0.24394,0.0083 0.0029,-0.0031 -0.04111,-0.04435 -0.04403,-0.04124 v 0 c -0.165751,0.243327 -0.136229,0.230876 -0.161428,0.03812 0.0249,-0.617143 0.515575,-1.160343 0.58833,-1.770909 0.800833,-2.43913 1.55062,-4.896099 2.123506,-7.400375 0.621607,-2.492134 1.289005,-4.976407 1.820524,-7.488949 0.0019,-0.0056 -0.07788,-0.03359 -0.07986,-0.02794 z" />
  </g>
</svg>
