<?xml version="1.0" encoding="UTF-8" standalone="no"?>
<!-- Created with Inkscape (http://www.inkscape.org/) -->

<svg
   width="47.490238mm"
   height="38.280277mm"
   viewBox="0 0 47.490238 38.280277"
   version="1.1"
   id="svg1"
   inkscape:version="1.3.2 (1:1.3.2+202311252150+091e20ef0f)"
   sodipodi:docname="h0.svg"
   xmlns:inkscape="http://www.inkscape.org/namespaces/inkscape"
   xmlns:sodipodi="http://sodipodi.sourceforge.net/DTD/sodipodi-0.dtd"
   xmlns="http://www.w3.org/2000/svg"
   xmlns:svg="http://www.w3.org/2000/svg">
  <sodipodi:namedview
     id="namedview1"
     pagecolor="#ffffff"
     bordercolor="#666666"
     borderopacity="1.0"
     inkscape:showpageshadow="2"
     inkscape:pageopacity="0.0"
     inkscape:pagecheckerboard="0"
     inkscape:deskcolor="#d1d1d1"
     inkscape:document-units="mm"
     inkscape:zoom="1.2699352"
     inkscape:cx="98.036498"
     inkscape:cy="148.82649"
     inkscape:window-width="1294"
     inkscape:window-height="704"
     inkscape:window-x="72"
     inkscape:window-y="27"
     inkscape:window-maximized="1"
     inkscape:current-layer="layer1" />
  <defs
     id="defs1" />
  <g
     inkscape:label="Layer 1"
     inkscape:groupmode="layer"
     id="layer1"
     transform="translate(-18.008461,-7.1173829)">
    <path
       style="fill:#ffffff;stroke:#000000;stroke-width:0.964999;stroke-linejoin:round;stroke-miterlimit:4.4"
       id="path1"
       d="m 47.308203,111.39743 c -0.172106,1.22304 -0.504669,2.4668 -0.445717,3.70853 0.06764,0.10771 0.113448,0.23273 0.202912,0.32314 0.242927,0.24547 0.857713,0.53621 1.209101,0.38106 0.675997,-0.29847 1.156041,-1.03686 1.594873,-1.55692 0.790999,-1.10803 1.577034,-2.2374 2.192338,-3.45618 0.309303,-0.61266 0.601723,-1.26226 0.679924,-1.95507 0.02941,-0.26056 -0.0218,-0.52397 -0.03271,-0.78596 -0.107211,-0.20568 -0.178982,-0.43416 -0.321635,-0.61706 -0.534548,-0.68536 -1.560851,-1.04314 -2.397358,-1.10144 -0.187118,-0.013 -0.374986,0.0109 -0.562478,0.0165 -0.891272,0.13568 -1.13824,0.66945 -1.518086,1.40943 -2.65e-4,5.3e-4 5.29e-4,0.001 7.94e-4,5.3e-4 v 0 c 0.379648,-0.73964 0.626377,-1.27323 1.517226,-1.40889 0.187431,-0.005 0.375235,-0.0295 0.56229,-0.0165 0.836216,0.0583 1.862191,0.41588 2.39663,1.10092 0.142587,0.18277 0.21435,0.41109 0.321525,0.61664 0.0109,0.26189 0.06213,0.52521 0.03273,0.78568 -0.07818,0.69272 -0.370562,1.34223 -0.679825,1.95482 -0.615273,1.21872 -1.401271,2.34804 -2.192229,3.45602 -0.438299,0.51945 -0.918771,1.25822 -1.594112,1.55657 -0.351097,0.1551 -0.965444,-0.13539 -1.208252,-0.3806 -0.08938,-0.0903 -0.135173,-0.2151 -0.202761,-0.32265 -0.05898,-1.24162 0.273635,-2.48529 0.445683,-3.70822 1.85e-4,-7.9e-4 -7.94e-4,-10e-4 -0.0011,-2.6e-4 z" />
    <circle
       id="path2"
       style="fill:#ffffff;stroke:#000000;stroke-width:0.264583"
       cx="425.69348"
       cy="-33.259975"
       r="2.5304045e-05" />
    <path
       style="fill:#ffffff;stroke:#000000;stroke-width:0.964999;stroke-linejoin:round;stroke-miterlimit:4.4"
       id="path3"
       d="m 37.643579,9.1612478 c -0.09035,1.0731742 -0.04158,2.1548702 0.0064,3.2286182 0.03597,0.805013 0.0614,1.826022 0.264202,2.622918 0.09081,0.356819 0.257475,0.689906 0.386213,1.034857 0.209676,0.29514 0.387205,0.615987 0.629028,0.885414 0.743128,0.827969 1.756322,1.356091 2.870652,1.440567 0.947258,0.07181 1.224043,-0.09734 2.099454,-0.361916 0.28309,-0.221409 0.607583,-0.398237 0.84927,-0.664223 1.069297,-1.176795 1.661251,-3.687427 1.778576,-5.232612 0.03323,-0.437647 -0.0094,-0.877763 -0.01406,-1.316646 -0.143565,-0.368898 -0.210286,-0.777883 -0.430694,-1.1066942 -0.862698,-1.286996 -2.870706,-1.966296 -4.342312,-2.08095 -0.326188,-0.02543 -0.654332,0.0053 -0.981498,0.008 -7.14e-4,6e-6 -6.88e-4,0.0011 8e-6,0.0011 v 0 c 0.327113,-0.0027 0.655204,-0.03342 0.98134,-0.008 1.471206,0.114604 3.478991,0.793731 4.34153,2.080326 0.220363,0.3287002 0.287084,0.7375602 0.430626,1.1063392 0.0047,0.438828 0.0473,0.878888 0.01407,1.316482 -0.1173,1.544929 -0.709155,4.055319 -1.778204,5.231979 -0.241591,0.265909 -0.565962,0.442701 -0.848944,0.664052 -0.875203,0.264535 -1.151919,0.43366 -2.098961,0.361894 -1.114089,-0.08442 -2.127052,-0.612404 -2.87004,-1.440167 -0.241773,-0.269359 -0.419271,-0.590121 -0.628907,-0.885184 -0.12872,-0.344887 -0.295369,-0.677908 -0.386161,-1.034659 -0.202797,-0.796861 -0.228224,-1.817833 -0.264191,-2.622804 -0.04797,-1.073684 -0.09674,-2.155317 -0.0064,-3.2284322 1.06e-4,-7.94e-4 -8.73e-4,-7.94e-4 -9.79e-4,-1.48e-4 z" />
    <path
       style="fill:#ffffff;stroke:#000000;stroke-width:0.964999;stroke-linejoin:round;stroke-miterlimit:4.4"
       id="path4"
       d="m 32.21219,23.728063 c -1.105673,1.773473 -2.315314,3.472577 -3.653206,5.077508 -0.605874,0.7386 -1.290896,1.406554 -1.917242,2.126602 -5.29e-4,5.29e-4 2.65e-4,0.0011 7.94e-4,5.29e-4 v 0 c 0.626348,-0.720056 1.311381,-1.38801 1.917255,-2.126618 1.337916,-1.60496 2.547581,-3.304091 3.653272,-5.077595 2.64e-4,-5.82e-4 -5.29e-4,-0.0011 -7.94e-4,-5.55e-4 z" />
    <path
       style="fill:#ffffff;stroke:#000000;stroke-width:0.964999;stroke-linejoin:round;stroke-miterlimit:4.4"
       id="path5"
       d="m 25.865421,29.492278 c 0.08167,0.763545 0.0273,1.550295 0.154203,2.309339 0.05953,0.356042 0.123334,0.446905 0.26496,0.754991 0.153177,0.190291 0.205353,0.308859 0.451016,0.395449 0.567212,0.19993 1.285653,0.02926 1.856037,-0.05746 0.806548,-0.162642 0.402629,-0.07681 1.211717,-0.257691 7.94e-4,-1.56e-4 5.29e-4,-0.0011 -2.17e-4,-0.0011 v 0 c -0.809053,0.180875 -0.405156,0.09505 -1.211651,0.257678 -0.570153,0.08668 -1.288352,0.257326 -1.855364,0.05759 -0.245449,-0.08646 -0.297572,-0.204912 -0.45063,-0.395015 -0.141562,-0.307914 -0.205378,-0.398806 -0.264872,-0.754658 -0.126899,-0.759015 -0.07253,-1.545738 -0.1542,-2.309254 0,-7.93e-4 -0.001,-7.93e-4 -0.001,0 z" />
    <path
       style="fill:#ffffff;stroke:#000000;stroke-width:0.964999;stroke-linejoin:round;stroke-miterlimit:4.4"
       id="path6"
       d="m 49.058628,22.730199 c 2.926027,1.914091 5.89099,3.767567 8.821179,5.675205 1.10652,0.742704 0.600382,0.387488 1.524339,1.057162 5.29e-4,5.29e-4 0.0011,-2.65e-4 5.29e-4,-7.94e-4 v 0 c -0.923991,-0.669698 -0.417838,-0.314471 -1.524381,-1.05719 -2.930292,-1.907705 -5.895324,-3.761297 -8.821525,-5.675347 -7.94e-4,-1.41e-4 -7.94e-4,8.47e-4 -1.99e-4,9.79e-4 z" />
    <path
       style="fill:#ffffff;stroke:#000000;stroke-width:0.964999;stroke-linejoin:round;stroke-miterlimit:4.4"
       id="path7"
       d="m 60.797236,27.78211 c 0.09706,0.561723 0.233587,1.117398 0.321725,1.680712 0.02484,0.158824 0.123454,0.621676 -0.03733,0.789297 -0.126606,0.131988 -0.323938,0.1699 -0.485905,0.25485 -1.103733,0.310988 -2.253152,0.390048 -3.393186,0.444391 -7.94e-4,3.5e-5 -5.29e-4,0.0011 4.8e-5,0.0011 v 0 c 1.140176,-0.05435 2.289743,-0.133416 3.393601,-0.444505 0.162137,-0.08516 0.359682,-0.123269 0.48641,-0.255484 0.160814,-0.167772 0.06224,-0.630682 0.03735,-0.789734 -0.08814,-0.563316 -0.224663,-1.118997 -0.321729,-1.680726 -1.4e-4,-7.93e-4 -0.0011,-5.29e-4 -0.0011,1.99e-4 z" />
    <path
       style="fill:#ffffff;stroke:#000000;stroke-width:0.964999;stroke-linejoin:round;stroke-miterlimit:4.4"
       id="path8"
       d="m 19.985043,35.21825 c -0.539382,2.554465 -1.02279,5.120577 -1.473857,7.692015 -0.0021,0.212172 -0.03516,0.426288 -0.0064,0.636516 0.151724,1.109466 1.483658,1.195178 2.351258,1.32226 0.607849,0.08382 1.471945,0.12478 1.719472,-0.610616 0.114065,-0.338883 0.04387,-0.824828 0.02058,-1.162428 -0.154907,-1.345835 -0.613861,-2.034014 -1.680703,-2.847835 -0.639046,-0.343768 -0.318403,-0.193974 -0.959617,-0.454292 -6.61e-4,-2.65e-4 -0.001,5.29e-4 -3.7e-4,0.0011 v 0 c 0.641068,0.26025 0.320503,0.110501 0.959387,0.454163 1.066619,0.813612 1.525429,1.501584 1.680311,2.847107 0.02326,0.337172 0.09344,0.823283 -0.02041,1.161804 -0.247237,0.735084 -1.111072,0.693936 -1.718496,0.610182 -0.866971,-0.126984 -2.198741,-0.212468 -2.350403,-1.321263 -0.02875,-0.210169 0.0043,-0.424236 0.0064,-0.636352 0.451062,-2.571411 0.934465,-5.137494 1.473839,-7.691938 1.78e-4,-7.93e-4 -7.94e-4,-0.0011 -9.79e-4,-2.48e-4 z" />
    <path
       style="fill:#ffffff;stroke:#000000;stroke-width:0.964999;stroke-linejoin:round;stroke-miterlimit:4.4"
       id="path9"
       d="m 65.015099,36.828478 c 0,1.003263 0,2.006526 0,3.009789 0,0.48731 0,0.974619 0,1.461929 0,0.108643 0,0.217286 0,0.325929 0,0.334743 0,0.669484 0,1.004226 0,0.0517 0,0.103402 0,0.155104 0,7.94e-4 0.0011,7.94e-4 0.0011,0 v 0 c 0,-0.0517 0,-0.103401 0,-0.155104 0,-0.334742 0,-0.669483 0,-1.004226 0,-0.108643 0,-0.217286 0,-0.325929 0,-0.48731 0,-0.974619 0,-1.461929 0,-1.003263 0,-2.006526 0,-3.009789 0,-7.94e-4 -0.0011,-7.94e-4 -0.0011,0 z" />
  </g>
</svg>
