<?xml version="1.0" encoding="UTF-8" standalone="no"?>
<!-- Created with Inkscape (http://www.inkscape.org/) -->

<svg
   width="228.15343mm"
   height="163.23436mm"
   viewBox="0 0 228.15343 163.23436"
   version="1.1"
   id="svg408"
   sodipodi:docname="approx.svg"
   inkscape:version="1.2.2 (1:1.2.2+202212051550+b0a8486541)"
   xmlns:inkscape="http://www.inkscape.org/namespaces/inkscape"
   xmlns:sodipodi="http://sodipodi.sourceforge.net/DTD/sodipodi-0.dtd"
   xmlns="http://www.w3.org/2000/svg"
   xmlns:svg="http://www.w3.org/2000/svg">
  <sodipodi:namedview
     id="namedview410"
     pagecolor="#ffffff"
     bordercolor="#666666"
     borderopacity="1.0"
     inkscape:showpageshadow="2"
     inkscape:pageopacity="0.0"
     inkscape:pagecheckerboard="0"
     inkscape:deskcolor="#d1d1d1"
     inkscape:document-units="mm"
     showgrid="true"
     inkscape:zoom="0.4792789"
     inkscape:cx="417.29356"
     inkscape:cy="270.19758"
     inkscape:window-width="1294"
     inkscape:window-height="704"
     inkscape:window-x="72"
     inkscape:window-y="27"
     inkscape:window-maximized="1"
     inkscape:current-layer="layer1">
    <inkscape:grid
       type="xygrid"
       id="grid1419"
       originx="-46.297194"
       originy="-7.6112458" />
  </sodipodi:namedview>
  <defs
     id="defs405">
    <inkscape:path-effect
       effect="bspline"
       id="path-effect2559"
       is_visible="true"
       lpeversion="1"
       weight="33.333333"
       steps="2"
       helper_size="0"
       apply_no_weight="true"
       apply_with_weight="true"
       only_selected="false" />
    <inkscape:path-effect
       effect="bspline"
       id="path-effect1615"
       is_visible="true"
       lpeversion="1"
       weight="33.333333"
       steps="2"
       helper_size="0"
       apply_no_weight="true"
       apply_with_weight="true"
       only_selected="false" />
    <marker
       style="overflow:visible"
       id="Arrow5"
       refX="0"
       refY="0"
       orient="auto-start-reverse"
       inkscape:stockid="Arrow5"
       markerWidth="5.8874264"
       markerHeight="6.6094756"
       viewBox="0 0 5.8874262 6.6094758"
       inkscape:isstock="true"
       inkscape:collect="always"
       preserveAspectRatio="xMidYMid">
      <path
         transform="scale(0.5)"
         style="fill:context-stroke;fill-rule:evenodd;stroke:context-stroke;stroke-width:1pt"
         d="m 6,0 c -3,1 -7,3 -9,5 0,0 0,-4 2,-5 -2,-1 -2,-5 -2,-5 2,2 6,4 9,5 z"
         id="path8893" />
    </marker>
    <marker
       style="overflow:visible"
       id="Arrow5-3"
       refX="0"
       refY="0"
       orient="auto-start-reverse"
       inkscape:stockid="Arrow5"
       markerWidth="5.8874264"
       markerHeight="6.6094756"
       viewBox="0 0 5.8874262 6.6094758"
       inkscape:isstock="true"
       inkscape:collect="always"
       preserveAspectRatio="xMidYMid">
      <path
         transform="scale(0.5)"
         style="fill:context-stroke;fill-rule:evenodd;stroke:context-stroke;stroke-width:1pt"
         d="m 6,0 c -3,1 -7,3 -9,5 0,0 0,-4 2,-5 -2,-1 -2,-5 -2,-5 2,2 6,4 9,5 z"
         id="path8893-6" />
    </marker>
  </defs>
  <g
     inkscape:label="Layer 1"
     inkscape:groupmode="layer"
     id="layer1"
     transform="translate(-46.297195,-7.6112462)">
    <path
       style="font-variation-settings:normal;opacity:1;fill:none;fill-opacity:1;stroke:#000000;stroke-width:1.065;stroke-linecap:butt;stroke-linejoin:miter;stroke-miterlimit:4;stroke-dasharray:none;stroke-dashoffset:0;stroke-opacity:1;marker-end:url(#Arrow5);stop-color:#000000;stop-opacity:1"
       d="m 46.846918,100.74895 197.167542,0.64511"
       id="path592" />
    <path
       style="font-variation-settings:normal;fill:none;fill-opacity:1;stroke:#000000;stroke-width:1.065;stroke-linecap:butt;stroke-linejoin:miter;stroke-miterlimit:4;stroke-dasharray:1.065, 1.065;stroke-dashoffset:0;stroke-opacity:1;stop-color:#000000"
       d="m 47.438432,54.975948 197.167538,0.64511"
       id="path592-2" />
    <path
       style="font-variation-settings:normal;fill:none;fill-opacity:1;stroke:#000000;stroke-width:0.947342;stroke-linecap:butt;stroke-linejoin:miter;stroke-miterlimit:4;stroke-dasharray:none;stroke-dashoffset:0;stroke-opacity:1;marker-end:url(#Arrow5-3);stop-color:#000000"
       d="M 148.58146,154.40282 149.43654,36.702003"
       id="path592-7" />
    <path
       style="font-variation-settings:normal;fill:none;fill-opacity:1;stroke:#000000;stroke-width:0.947;stroke-linecap:butt;stroke-linejoin:miter;stroke-miterlimit:4;stroke-dasharray:0.947, 0.947;stroke-dashoffset:0;stroke-opacity:1;stop-color:#000000"
       d="M 131.73781,147.02276 130.85122,29.690561 M 190.2039,148.44454 191.05898,30.743708"
       id="path592-7-2"
       sodipodi:nodetypes="cccc" />
    <path
       style="fill:#f2f2f2;stroke:#000000;stroke-width:1.065;stroke-linejoin:round;stroke-miterlimit:4.4;stroke-dasharray:none"
       id="path1559"
       d="m 55.092073,119.87492 c 2.566276,-0.7103 5.261567,-0.62608 7.899971,-0.60494 0.01873,-0.002 -0.0085,-0.26672 -0.02724,-0.26479 v 0 c -2.643095,-0.12382 -5.379628,-0.0984 -7.898487,0.80973 -0.0042,0.002 0.02151,0.0618 0.02577,0.06 z" />
    <path
       style="fill:#f2f2f2;stroke:#000000;stroke-width:1.065;stroke-linejoin:round;stroke-miterlimit:4.4;stroke-dasharray:none"
       id="path1561"
       d="m 70.163263,117.92557 c 2.190861,-1.28158 4.233204,-2.95422 5.545828,-5.15132 0.562652,-2.21724 -2.450732,1.64424 -2.473306,1.6731 -2.084621,2.98067 -3.518527,6.34515 -4.556437,9.81607 -0.471636,1.83451 -0.565751,2.00581 -2.235563,1.23421 -0.681762,-0.47076 -2.263119,-0.84668 -0.402468,-0.76162 2.035318,0.14024 4.071469,-0.0154 6.095275,-0.22772 0.01535,-0.003 -0.02906,-0.22015 -0.04441,-0.21701 v 0 c -2.018651,0.15551 -4.037838,0.33959 -6.064329,0.33862 -1.888011,0.089 -0.329562,0.5053 0.390353,0.97918 1.61725,0.69078 1.931601,0.47793 2.475799,-1.25731 1.197761,-3.38414 2.626,-6.70325 4.5349,-9.75308 0.547619,-0.76804 0.827236,-1.22836 1.45573,-1.88728 0.294028,-0.30826 0.938334,-0.8369 0.871926,-0.4351 -0.02421,0.14638 -0.115829,0.27319 -0.173741,0.40979 -1.456881,2.06474 -3.439417,3.68426 -5.46376,5.17004 -0.0049,0.003 0.03929,0.0726 0.0442,0.0694 z" />
    <path
       style="fill:#f2f2f2;stroke:#000000;stroke-width:1.065;stroke-linejoin:round;stroke-miterlimit:4.4;stroke-dasharray:none"
       id="path1563"
       d="m 73.878706,100.04133 c -0.157273,0.10431 -0.362143,0.15935 -0.471826,0.31293 -0.400285,0.56047 -0.236995,1.85206 0.375047,2.23918 0.126333,0.0799 0.292322,0.0627 0.438483,0.094 1.451314,-0.81799 1.211366,-2.55569 0.582081,-3.836305 -0.15562,-0.123402 -0.281821,-0.298048 -0.466857,-0.370208 -1.143344,-0.445871 -1.893247,1.325814 -2.175886,2.080873 0.196332,0.82577 0.04027,0.46616 0.420801,1.09819 0.0019,0.006 0.08409,-0.0188 0.08235,-0.0246 v 0 c -0.26868,-0.56822 -0.209958,-0.25602 -0.120674,-0.94535 0.02439,-0.22652 0.0172,-0.45873 0.07321,-0.67956 0.162526,-0.64072 0.841883,-1.752542 1.678562,-1.440217 0.156588,0.05845 0.262649,0.206788 0.393975,0.310182 0.357719,0.762976 0.366705,1.295935 0.295918,2.134625 -0.05939,0.70362 -0.07896,1.2387 -0.76095,1.59925 -1.280448,-0.21431 -0.765548,-1.68158 -0.280164,-2.42627 0.01037,-0.005 -0.0537,-0.15125 -0.06407,-0.14672 z" />
    <path
       style="fill:#f2f2f2;stroke:#000000;stroke-width:1.065;stroke-linejoin:round;stroke-miterlimit:4.4;stroke-dasharray:none"
       id="path1563-5"
       d="m 131.93017,99.910638 c -0.15727,0.104312 -0.36214,0.159352 -0.47182,0.312932 -0.40029,0.56047 -0.237,1.85206 0.37504,2.23918 0.12633,0.0799 0.29232,0.0627 0.43848,0.094 1.45132,-0.81799 1.21137,-2.55569 0.58209,-3.836312 -0.15562,-0.1234 -0.28182,-0.29805 -0.46686,-0.37021 -1.14335,-0.44587 -1.89325,1.32582 -2.17589,2.080882 0.19633,0.82577 0.0403,0.46616 0.4208,1.09819 0.002,0.006 0.0841,-0.0188 0.0824,-0.0246 v 0 c -0.26868,-0.56822 -0.20995,-0.25602 -0.12067,-0.94535 0.0244,-0.22652 0.0172,-0.45873 0.0732,-0.679562 0.16253,-0.64072 0.84188,-1.75255 1.67856,-1.44022 0.15659,0.0585 0.26265,0.20679 0.39398,0.31018 0.35772,0.76298 0.3667,1.295942 0.29592,2.134632 -0.0594,0.70362 -0.079,1.2387 -0.76095,1.59925 -1.28045,-0.21431 -0.76555,-1.68158 -0.28017,-2.42627 0.0104,-0.005 -0.0537,-0.151252 -0.0641,-0.146722 z" />
    <path
       style="fill:#f2f2f2;stroke:#000000;stroke-width:1.22464;stroke-linejoin:round;stroke-miterlimit:4.4;stroke-dasharray:none"
       id="path1563-3"
       d="m 190.53229,100.18272 c -0.21601,0.10042 -0.49738,0.1534 -0.64802,0.30126 -0.54977,0.53959 -0.32551,1.78306 0.5151,2.15576 0.17351,0.0769 0.40148,0.0604 0.60223,0.0905 1.99327,-0.78751 1.66373,-2.46046 0.79944,-3.693362 -0.21373,-0.11881 -0.38706,-0.286954 -0.6412,-0.356424 -1.5703,-0.42926 -2.60023,1.276424 -2.98842,2.003346 0.26964,0.795 0.0553,0.44879 0.57794,1.05727 0.003,0.006 0.1155,-0.0181 0.11303,-0.0237 v 0 c -0.36901,-0.54705 -0.28836,-0.24648 -0.16574,-0.91013 0.0335,-0.21808 0.0236,-0.44164 0.10053,-0.65423 0.22321,-0.616852 1.15627,-1.687256 2.30539,-1.386562 0.21507,0.0562 0.36073,0.19909 0.54109,0.29862 0.49131,0.73456 0.50365,1.247662 0.40643,2.055092 -0.0816,0.67741 -0.1085,1.19255 -1.04512,1.53967 -1.75861,-0.20633 -1.05143,-1.61893 -0.38478,-2.33588 0.0143,-0.005 -0.0738,-0.1456 -0.088,-0.14124 z" />
    <path
       style="fill:#f2f2f2;stroke:#000000;stroke-width:1.065;stroke-linejoin:round;stroke-miterlimit:4.4;stroke-dasharray:none"
       id="path1565"
       d="m 220.53678,101.41786 c -0.78699,0.81119 -1.51601,1.85962 0.19134,1.96455 0.80699,-0.26044 1.97445,-0.82236 2.2964,-1.70347 0.17073,-0.46725 -0.0241,-0.71767 -0.19757,-1.11151 -0.70724,-0.846316 -1.80982,-0.806287 -2.79366,-0.5658 -0.10675,0.0445 -0.21351,0.089 -0.32027,0.13347 -0.004,0.002 0.022,0.0577 0.026,0.0558 v 0 c 0.10644,-0.0379 0.21288,-0.0758 0.31931,-0.11372 0.93019,-0.209779 1.98992,-0.263828 2.6843,0.50031 0.16651,1.25737 -0.85977,2.37888 -2.02379,2.70657 -1.668,-0.0196 -0.76617,-1.00972 0.0569,-1.54938 0.0224,-0.0169 -0.21657,-0.33376 -0.23897,-0.31686 z" />
    <path
       style="fill:#f2f2f2;stroke:#000000;stroke-width:1.065;stroke-linejoin:round;stroke-miterlimit:4.4;stroke-dasharray:none"
       id="path1567"
       d="m 212.84504,117.67114 c 2.50489,-0.42626 4.91603,-1.3006 6.89843,-2.90819 0.84926,-0.91155 0.71862,-1.68978 -0.57563,-1.47308 -0.17472,0.0541 -0.71572,0.27754 -0.44364,0.52191 0.001,5.3e-4 0.0101,-0.0173 0.009,-0.018 v 0 c -0.26451,-0.19745 0.33244,-0.4201 0.45073,-0.44487 1.20974,-0.19645 1.33415,0.43268 0.44301,1.26892 -2.03026,1.48596 -4.39673,2.30425 -6.7986,2.99608 -0.004,10e-4 0.0128,0.0584 0.0169,0.0572 z" />
    <path
       style="fill:#f2f2f2;stroke:#000000;stroke-width:1.065;stroke-linejoin:round;stroke-miterlimit:4.4;stroke-dasharray:none"
       id="path1569"
       d="m 218.72515,115.26921 c -1.19084,2.13656 -2.5292,4.18118 -3.66248,6.35009 -0.0582,0.30711 -1.4238,2.44206 -0.13237,1.90501 0.004,-0.002 -0.0261,-0.0571 -0.03,-0.0549 v 0 c -1.17466,0.64278 0.38131,-1.54296 0.36462,-1.72922 1.1763,-2.14365 2.43038,-4.2364 3.77513,-6.27711 0.0137,-0.0222 -0.30118,-0.21611 -0.31489,-0.19384 z" />
    <path
       style="fill:#f2f2f2;stroke:#000000;stroke-width:1.065;stroke-linejoin:round;stroke-miterlimit:4.4;stroke-dasharray:none"
       id="path1571"
       d="m 210.31683,125.34579 c 2.78201,0.0267 5.55726,-0.28579 8.32248,-0.5602 1.46412,-0.15465 0.79035,-0.0781 2.02183,-0.22491 0.0106,-0.002 -0.0188,-0.15124 -0.0294,-0.14916 v 0 c -1.24855,0.0566 -0.5667,0.0207 -2.0452,0.11362 -2.76302,0.21463 -5.51733,0.52017 -8.27907,0.74687 -0.005,5.3e-4 0.004,0.0744 0.009,0.0738 z" />
    <path
       style="font-variation-settings:normal;opacity:1;vector-effect:none;fill:none;fill-opacity:1;stroke:#f31c1c;stroke-width:1.365;stroke-linecap:butt;stroke-linejoin:miter;stroke-miterlimit:4;stroke-dasharray:none;stroke-dashoffset:0;stroke-opacity:1;-inkscape-stroke:none;stop-color:#000000;stop-opacity:1"
       d="m 51.918255,42.044663 c 4.508005,9.799728 9.015772,19.598939 17.451025,18.032075 8.435254,-1.566863 20.797217,-14.499105 26.514679,-15.278255 5.717461,-0.77915 4.789751,10.594654 8.623381,18.09022 3.83363,7.495566 12.42799,11.112184 19.54867,8.585144 7.12067,-2.52704 12.76753,-11.197212 16.55548,-10.44592 3.78794,0.751292 5.71643,10.923732 11.29412,16.679732 5.5777,5.756 14.80373,7.095156 19.37417,6.10602 4.57044,-0.989137 4.48506,-4.306742 7.77215,-7.709087 3.28709,-3.402345 9.94615,-6.888825 14.30897,-5.544648 4.36281,1.344177 6.42887,7.518597 10.14208,11.278993 3.71322,3.760395 9.07302,5.106793 14.61396,4.684328 5.54094,-0.422464 11.26251,-2.613606 15.54082,-3.102433 4.27832,-0.488827 7.11268,0.724525 12.34974,8.059433 5.23706,7.334908 12.87644,20.790535 20.51581,34.246145"
       id="path1613"
       inkscape:path-effect="#path-effect1615"
       inkscape:original-d="m 51.918255,42.044663 c 4.508123,9.799674 9.01589,19.598885 13.523575,29.398227 12.362974,-12.932757 24.724938,-25.864998 37.08738,-38.798282 -0.9275,11.374748 -1.85522,22.748553 -2.783252,34.122767 8.594952,3.617024 17.189312,7.233643 25.783572,10.850066 5.64746,-8.670434 11.29432,-17.340606 16.94125,-26.011565 1.92886,10.173304 3.85734,20.345744 5.78568,30.518508 9.22682,1.339497 18.45285,2.678653 27.67914,4.01762 -0.0851,-3.317469 -0.1705,-6.635074 -0.25615,-9.953009 6.65974,-3.486431 13.3188,-6.972911 19.97801,-10.459872 2.06641,6.174944 4.13246,12.349367 6.1983,18.523652 5.36039,1.346743 10.7202,2.693141 16.08006,4.039355 5.72218,-2.19101 11.44375,-4.382152 17.1654,-6.573692 2.83481,1.213693 5.66917,2.427047 8.50345,3.640212 7.63998,13.456473 15.27936,26.9121 22.91864,40.36776"
       sodipodi:nodetypes="ccccccccccccccc" />
    <path
       style="fill:#000000;stroke:#f31c1c;stroke-width:0.946999;stroke-linejoin:round;stroke-miterlimit:4.4;stroke-dasharray:1.065, 1.065;stroke-dashoffset:0;stroke-opacity:1"
       id="path2070"
       d="m 149.13742,55.44812 c 0.13445,-0.122349 0.26891,-0.244697 0.40336,-0.367046 0.005,-0.0044 -0.0575,-0.07981 -0.0628,-0.07537 v 0 c -0.14923,0.105928 -0.29846,0.211857 -0.4477,0.317783 -0.009,0.0076 0.0984,0.13221 0.10717,0.124632 z" />
    <path
       style="fill:#000000;stroke:#000000;stroke-width:0.946999;stroke-linejoin:round;stroke-miterlimit:4.4;stroke-dasharray:none;stroke-dashoffset:0;stroke-opacity:1"
       id="path2551"
       d="m 153.75531,47.510834 c 1.32933,-0.686874 2.5411,-1.559007 3.66425,-2.542317 0.36694,-0.376905 1.64524,-1.604206 0.28988,-1.558857 -0.8636,0.144153 -1.35338,0.753208 -1.74961,1.480469 -0.53808,1.182809 -0.7954,2.458222 -1.01303,3.731214 -0.0548,0.828887 -0.3183,1.696758 -0.20987,2.533259 0.12372,-0.149987 0.12264,-0.373483 0.13607,-0.561462 0.006,-0.01699 0.0115,-0.03398 0.0172,-0.05096 5.3e-4,-0.0013 -0.0178,-0.0093 -0.0184,-0.008 v 0 c -0.007,0.01791 -0.0132,0.03583 -0.0198,0.05374 -0.04,0.186864 -0.092,0.38332 -0.0763,0.573545 0.21656,-0.808003 0.26129,-1.651323 0.43033,-2.468933 0.21495,-1.255451 0.39968,-2.535933 0.89794,-3.717428 0.36212,-0.713655 0.79983,-1.290037 1.62466,-1.465675 0.0632,-0.0079 0.35412,-0.07126 0.44376,-0.0019 0.2891,0.223427 -0.86715,1.140423 -0.95367,1.231696 -1.13727,0.945698 -2.34117,1.801315 -3.50233,2.715993 -0.004,0.0028 0.035,0.05844 0.0389,0.05569 z" />
    <path
       style="fill:#000000;stroke:#000000;stroke-width:0.946999;stroke-linejoin:round;stroke-miterlimit:4.4;stroke-dasharray:none;stroke-dashoffset:0;stroke-opacity:1"
       id="path2553"
       d="m 152.67021,52.39241 c 1.56063,-0.258466 3.13114,-0.432652 4.70637,-0.570418 0.56505,-0.121952 1.15909,1.43e-4 1.72523,-0.07668 0.002,-5e-5 0.001,-0.02786 -7.9e-4,-0.02781 v 0 c -0.56364,-0.211347 -1.18957,-0.178017 -1.77917,-0.193657 -1.5805,0.07215 -3.19092,0.235808 -4.67906,0.805485 -0.004,0.0019 0.0229,0.06501 0.0274,0.06308 z" />
    <path
       style="fill:#000000;stroke:#000000;stroke-width:0.946999;stroke-linejoin:round;stroke-miterlimit:4.4;stroke-dasharray:none;stroke-dashoffset:0;stroke-opacity:1"
       id="path2555"
       d="m 148.93097,54.384238 c -0.29536,0.55431 -0.72527,1.435481 -0.46529,2.075024 0.0433,0.106511 0.1458,0.177819 0.2187,0.266729 0.81806,0.588201 0.86163,0.08705 1.43679,-0.401039 0.1864,-0.158189 0.45681,-0.219493 0.60596,-0.413208 0.10159,-0.131948 0.38644,-1.142595 0.44311,-1.334249 0.087,-1.021829 -0.31165,-1.297371 -1.26232,-1.458021 -0.21918,-0.03704 -0.44587,-0.158038 -0.65973,-0.09738 -0.22561,0.06399 -0.36588,0.293434 -0.54883,0.44015 -0.40355,0.261647 -1.17702,0.929048 -1.34979,1.392759 -0.0718,0.192675 -0.0538,0.40902 -0.0522,0.614627 0.001,0.179885 -0.002,0.367856 0.0609,0.536215 0.063,0.167453 0.20445,0.293677 0.30668,0.440518 0.57807,0.418119 1.18236,0.789104 1.92785,0.487948 0.26705,-0.107879 0.46825,-0.335545 0.69975,-0.506886 0.82441,-0.610156 0.507,-0.308483 1.11467,-1.091875 0.41396,-0.795689 0.53438,-2.013873 -0.54251,-2.337229 -0.1542,-0.0463 -0.32044,-0.03182 -0.48066,-0.04772 -0.6553,-0.06324 -1.27223,0.09456 -1.70819,0.627869 -0.14423,0.176443 -0.20808,0.406265 -0.33052,0.598474 -0.61666,0.968089 -0.22632,0.08678 -0.62103,1.148146 0.11927,0.402503 0.15828,0.724787 0.44295,1.045274 0.32717,0.368334 0.91702,0.665131 1.38177,0.333862 0.18592,-0.132517 0.27497,-0.364543 0.41246,-0.546817 0.46326,-0.318022 0.77171,-0.395171 0.90065,-1.003941 0.0451,-0.213058 -0.0362,-0.434104 -0.0492,-0.651499 -0.0319,-0.532111 0.0431,-0.63269 -0.4446,-0.892709 -0.89241,0.110675 -1.08253,0.321339 -1.43581,1.129638 -0.25669,0.587296 -0.21214,0.305753 -0.16162,0.898679 0.10894,0.13685 0.17239,0.328403 0.32681,0.410548 0.41966,0.223234 1.10083,-0.222975 1.32445,-0.542983 0.2571,-0.36793 0.21302,-0.601551 0.23505,-1.017857 -0.0124,-0.13648 0.004,-0.278742 -0.0372,-0.409438 -0.18021,-0.571439 -0.99596,-0.771025 -1.45619,-0.427072 -0.15539,0.116129 -0.24094,0.304091 -0.36142,0.456137 -0.16756,0.552286 -0.65621,1.850972 0.3144,2.007544 0.12823,0.02069 0.25206,-0.06283 0.37809,-0.09424 0.0913,-0.08829 0.20285,-0.159618 0.27398,-0.264867 0.189,-0.279691 0.31284,-0.871812 0.0293,-1.140722 -0.0698,-0.06622 -0.16752,-0.09474 -0.25128,-0.142113 -0.06,0.04528 -0.11997,0.09056 -0.17995,0.135848 -0.004,0.0013 0.0139,0.05163 0.0174,0.0504 v 0 c 0.036,0.02109 0.0719,0.04218 0.10792,0.06326 0.19583,-0.067 0.19236,0.437451 0.14648,0.527814 -0.0361,0.07108 -0.10488,0.120701 -0.16482,0.173242 -0.0527,0.0462 -0.11435,0.08107 -0.17153,0.121607 -0.0473,0.02379 -0.10129,0.03737 -0.14193,0.07132 -0.0294,0.02455 -0.0225,0.103153 -0.0605,0.09776 -0.36897,-0.05244 -0.30701,-0.692719 -0.21367,-0.911892 0.0607,-0.142542 0.19615,-0.239874 0.29423,-0.35981 0.2065,-0.212026 0.54268,-0.721529 0.87779,-0.752655 0.37904,-0.03521 0.46072,0.50291 0.44813,0.743429 -0.30627,0.523015 -0.69804,0.998048 -1.27436,1.214229 -0.13482,-0.698656 0.24846,-0.953275 0.6017,-1.496224 0.0809,-0.12432 0.12511,-0.278876 0.23634,-0.376979 0.0709,-0.06257 0.18277,-0.04884 0.27415,-0.07326 0.0648,0.02766 0.14742,0.03042 0.19426,0.08299 0.12794,0.143623 0.15843,0.497866 0.091,0.652872 -0.0682,0.156903 -0.23478,0.251592 -0.32667,0.395915 -0.23562,0.370033 -0.33481,0.749027 -0.47584,1.160952 -0.17163,0.06119 -0.34736,0.111924 -0.51489,0.183589 -0.0984,0.04207 -0.60152,0.34485 -0.72649,0.337854 -0.48041,-0.02689 -0.3845,-0.756343 -0.28121,-1.006107 0.0181,-0.321241 0.008,-0.900782 0.2065,-1.183201 0.11283,-0.160837 0.32264,-0.224335 0.4866,-0.332581 0.45834,-0.302596 0.91485,-0.610971 1.39519,-0.877732 0.14443,0.01037 0.29221,-0.0016 0.43327,0.03108 0.96167,0.222771 0.72666,1.395846 0.37944,2.021112 -0.29377,0.35038 -0.61336,0.805292 -1.04651,1.008746 -0.2279,0.107053 -0.49404,0.09814 -0.73912,0.155942 -0.14611,0.03447 -1.01451,0.291537 -1.20336,0.268417 -0.14689,-0.01799 -0.25775,-0.145504 -0.38663,-0.218254 -0.39777,-0.619435 -0.42407,-0.636958 -0.15631,-1.329637 0.0699,-0.180912 0.10732,-0.377997 0.20955,-0.542827 0.23202,-0.374111 0.58068,-0.589942 0.91972,-0.848567 0.19671,-0.02363 0.39342,-0.04728 0.59012,-0.07092 0.17021,-0.09045 0.32107,-0.236413 0.51062,-0.271354 0.17165,-0.03164 0.35145,0.02714 0.51717,0.0819 0.53008,0.175151 0.64028,0.58403 0.54318,1.088421 -0.49469,1.237226 0.12235,-0.11372 -0.6655,1.035177 -0.1316,0.191913 -0.14987,0.458187 -0.31327,0.623859 -0.29059,0.294613 -0.88333,0.250558 -1.20032,0.527902 -0.0608,-0.07067 -0.15003,-0.124614 -0.18256,-0.212019 -0.15483,-0.416009 0.3556,-1.49098 0.6079,-1.859849 0.0156,-0.01974 -0.26373,-0.239786 -0.27928,-0.220038 z" />
    <path
       style="font-variation-settings:normal;opacity:1;vector-effect:none;fill:none;fill-opacity:1;stroke:#1757e9;stroke-width:1.365;stroke-linecap:butt;stroke-linejoin:miter;stroke-miterlimit:4;stroke-dasharray:none;stroke-dashoffset:0;stroke-opacity:1;-inkscape-stroke:none;stop-color:#000000;stop-opacity:1"
       d="m 48.639817,161.79496 c 0.187824,-14.31485 0.375652,-28.62997 3.158947,-39.99624 2.783295,-11.36627 8.16188,-19.78314 14.232238,-26.264979 6.070359,-6.48184 12.832008,-11.028184 19.303701,-11.304495 6.471694,-0.276312 12.652803,3.717098 18.304617,3.724624 5.65181,0.0075 10.77427,-3.970525 15.25657,-7.303582 4.48229,-3.333057 8.32414,-6.020923 12.26854,-9.1159 3.94441,-3.094978 7.99115,-6.596887 10.9538,-6.788689 2.96266,-0.191802 4.84089,2.926129 7.20589,5.621716 2.365,2.695586 5.2165,4.968757 8.75111,8.017679 3.5346,3.048922 7.7521,6.873383 12.11476,7.449192 4.36267,0.575808 8.87044,-2.096706 11.78171,-6.105492 2.91128,-4.008785 4.22604,-9.353807 5.99352,-11.903571 1.76748,-2.549763 3.98721,-2.304014 7.67551,-0.299461 3.6883,2.004554 8.84492,5.767577 14.11267,7.733497 5.26775,1.965921 10.64634,2.134871 15.1541,0.475993 4.50776,-1.658877 8.14471,-5.145432 13.19902,-10.866934 5.05432,-5.721502 11.52569,-13.677594 17.03248,-22.471002 5.50679,-8.793408 10.04871,-18.423659 13.01127,-24.298743 2.96257,-5.875085 4.34564,-7.994675 5.72877,-10.1143617"
       id="path2557"
       inkscape:path-effect="#path-effect2559"
       inkscape:original-d="m 48.639817,161.79496 c 0.188092,-14.31485 0.37592,-28.62997 0.563483,-42.94536 5.379066,-8.41695 10.757654,-16.83382 16.136085,-25.251136 6.762181,-4.546258 13.52383,-9.092602 20.285347,-13.639299 6.181622,3.993835 12.362731,7.987246 18.543698,11.98047 5.12293,-3.977947 10.24539,-7.955997 15.36769,-11.934393 3.84227,-2.687709 7.68412,-5.375577 11.52579,-8.063762 4.04717,-3.501789 8.09391,-7.003701 12.14048,-10.505948 1.87857,3.118321 3.75681,6.23625 5.63482,9.353979 2.85188,2.273525 5.70339,4.546692 8.55468,6.81964 4.21793,3.824878 8.43543,7.649337 12.65274,11.473609 4.50821,-2.672355 9.01598,-5.344869 13.52358,-8.017703 1.31508,-5.344972 2.62984,-10.689995 3.94437,-16.035388 2.22009,0.246023 4.43982,0.491771 6.65934,0.737262 5.15708,3.763433 10.3137,7.526453 15.47015,11.289284 5.37907,0.169222 10.75766,0.338171 16.13609,0.506859 3.63736,-3.486428 7.27431,-6.972982 10.91106,-10.459868 6.47191,-7.956153 12.94328,-15.91225 19.41453,-23.868771 4.54236,-9.630378 9.08426,-19.260635 13.62602,-28.89135 1.38337,-2.119402 2.76645,-4.238984 4.14927,-6.3588737" />
    <path
       style="fill:#000000;stroke:#1757e9;stroke-width:0.946999;stroke-linejoin:round;stroke-miterlimit:4.4;stroke-dasharray:none;stroke-dashoffset:0;stroke-opacity:1"
       id="path2636"
       d="m 58.706223,151.09662 c -1.977231,4.74942 -3.656256,9.60992 -5.045326,14.56176 -0.513067,2.26071 -0.371904,1.2795 -0.541751,2.92418 -0.0035,0.0118 0.16333,0.0611 0.166817,0.0493 v 0 c 0.453301,-1.5432 0.17597,-0.61121 0.842402,-2.79287 1.545534,-4.90421 3.185128,-9.77904 4.667806,-14.70272 0.0028,-0.006 -0.08714,-0.046 -0.08995,-0.0397 z" />
    <path
       style="fill:#000000;stroke:#1757e9;stroke-width:0.946999;stroke-linejoin:round;stroke-miterlimit:4.4;stroke-dasharray:none;stroke-dashoffset:0;stroke-opacity:1"
       id="path2638"
       d="m 57.729611,152.60834 c 2.737634,-1.29645 5.593861,-2.28736 8.547838,-2.94998 0.447818,0.002 0.904346,-0.0828 1.343454,0.005 2.111994,0.42282 1.382506,2.99884 0.711526,4.2785 -0.337045,0.64279 -0.794176,1.21508 -1.191266,1.82262 -0.559154,0.6022 -1.06309,1.26084 -1.677463,1.80659 -2.350792,2.0882 -6.002536,4.1424 -9.166752,4.57627 -0.449511,0.0616 -0.90711,-0.0243 -1.360667,-0.0364 -0.242676,-0.10396 -0.485354,-0.20791 -0.72803,-0.31187 -0.01066,-0.003 -0.05582,0.14746 -0.04517,0.15065 v 0 c 0.270566,0.17402 0.541131,0.34804 0.811697,0.52205 0.478724,0.009 0.960315,0.0813 1.436171,0.0282 3.454067,-0.38592 6.871235,-2.28534 9.382191,-4.6251 0.615522,-0.57356 1.117362,-1.25811 1.676043,-1.88716 0.835946,-1.37908 1.461728,-2.08352 1.734555,-3.67319 0.218544,-1.27336 -0.240305,-2.58093 -1.609775,-2.89676 -0.457332,-0.10548 -0.938112,-0.0324 -1.407168,-0.0487 -2.970143,0.61327 -5.906674,1.60453 -8.553886,3.10012 -0.0098,0.007 0.08687,0.14585 0.0967,0.13902 z" />
    <path
       style="fill:#000000;stroke:#1757e9;stroke-width:0.946999;stroke-linejoin:round;stroke-miterlimit:4.4;stroke-dasharray:none;stroke-dashoffset:0;stroke-opacity:1"
       id="path2640"
       d="m 80.677614,148.81605 c -3.403674,1.71621 -5.726316,4.81565 -7.817368,7.89261 -0.964343,1.91226 -2.464028,4.1042 -1.855804,6.39431 0.125243,0.47156 0.500359,0.83777 0.750536,1.25665 0.0056,0.0168 0.243163,-0.0628 0.237532,-0.0796 v 0 c -0.22357,-0.38107 -0.568174,-0.71347 -0.670711,-1.14321 -0.525174,-2.20105 1.043745,-4.31224 1.934917,-6.14382 2.039887,-3.07944 4.246782,-6.15121 7.457075,-8.11227 0.0046,-0.003 -0.0316,-0.0672 -0.03618,-0.0647 z" />
    <path
       style="fill:#000000;stroke:#1757e9;stroke-width:0.946999;stroke-linejoin:round;stroke-miterlimit:4.4;stroke-dasharray:none;stroke-dashoffset:0;stroke-opacity:1"
       id="path2642"
       d="m 89.816923,153.15667 c -2.945082,2.73171 -5.459754,5.89069 -8.076329,8.92966 -0.814314,0.91466 -1.561431,1.88432 -2.334649,2.83281 -0.0051,0.005 0.06684,0.0776 0.07196,0.0725 v 0 c 0.960196,-0.77163 1.725969,-1.73864 2.574451,-2.62721 2.659703,-3.0062 5.186529,-6.12302 7.814577,-9.15576 0.0037,-0.004 -0.04633,-0.0556 -0.05001,-0.052 z" />
    <path
       style="fill:#000000;stroke:#1757e9;stroke-width:0.946999;stroke-linejoin:round;stroke-miterlimit:4.4;stroke-dasharray:none;stroke-dashoffset:0;stroke-opacity:1"
       id="path2644"
       d="m 83.708197,155.17316 c 0.795229,0.87178 1.241131,1.96094 1.829085,2.96152 0.280363,0.47712 0.61649,0.91956 0.905963,1.3912 0.445944,0.72659 0.960231,1.68848 1.375489,2.44941 0.491826,0.95901 0.287401,0.5356 0.62706,1.26348 0.0011,0.006 0.08889,-0.01 0.08777,-0.0159 v 0 c -0.226187,-0.76579 -0.07574,-0.32378 -0.495916,-1.31 -1.188268,-2.39638 -2.421842,-4.80985 -4.27083,-6.7738 -0.0024,-0.004 -0.06103,0.0299 -0.05863,0.034 z" />
    <path
       style="fill:#000000;stroke:#1757e9;stroke-width:0.946999;stroke-linejoin:round;stroke-miterlimit:4.4;stroke-dasharray:none;stroke-dashoffset:0;stroke-opacity:1"
       id="path2646"
       d="m 93.356617,150.26966 c 1.935093,2.81334 3.308596,6.2189 3.479741,9.66074 0.04608,0.92656 -0.0798,1.85369 -0.119694,2.78054 -0.438145,2.47052 -1.45967,4.63252 -3.222104,6.4295 -0.372663,0.37996 -0.828461,0.66832 -1.24269,1.00248 -0.01624,0.0129 0.166196,0.2427 0.182446,0.2298 v 0 c 0.453118,-0.32418 0.954321,-0.58997 1.359355,-0.97254 1.898812,-1.79348 2.939018,-4.06817 3.423664,-6.60755 0.04092,-0.95403 0.176059,-1.90867 0.122748,-2.86208 -0.196538,-3.515 -1.665759,-7.07566 -3.936717,-9.74293 -0.0058,-0.003 -0.05255,0.0787 -0.04675,0.082 z" />
    <path
       style="fill:#000000;stroke:#f31c1c;stroke-width:0.946999;stroke-linejoin:round;stroke-miterlimit:4.4;stroke-dasharray:none;stroke-dashoffset:0;stroke-opacity:0.368627"
       id="path4911"
       d="m 51.749965,28.809627 c 3.43549,-1.287561 6.747848,-3.173076 9.420021,-5.713917 0.565359,-0.537572 1.048803,-1.155193 1.573202,-1.73279 0.323111,-0.549491 0.733549,-1.056235 0.969332,-1.648474 0.768782,-1.931015 -0.0093,-4.00661 -1.978898,-4.770514 -0.408707,-0.158514 -0.861787,-0.16124 -1.29268,-0.24186 -0.463719,0.105351 -0.95528,0.125937 -1.39116,0.316052 -3.565663,1.555217 -5.032642,6.917528 -6.150401,10.195237 -0.944333,3.192853 -1.640316,6.454163 -2.145932,9.743841 -0.233164,1.517036 -0.491228,3.07726 -0.325909,4.613336 0.45199,-0.02582 0.790959,-1.266672 0.906746,-1.534795 0.0056,-0.0118 -0.161523,-0.0905 -0.167085,-0.07868 v 0 c -0.0697,0.196405 -0.412104,1.376852 -0.616788,1.628513 0.503359,-4.783421 1.774716,-9.483932 2.903548,-14.143152 1.002882,-3.189307 2.257525,-8.590538 5.674323,-10.188089 0.406056,-0.189855 0.870394,-0.214758 1.305591,-0.322136 0.408776,0.07751 0.835316,0.09034 1.226325,0.232527 1.829187,0.665164 2.538704,2.605526 1.771844,4.362892 -0.245338,0.562226 -0.661046,1.033523 -0.991571,1.550284 -0.526865,0.551852 -1.019943,1.138066 -1.580595,1.655556 -2.685513,2.478769 -5.893204,4.368648 -9.150667,5.983865 -0.0065,0.0029 0.03423,0.09518 0.04075,0.0923 z" />
    <path
       style="fill:#000000;stroke:#f31c1c;stroke-width:0.946999;stroke-linejoin:round;stroke-miterlimit:4.4;stroke-dasharray:none;stroke-dashoffset:0;stroke-opacity:0.368627"
       id="path4913"
       d="m 46.775891,32.965649 c 2.930339,0.563676 5.878332,0.938355 8.838808,1.302104 0.02805,-7.93e-4 0.01799,-0.397322 -0.01005,-0.39661 v 0 c -2.944747,-0.344792 -5.859169,-0.877411 -8.830376,-0.985218 -0.0056,1.16e-4 -0.004,0.07984 0.0016,0.07972 z" />
    <path
       style="fill:#000000;stroke:#ea4141;stroke-width:0.946999;stroke-linejoin:round;stroke-miterlimit:4.4;stroke-dasharray:none;stroke-dashoffset:0;stroke-opacity:0.435294"
       id="path4915"
       d="m 71.000003,24.522592 c -3.295595,2.001625 -5.825747,5.144576 -7.790492,8.414823 -0.615964,1.025253 -1.117331,2.115135 -1.675996,3.172704 -0.590359,1.623086 -1.423826,3.252483 -1.309841,5.05139 0.0298,0.470278 0.330431,0.882618 0.495647,1.323927 0.0024,0.01667 0.238363,-0.01863 0.235868,-0.0353 v 0 c -0.118621,-0.397013 -0.35969,-0.776703 -0.355862,-1.191041 0.01535,-1.660924 0.900965,-3.361092 1.484556,-4.822608 2.329905,-4.376057 4.878546,-8.853722 8.947481,-11.858473 0.0039,-0.0022 -0.02744,-0.05764 -0.03136,-0.05542 z" />
    <path
       style="fill:#000000;stroke:#f31c1c;stroke-width:0.946999;stroke-linejoin:round;stroke-miterlimit:4.4;stroke-dasharray:none;stroke-dashoffset:0;stroke-opacity:0.368627"
       id="path4917"
       d="m 76.77986,29.710885 c -2.972044,2.173806 -5.514374,4.887066 -7.971142,7.613266 -0.284527,0.610637 -1.882195,1.887834 -1.979935,2.671509 -0.0073,0.05824 0.112908,0.03214 0.169362,0.0482 0.0016,-9.7e-5 2.65e-4,-0.02392 -0.0013,-0.02381 v 0 c -0.247808,0.06987 -0.136895,0.05803 0.216916,-0.348726 0.676334,-0.777526 1.151118,-1.282351 1.881876,-2.079892 2.506509,-2.672186 5.0083,-5.364917 7.718573,-7.832556 0.0034,-0.0024 -0.03087,-0.05042 -0.03427,-0.048 z" />
    <path
       style="fill:#000000;stroke:#f31c1c;stroke-width:0.946999;stroke-linejoin:round;stroke-miterlimit:4.4;stroke-dasharray:none;stroke-dashoffset:0;stroke-opacity:0.368627"
       id="path4919"
       d="m 67.895091,30.497063 c 1.104696,1.782974 2.136746,3.623058 3.386854,5.311896 0.885963,1.196896 1.80679,2.193277 2.788463,3.303635 0.85794,0.936969 1.774658,1.759202 2.888998,2.360309 0.0085,0.003 0.05175,-0.117322 0.04324,-0.120381 v 0 c -0.963978,-0.697243 -1.809671,-1.522748 -2.606167,-2.407962 -2.311543,-2.699769 -4.389832,-5.576594 -6.442009,-8.475641 -0.0021,-0.0042 -0.06137,0.02395 -0.05938,0.02814 z" />
    <path
       style="fill:#000000;stroke:#f31c1c;stroke-width:0.946999;stroke-linejoin:round;stroke-miterlimit:4.4;stroke-dasharray:none;stroke-dashoffset:0;stroke-opacity:0.85098"
       id="path4921"
       d="m 79.154643,28.077265 c 2.203771,2.534709 3.411027,5.87174 3.517789,9.223613 0.03041,0.954731 -0.09824,1.9079 -0.147362,2.86185 -0.435906,2.418554 -1.245915,4.744567 -3.029088,6.513534 -0.434218,0.430763 -1.411851,1.210476 -2.185376,1.077404 -0.218808,-0.03764 -0.334608,-0.291915 -0.501912,-0.437869 -0.0056,-0.272823 -0.01122,-0.545648 -0.0168,-0.81847 7.94e-4,-0.01122 -0.157853,-0.02106 -0.158549,-0.0098 v 0 c 0.03901,0.315005 0.07801,0.63001 0.11701,0.945015 0.202538,0.166555 0.351229,0.444617 0.60761,0.499666 0.853032,0.18316 1.88799,-0.522486 2.424554,-1.010992 1.932046,-1.758989 2.78933,-4.170547 3.257008,-6.671849 0.04554,-0.979737 0.179554,-1.959351 0.136633,-2.939206 -0.150455,-3.434628 -1.465268,-6.935983 -3.98182,-9.318649 -0.0061,-0.0028 -0.04575,0.083 -0.03969,0.0858 z" />
    <path
       style="fill:#000000;stroke:#000000;stroke-width:0.946999;stroke-linejoin:round;stroke-miterlimit:4.4;stroke-dasharray:none;stroke-dashoffset:0;stroke-opacity:1"
       id="path5337"
       d="m 125.02933,116.26942 c -2.49342,-0.44139 -5.10812,0.0337 -7.18593,1.53164 -0.42846,0.30889 -0.78908,0.70236 -1.18363,1.05354 -1.00417,1.13767 -2.43672,4.66168 0.0795,5.17862 0.52142,0.10712 1.06393,-0.0382 1.59589,-0.0572 4.09785,-1.10844 6.90557,-3.74385 9.12507,-7.2437 0.19348,-0.0115 1.62081,-3.33054 0.2403,-2.68028 -0.89208,1.02254 -1.59863,2.21552 -2.28521,3.38311 -0.54961,1.24807 -2.37901,4.30511 -1.36849,5.66775 0.14869,0.2005 0.41208,0.28184 0.61812,0.42277 0.30413,0.0144 0.60826,0.0289 0.91239,0.0433 0.0111,-10e-4 -0.005,-0.15887 -0.0166,-0.1577 v 0 c -0.28417,-2.1e-4 -0.56833,-5.3e-4 -0.85249,-5.3e-4 -0.17573,-0.10841 -0.40694,-0.15739 -0.52719,-0.32524 -0.90042,-1.25694 0.96989,-4.35227 1.43327,-5.5263 0.63913,-1.18184 1.25851,-2.42358 2.10773,-3.46919 1.23323,-0.66326 -0.39997,2.45259 -0.49115,2.48062 -2.27063,3.32869 -5.01766,5.8993 -8.94602,7.13226 -0.82942,0.0834 -1.67967,0.43881 -2.35445,-0.2875 -1.05018,-1.13039 0.17217,-3.4363 0.9168,-4.3523 0.38581,-0.33666 0.74055,-0.71264 1.15742,-1.00999 2.04264,-1.45698 4.54874,-1.88551 7.00656,-1.69636 0.006,0.001 0.0243,-0.0859 0.0181,-0.0872 z" />
    <path
       style="fill:#000000;stroke:#000000;stroke-width:0.946999;stroke-linejoin:round;stroke-miterlimit:4.4;stroke-dasharray:none;stroke-dashoffset:0;stroke-opacity:1"
       id="path5339"
       d="m 189.08007,116.98526 c -2.44788,1.20999 -3.66199,3.90623 -4.82834,6.22738 -0.46848,1.08677 -1.01362,2.16679 -1.2938,3.32522 -0.029,0.11993 -0.15709,0.32048 -0.0431,0.36767 0.11918,0.0493 0.42365,-0.45421 0.6492,-0.78719 0.004,-0.007 -0.0891,-0.0701 -0.0936,-0.0634 v 0 c -0.10445,0.18114 -0.21005,0.36161 -0.31334,0.54341 -0.0615,0.10826 -0.0567,0.33369 -0.18105,0.32675 -0.11615,-0.006 0.0699,-0.22208 0.11174,-0.33062 0.42381,-1.0993 0.93945,-2.16077 1.43436,-3.22875 1.14962,-2.31211 2.29253,-4.92246 4.57944,-6.325 0.004,-0.002 -0.0176,-0.057 -0.0215,-0.0554 z" />
    <path
       style="fill:#000000;stroke:#000000;stroke-width:0.946999;stroke-linejoin:round;stroke-miterlimit:4.4;stroke-dasharray:none;stroke-dashoffset:0;stroke-opacity:1"
       id="path5341"
       d="m 184.91799,123.36946 c 1.10837,-1.60653 2.35482,-2.53806 4.26614,-2.95971 2.34783,0.0348 2.27138,1.82793 1.99003,3.6585 -0.96653,2.5761 -2.12051,3.10957 -4.66628,3.8966 -1.41742,0.29155 -2.95784,0.42796 -4.17109,-0.4802 -0.006,-0.003 -0.0473,0.0862 -0.041,0.0891 v 0 c 1.2284,0.99696 2.81131,0.89894 4.2927,0.59414 1.60104,-0.49652 3.92521,-1.34447 4.57227,-3.08506 0.11473,-0.30863 0.12481,-0.64659 0.18722,-0.96988 0.29123,-1.95494 0.24351,-3.81162 -2.2124,-3.85769 -1.8603,0.39391 -3.34224,1.37116 -4.51259,2.87956 -0.0166,0.0209 0.2784,0.25548 0.29499,0.23462 z" />
  </g>
</svg>
