<?xml version="1.0" encoding="UTF-8" standalone="no"?>
<!-- Created with Inkscape (http://www.inkscape.org/) -->

<svg
   width="297mm"
   height="210mm"
   viewBox="0 0 297 210"
   version="1.1"
   id="svg9764"
   inkscape:version="1.2.2 (1:1.2.2+202212051550+b0a8486541)"
   sodipodi:docname="approx_delta.svg"
   xmlns:inkscape="http://www.inkscape.org/namespaces/inkscape"
   xmlns:sodipodi="http://sodipodi.sourceforge.net/DTD/sodipodi-0.dtd"
   xmlns="http://www.w3.org/2000/svg"
   xmlns:svg="http://www.w3.org/2000/svg">
  <sodipodi:namedview
     id="namedview9766"
     pagecolor="#ffffff"
     bordercolor="#666666"
     borderopacity="1.0"
     inkscape:showpageshadow="2"
     inkscape:pageopacity="0.0"
     inkscape:pagecheckerboard="0"
     inkscape:deskcolor="#d1d1d1"
     inkscape:document-units="mm"
     showgrid="true"
     inkscape:zoom="0.67780272"
     inkscape:cx="525.96425"
     inkscape:cy="374.00263"
     inkscape:window-width="1294"
     inkscape:window-height="704"
     inkscape:window-x="72"
     inkscape:window-y="27"
     inkscape:window-maximized="1"
     inkscape:current-layer="layer1">
    <inkscape:grid
       type="xygrid"
       id="grid10260" />
  </sodipodi:namedview>
  <defs
     id="defs9761">
    <inkscape:path-effect
       effect="bspline"
       id="path-effect11160"
       is_visible="true"
       lpeversion="1"
       weight="33.333333"
       steps="2"
       helper_size="0"
       apply_no_weight="true"
       apply_with_weight="true"
       only_selected="false" />
    <inkscape:path-effect
       effect="bspline"
       id="path-effect10868"
       is_visible="true"
       lpeversion="1"
       weight="33.333333"
       steps="2"
       helper_size="0"
       apply_no_weight="true"
       apply_with_weight="true"
       only_selected="false" />
    <marker
       style="overflow:visible"
       id="Arrow2"
       refX="0"
       refY="0"
       orient="auto-start-reverse"
       inkscape:stockid="Arrow2"
       markerWidth="7.6999998"
       markerHeight="5.5999999"
       viewBox="0 0 7.7 5.6"
       inkscape:isstock="true"
       inkscape:collect="always"
       preserveAspectRatio="xMidYMid">
      <path
         transform="scale(0.7)"
         d="M -2,-4 9,0 -2,4 c 2,-2.33 2,-5.66 0,-8 z"
         style="fill:context-stroke;fill-rule:evenodd;stroke:none"
         id="arrow2L" />
    </marker>
    <inkscape:path-effect
       effect="bspline"
       id="path-effect10264"
       is_visible="true"
       lpeversion="1"
       weight="33.333333"
       steps="2"
       helper_size="0"
       apply_no_weight="true"
       apply_with_weight="true"
       only_selected="false" />
    <marker
       style="overflow:visible"
       id="Arrow2-7"
       refX="0"
       refY="0"
       orient="auto-start-reverse"
       inkscape:stockid="Arrow2"
       markerWidth="7.6999998"
       markerHeight="5.5999999"
       viewBox="0 0 7.7 5.6"
       inkscape:isstock="true"
       inkscape:collect="always"
       preserveAspectRatio="xMidYMid">
      <path
         transform="scale(0.7)"
         d="M -2,-4 9,0 -2,4 c 2,-2.33 2,-5.66 0,-8 z"
         style="fill:context-stroke;fill-rule:evenodd;stroke:none"
         id="arrow2L-9" />
    </marker>
    <inkscape:path-effect
       effect="bspline"
       id="path-effect10264-2"
       is_visible="true"
       lpeversion="1"
       weight="33.333333"
       steps="2"
       helper_size="0"
       apply_no_weight="true"
       apply_with_weight="true"
       only_selected="false" />
    <inkscape:path-effect
       effect="bspline"
       id="path-effect10264-2-8"
       is_visible="true"
       lpeversion="1"
       weight="33.333333"
       steps="2"
       helper_size="0"
       apply_no_weight="true"
       apply_with_weight="true"
       only_selected="false" />
    <inkscape:path-effect
       effect="bspline"
       id="path-effect10264-2-8-7"
       is_visible="true"
       lpeversion="1"
       weight="33.333333"
       steps="2"
       helper_size="0"
       apply_no_weight="true"
       apply_with_weight="true"
       only_selected="false" />
    <inkscape:path-effect
       effect="bspline"
       id="path-effect10264-2-8-6"
       is_visible="true"
       lpeversion="1"
       weight="33.333333"
       steps="2"
       helper_size="0"
       apply_no_weight="true"
       apply_with_weight="true"
       only_selected="false" />
    <inkscape:path-effect
       effect="bspline"
       id="path-effect10264-2-8-2"
       is_visible="true"
       lpeversion="1"
       weight="33.333333"
       steps="2"
       helper_size="0"
       apply_no_weight="true"
       apply_with_weight="true"
       only_selected="false" />
    <inkscape:path-effect
       effect="bspline"
       id="path-effect10264-2-8-3"
       is_visible="true"
       lpeversion="1"
       weight="33.333333"
       steps="2"
       helper_size="0"
       apply_no_weight="true"
       apply_with_weight="true"
       only_selected="false" />
    <inkscape:path-effect
       effect="bspline"
       id="path-effect10264-2-8-4"
       is_visible="true"
       lpeversion="1"
       weight="33.333333"
       steps="2"
       helper_size="0"
       apply_no_weight="true"
       apply_with_weight="true"
       only_selected="false" />
  </defs>
  <g
     inkscape:label="Layer 1"
     inkscape:groupmode="layer"
     id="layer1">
    <path
       style="font-variation-settings:normal;fill:none;fill-opacity:1;stroke:#000000;stroke-width:1.106;stroke-linecap:butt;stroke-linejoin:miter;stroke-miterlimit:4;stroke-dasharray:3.318, 1.106;stroke-dashoffset:0;stroke-opacity:1;stop-color:#000000"
       d="M 29.538483,179.81856 C 29.342846,128.12146 29.147209,76.424528 28.951573,24.727753"
       id="path10262-0-9"
       inkscape:path-effect="#path-effect10264-2-8"
       inkscape:original-d="M 29.538483,179.81856 C 29.343333,128.12146 29.147693,76.424526 28.951573,24.727753" />
    <rect
       style="fill:#ffffff;stroke:none;stroke-width:1.106;stroke-linejoin:round;stroke-miterlimit:4.4;stroke-dasharray:none;stroke-dashoffset:0;stroke-opacity:1"
       id="rect12071"
       width="34.592014"
       height="28.998497"
       x="14.366643"
       y="140.633"
       rx="1.9430933"
       ry="2.505079" />
    <path
       style="font-variation-settings:normal;opacity:1;vector-effect:none;fill:none;fill-opacity:1;stroke:#000000;stroke-width:1.365;stroke-linecap:butt;stroke-linejoin:miter;stroke-miterlimit:4;stroke-dasharray:none;stroke-dashoffset:0;stroke-opacity:1;-inkscape-stroke:none;stop-color:#000000;stop-opacity:1;marker-end:url(#Arrow2)"
       d="m 15.268916,105.91067 c 88.654814,-0.10752 177.309364,-0.21503 265.963634,-0.32255"
       id="path10262"
       inkscape:path-effect="#path-effect10264"
       inkscape:original-d="M 15.268916,105.91067 C 103.92373,105.80342 192.57828,105.6959 281.23255,105.58812" />
    <path
       style="font-variation-settings:normal;vector-effect:none;fill:none;fill-opacity:1;stroke:#000000;stroke-width:1.40605;stroke-linecap:butt;stroke-linejoin:miter;stroke-miterlimit:4;stroke-dasharray:none;stroke-dashoffset:0;stroke-opacity:1;-inkscape-stroke:none;marker-end:url(#Arrow2-7);stop-color:#000000"
       d="M 153.11448,180.32195 C 152.91884,128.62485 152.72321,76.927922 152.52757,25.231147"
       id="path10262-0"
       inkscape:path-effect="#path-effect10264-2"
       inkscape:original-d="M 153.11448,180.32195 C 152.91933,128.62485 152.72369,76.92792 152.52757,25.231147" />
    <path
       style="font-variation-settings:normal;fill:none;fill-opacity:1;stroke:#000000;stroke-width:1.106;stroke-linecap:butt;stroke-linejoin:miter;stroke-miterlimit:4;stroke-dasharray:3.318, 1.106;stroke-dashoffset:0;stroke-opacity:1;stop-color:#000000"
       d="M 81.068696,179.62774 C 80.873059,127.93064 80.677422,76.233715 80.481786,24.53694"
       id="path10262-0-9-3"
       inkscape:path-effect="#path-effect10264-2-8-7"
       inkscape:original-d="m 81.068696,179.62774 c -0.19515,-51.6971 -0.39079,-103.394027 -0.58691,-155.0908" />
    <path
       style="font-variation-settings:normal;fill:none;fill-opacity:1;stroke:#000000;stroke-width:1.106;stroke-linecap:butt;stroke-linejoin:miter;stroke-miterlimit:4;stroke-dasharray:3.318, 1.106;stroke-dashoffset:0;stroke-opacity:1;stop-color:#000000"
       d="M 109.75377,180.96822 C 109.55813,129.27112 109.3625,77.57419 109.16686,25.877415"
       id="path10262-0-9-1"
       inkscape:path-effect="#path-effect10264-2-8-6"
       inkscape:original-d="M 109.75377,180.96822 C 109.55862,129.27112 109.36298,77.574188 109.16686,25.877415" />
    <path
       style="font-variation-settings:normal;fill:none;fill-opacity:1;stroke:#000000;stroke-width:1.106;stroke-linecap:butt;stroke-linejoin:miter;stroke-miterlimit:4;stroke-dasharray:3.318, 1.106;stroke-dashoffset:0;stroke-opacity:1;stop-color:#000000"
       d="M 188.86993,180.83992 C 188.67429,129.14282 188.47866,77.44589 188.28302,25.749115"
       id="path10262-0-9-9"
       inkscape:path-effect="#path-effect10264-2-8-2"
       inkscape:original-d="M 188.86993,180.83992 C 188.67478,129.14282 188.47914,77.445888 188.28302,25.749115" />
    <path
       style="font-variation-settings:normal;fill:none;fill-opacity:1;stroke:#000000;stroke-width:1.106;stroke-linecap:butt;stroke-linejoin:miter;stroke-miterlimit:4;stroke-dasharray:3.318, 1.106;stroke-dashoffset:0;stroke-opacity:1;stop-color:#000000"
       d="M 215.5314,180.61491 C 215.33576,128.91781 215.14013,77.220872 214.94449,25.524097"
       id="path10262-0-9-19"
       inkscape:path-effect="#path-effect10264-2-8-3"
       inkscape:original-d="M 215.5314,180.61491 C 215.33625,128.91781 215.14061,77.22087 214.94449,25.524097" />
    <path
       style="font-variation-settings:normal;fill:none;fill-opacity:1;stroke:#000000;stroke-width:1.106;stroke-linecap:butt;stroke-linejoin:miter;stroke-miterlimit:4;stroke-dasharray:3.318, 1.106;stroke-dashoffset:0;stroke-opacity:1;stop-color:#000000"
       d="M 264.94536,180.32878 C 264.74972,128.63168 264.55409,76.934741 264.35845,25.237966"
       id="path10262-0-9-7"
       inkscape:path-effect="#path-effect10264-2-8-4"
       inkscape:original-d="M 264.94536,180.32878 C 264.75021,128.63168 264.55457,76.934739 264.35845,25.237966" />
    <circle
       style="fill:#000000;fill-rule:evenodd;stroke-width:0.264583"
       id="path10735"
       cx="108.16139"
       cy="104.55582"
       r="4.072824" />
    <circle
       style="fill:#000000;fill-rule:evenodd;stroke-width:0.264583"
       id="path10735-7"
       cx="188.27536"
       cy="104.57351"
       r="4.072824" />
    <circle
       style="fill:#000000;fill-rule:evenodd;stroke-width:0.264583"
       id="path10735-5"
       cx="214.01553"
       cy="105.03221"
       r="4.072824" />
    <circle
       style="fill:#000000;fill-rule:evenodd;stroke-width:0.264583"
       id="path10735-9"
       cx="264.32022"
       cy="105.06734"
       r="4.072824" />
    <circle
       style="fill:#000000;fill-rule:evenodd;stroke-width:0.264583"
       id="path10735-2"
       cx="80.385574"
       cy="104.63675"
       r="4.072824" />
    <circle
       style="fill:#000000;fill-rule:evenodd;stroke-width:0.264583"
       id="path10735-3"
       cx="28.657284"
       cy="105.16763"
       r="4.072824" />
    <path
       style="fill:#000000;stroke:#000000;stroke-width:0.865;stroke-linejoin:round;stroke-miterlimit:4.4"
       id="path10830"
       d="m 26.273595,120.09761 c 1.617568,-0.0729 3.223011,-0.30718 4.81308,-0.60444 0.0388,0.048 0.703052,-0.15394 0.24871,0.0314 -0.0023,0.002 0.01924,0.0339 0.02153,0.0324 v 0 c 0.31081,-0.26199 -0.08575,-0.13763 -0.297423,-0.17347 -1.607797,0.15287 -3.204936,0.40426 -4.802752,0.63586 -0.0055,10e-4 0.01132,0.0794 0.01685,0.0783 z" />
    <path
       style="fill:#000000;stroke:#000000;stroke-width:0.865;stroke-linejoin:round;stroke-miterlimit:4.4"
       id="path10832"
       d="m 36.142143,114.20897 c -0.469607,2.5118 -1.127874,4.98163 -1.627447,7.48813 -0.126818,0.95301 -0.381452,1.9246 -0.313261,2.89637 0.0063,0.0897 -0.02019,0.28193 0.06735,0.2613 0.123376,-0.0291 0.132649,-0.21604 0.198973,-0.32406 0.0024,-0.005 -0.0672,-0.0383 -0.06956,-0.0334 v 0 c -0.02553,0.1196 -0.01516,0.25306 -0.0766,0.35879 -0.04007,0.069 -0.001,-0.15979 0.0071,-0.23913 0.09675,-0.9522 0.309119,-1.88942 0.484493,-2.82847 0.537887,-2.50442 1.196969,-5.00554 1.39946,-7.56508 0.0011,-0.005 -0.06945,-0.0194 -0.07047,-0.0144 z" />
    <path
       style="fill:#000000;stroke:#000000;stroke-width:0.865;stroke-linejoin:round;stroke-miterlimit:4.4"
       id="path10834"
       d="m 35.543526,120.66381 c 1.116139,-0.53706 2.649725,-1.5399 3.909509,-1.56008 0.208606,-0.003 0.408951,0.0829 0.613426,0.12432 0.141042,0.13084 0.341839,0.21814 0.423122,0.39251 0.536503,1.15092 -0.407768,3.24829 -1.012611,4.19503 -0.225131,0.35239 -0.507198,0.66499 -0.760799,0.99748 -1.2329,1.22259 -2.430832,2.01709 -4.092432,1.13222 -0.0852,-0.0844 -0.170406,-0.16888 -0.255609,-0.25332 -0.0029,-0.005 -0.0748,0.0363 -0.07188,0.0414 v 0 c 0.09871,0.10468 0.197412,0.20936 0.296119,0.31403 1.694352,0.96735 3.03298,0.17876 4.332182,-1.06719 0.264006,-0.34123 0.560483,-0.65964 0.79202,-1.02369 0.698362,-1.09804 1.540644,-3.16788 0.832731,-4.44782 -0.10213,-0.18465 -0.317249,-0.27831 -0.475875,-0.41747 -0.221718,-0.0495 -0.438007,-0.14534 -0.665157,-0.14843 -1.436306,-0.0195 -2.710754,1.02297 -3.952827,1.58752 -0.0094,0.006 0.07864,0.13973 0.08808,0.13351 z" />
    <path
       style="fill:#000000;stroke:#000000;stroke-width:0.865;stroke-linejoin:round;stroke-miterlimit:4.4"
       id="path10838"
       d="m 96.804861,122.71723 c 1.60253,-0.30654 3.195909,-0.65593 4.789559,-1.00483 0.45105,-0.10377 0.26,-0.0734 0.5692,-0.11303 0.003,-2.6e-4 -0.002,-0.0387 -0.005,-0.0383 v 0 c -0.32925,-0.0366 -0.12865,-0.0283 -0.60194,0.0217 -1.610559,0.25784 -3.217469,0.58143 -4.774889,1.07091 -0.005,0.002 0.0185,0.0652 0.023,0.0636 z" />
    <path
       style="fill:#000000;stroke:#000000;stroke-width:0.865;stroke-linejoin:round;stroke-miterlimit:4.4"
       id="path10840"
       d="m 105.47205,117.74438 c -0.73486,1.94286 -1.3478,3.92497 -1.85622,5.93818 -0.14396,0.77417 -0.46336,1.55652 -0.41147,2.35614 -5.3e-4,0.003 0.0454,0.0107 0.0459,0.007 v 0 c 0.12334,-0.777 0.40609,-1.52199 0.58014,-2.28748 0.54394,-2.00436 1.20298,-3.97694 1.69537,-5.99419 0.001,-0.004 -0.0523,-0.0239 -0.0537,-0.0201 z" />
    <path
       style="fill:#000000;stroke:#000000;stroke-width:0.865;stroke-linejoin:round;stroke-miterlimit:4.4"
       id="path10842"
       d="m 194.82092,117.04234 c -0.86926,1.53555 -1.56411,3.16555 -2.18842,4.81379 -0.11591,0.34981 -0.66326,1.78105 -0.3208,1.36786 0.001,-0.002 -0.0221,-0.0166 -0.0232,-0.015 v 0 c -0.1857,0.48944 0.4866,-1.2952 0.51884,-1.27053 0.66405,-1.63141 1.34808,-3.25487 2.0719,-4.86077 0.002,-0.004 -0.0558,-0.0395 -0.0583,-0.0353 z" />
    <path
       style="fill:#000000;stroke:#000000;stroke-width:0.865;stroke-linejoin:round;stroke-miterlimit:4.4"
       id="path10844"
       d="m 220.64953,116.47705 c -0.85602,1.90086 -1.71209,3.8017 -2.57976,5.69728 -0.24963,0.56386 -0.52088,1.11825 -0.76776,1.68337 -0.019,0.0434 -0.0777,0.17202 -0.0524,0.13197 0.14267,-0.22635 0.21544,-0.45754 0.31326,-0.70775 0.003,-0.006 -0.0855,-0.0448 -0.0882,-0.0385 v 0 c -0.0202,0.0631 -0.2219,0.63135 -0.20052,0.76271 0.008,0.0474 0.0682,-0.0685 0.0954,-0.10812 0.071,-0.10319 0.1352,-0.21099 0.19854,-0.31906 0.31579,-0.53885 0.38512,-0.69616 0.69659,-1.299 0.91622,-1.87923 1.79899,-3.78583 2.45339,-5.7742 0.002,-0.005 -0.0665,-0.0335 -0.0685,-0.0287 z" />
    <path
       style="fill:#000000;stroke:#000000;stroke-width:0.865;stroke-linejoin:round;stroke-miterlimit:4.4"
       id="path10846"
       d="m 221.78923,120.47975 c 1.89542,0.24108 3.81528,0.17976 5.71745,0.0617 0.21101,-0.0213 0.42202,-0.0427 0.63303,-0.0641 0.009,-0.002 -0.0138,-0.13327 -0.0231,-0.13163 v 0 c -0.21337,0.003 -0.42674,0.006 -0.64011,0.009 -1.89612,0.0387 -3.79287,0.0817 -5.68942,0.0686 -0.004,1.6e-4 -0.002,0.0566 0.002,0.0564 z" />
    <path
       style="fill:#000000;stroke:#000000;stroke-width:0.865;stroke-linejoin:round;stroke-miterlimit:4.4"
       id="path10848"
       d="m 226.90234,117.36672 c -0.31069,0.91445 -0.771,1.75579 -1.17451,2.62752 -0.40501,0.87495 -0.70517,1.78115 -1.13502,2.64547 -0.14574,0.33368 -0.37014,0.62832 -0.48933,0.97327 -10e-4,0.002 0.0224,0.0162 0.0234,0.0146 v 0 c 0.23461,-0.27826 0.41962,-0.59334 0.60709,-0.90411 0.47255,-0.83699 1.03386,-1.64278 1.37926,-2.54537 0.34462,-0.90057 0.52913,-1.87289 0.85992,-2.78017 0.002,-0.005 -0.0686,-0.0362 -0.0708,-0.0312 z" />
    <path
       style="fill:#000000;stroke:#000000;stroke-width:0.865;stroke-linejoin:round;stroke-miterlimit:4.4"
       id="path10850"
       d="m 237.01153,116.96594 c -2.03058,-0.22259 -3.90144,0.14083 -5.71476,1.05957 -0.32904,0.21533 -1.48036,1.03713 -0.80214,1.54602 0.33557,0.25178 0.83919,0.29657 1.22118,0.37362 1.82831,0.20188 3.67962,0.23973 5.41438,0.90388 0.1214,0.0949 0.28149,0.1547 0.3642,0.28472 0.49046,0.77099 -2.05332,1.91959 -2.44712,2.10171 -1.16107,0.37572 -3.24948,1.30244 -4.48279,0.95759 -0.16756,-0.0469 -0.30672,-0.16435 -0.46007,-0.24652 -0.87941,-1.36855 0.37317,-2.41583 1.4456,-3.10732 0.25731,-0.11608 0.51462,-0.23216 0.77193,-0.34824 0.0113,-0.006 -0.0725,-0.16516 -0.0837,-0.15924 v 0 c -0.2636,0.12064 -0.52721,0.24129 -0.79082,0.36193 -0.91664,0.61346 -2.15136,1.59997 -1.6753,2.90268 0.0627,0.17167 0.19933,0.30643 0.299,0.45965 0.1658,0.0927 0.31607,0.22144 0.4974,0.27801 1.33741,0.41728 3.34755,-0.47208 4.58546,-0.90576 0.53691,-0.27332 2.94189,-1.42592 2.38555,-2.3856 -0.085,-0.14659 -0.25307,-0.22538 -0.37961,-0.33807 -1.72068,-0.75957 -3.59022,-0.78461 -5.44144,-0.91093 -0.26599,-0.0377 -1.26091,-0.0291 -1.34366,-0.4891 -0.092,-0.51145 0.74727,-0.89771 1.01645,-1.10862 1.76238,-0.82279 3.67709,-1.18172 5.62324,-1.15919 0.005,-2.1e-4 0.002,-0.071 -0.003,-0.0708 z" />
    <path
       style="fill:#000000;stroke:#000000;stroke-width:0.865;stroke-linejoin:round;stroke-miterlimit:4.4"
       id="path10852"
       d="m 273.78127,115.50409 c -0.83968,2.73622 -1.99325,5.36384 -3.08319,8.00679 -0.52003,1.25007 -0.25952,0.63629 -0.64852,1.53898 -0.008,0.0183 -0.0312,0.0733 -0.0234,0.055 0.0483,-0.11348 0.0965,-0.22696 0.1448,-0.34043 0.002,-0.005 -0.0721,-0.033 -0.0741,-0.0277 v 0 c -0.0205,0.12863 -0.081,0.25712 -0.0614,0.38589 0.0844,0.5553 1.20424,-2.32373 0.94394,-1.46917 1.186,-2.61428 2.33095,-5.29638 2.88446,-8.12558 0.003,-0.006 -0.081,-0.0296 -0.0826,-0.0237 z" />
    <path
       style="fill:#000000;stroke:#000000;stroke-width:0.671906;stroke-linejoin:round;stroke-miterlimit:4.4"
       id="path10856"
       d="m 273.54625,120.66435 c 0.62529,-0.75573 1.36475,-1.18629 2.1226,-1.24304 0.0691,0.0455 0.15011,0.0543 0.20728,0.13642 0.38522,0.55339 -0.27591,2.30182 -0.44154,2.75344 -0.64851,1.58305 -1.56525,2.45551 -2.60405,2.99625 -0.55167,0.19901 -1.46453,0.47858 -1.57843,-0.84911 4e-5,-0.005 -0.0418,-0.006 -0.0418,-10e-4 v 0 c 0.10013,1.47653 1.05141,1.22311 1.66075,1.03464 1.05672,-0.5612 2.00126,-1.44335 2.65126,-3.07605 0.19956,-0.58074 0.80524,-2.28766 0.36316,-2.94278 -0.0625,-0.0926 -0.15063,-0.11142 -0.22594,-0.16712 -0.78254,-0.003 -1.50208,0.57534 -2.24135,0.96387 -0.0158,0.016 0.11228,0.4104 0.1281,0.39443 z" />
    <path
       style="fill:#000000;stroke:#000000;stroke-width:0.865;stroke-linejoin:round;stroke-miterlimit:4.4"
       id="path10858"
       d="m 58.161986,120.52277 c 1.199312,0.002 2.408672,-0.21197 3.601345,-0.0276 0.0058,2.1e-4 0.0088,-0.0815 0.003,-0.0817 v 0 c -1.186547,-0.27955 -2.421633,-0.085 -3.616772,0.0503 -0.0042,7.9e-4 0.0083,0.0599 0.01244,0.059 z" />
    <path
       style="fill:#000000;stroke:#000000;stroke-width:0.865;stroke-linejoin:round;stroke-miterlimit:4.4"
       id="path10860"
       d="m 65.346546,117.3462 c -0.740617,1.93136 -1.432918,3.88239 -2.009976,5.86929 -0.0073,0.0776 -0.389028,1.4281 -0.289153,1.42775 0.08365,-2.7e-4 0.106098,-0.12936 0.159147,-0.19403 0.0019,-0.003 -0.04158,-0.0299 -0.04348,-0.0268 v 0 c -0.02612,0.0773 -0.05892,0.15255 -0.07838,0.23174 -0.01447,0.0589 0.04361,-0.11323 0.06336,-0.17058 0.08663,-0.25167 0.338299,-1.02281 0.392171,-1.18697 0.651737,-1.96528 1.333629,-3.92286 1.865693,-5.92507 0.0019,-0.004 -0.05759,-0.0295 -0.05938,-0.0253 z" />
    <path
       style="fill:#000000;stroke:#000000;stroke-width:0.865;stroke-linejoin:round;stroke-miterlimit:4.4"
       id="path10862"
       d="m 67.041564,121.26638 c 1.680755,0.18638 3.375602,0.25176 5.066125,0.23123 0.0093,-10e-4 -0.0042,-0.13274 -0.01349,-0.13178 v 0 c -1.683708,-0.11424 -3.371406,-0.14718 -5.058363,-0.17641 -0.0054,5.3e-4 2.65e-4,0.0774 0.0057,0.077 z" />
    <path
       style="fill:#000000;stroke:#000000;stroke-width:0.865;stroke-linejoin:round;stroke-miterlimit:4.4"
       id="path10864"
       d="m 77.036951,118.37457 c -1.174575,0.0441 -3.134286,0.31882 -3.663212,1.58079 -0.07025,0.1676 -0.02741,0.36242 -0.04112,0.54364 0.105201,0.15773 0.174961,0.34605 0.315606,0.4732 0.623461,0.56366 1.588979,0.74453 2.350992,1.02213 0.876678,0.31938 0.6234,0.21246 1.362982,0.65925 1.151485,1.16003 0.05085,1.97459 -0.98145,2.60725 -0.877491,0.3714 -2.845909,1.28787 -3.73388,0.53752 -0.123446,-0.10431 -0.162666,-0.27932 -0.243996,-0.41898 0.01175,-0.20477 -0.02233,-0.41745 0.03526,-0.61431 0.41914,-1.4329 1.973522,-2.34163 3.125372,-3.10341 0.01582,-0.0113 -0.143743,-0.23508 -0.159567,-0.22379 v 0 c -1.202823,0.80743 -2.740261,1.77446 -3.099142,3.30644 -0.05114,0.2183 -0.006,0.44838 -0.009,0.67258 0.107508,0.16782 0.171428,0.3735 0.322524,0.50347 0.959623,0.82547 2.918521,-0.0881 3.853053,-0.52735 0.746681,-0.49094 1.956744,-1.33484 1.347126,-2.40716 -0.102672,-0.1806 -0.271002,-0.31495 -0.406503,-0.47242 -0.71627,-0.45723 -0.537065,-0.39356 -1.384552,-0.70816 -0.711321,-0.26405 -1.661062,-0.39606 -2.274408,-0.8769 -0.135366,-0.10612 -0.210262,-0.27228 -0.315391,-0.40842 0.01511,-0.15822 -0.02289,-0.33111 0.04536,-0.47466 0.545396,-1.14712 2.46757,-1.42753 3.566035,-1.59065 0.0057,-7.9e-4 -0.0064,-0.0809 -0.01209,-0.0801 z" />
    <path
       style="font-variation-settings:normal;opacity:1;vector-effect:none;fill:none;fill-opacity:1;stroke:#c51818;stroke-width:1.365;stroke-linecap:butt;stroke-linejoin:miter;stroke-miterlimit:4;stroke-dasharray:none;stroke-dashoffset:0;stroke-opacity:1;-inkscape-stroke:none;stop-color:#000000;stop-opacity:1"
       d="m 23.603253,75.426998 c 15.986294,4.485622 31.972273,8.971156 45.809116,9.150249 13.836843,0.179093 25.524246,-3.94795 36.638551,-4.805872 11.1143,-0.857922 21.65469,1.553138 34.37469,-1.949638 12.71999,-3.502776 27.61902,-12.91895 39.08347,-14.04826 11.46445,-1.129311 19.4935,6.02785 36.4697,0.901208 16.9762,-5.126642 42.89857,-22.536251 68.82139,-39.946167"
       id="path10866"
       inkscape:path-effect="#path-effect10868"
       inkscape:original-d="M 23.603253,75.426998 C 39.589498,79.912796 55.575477,84.39833 71.561192,88.8836 83.249324,84.756658 94.936727,80.629613 106.6241,76.502225 c 10.54108,2.41142 21.08147,4.822481 31.62181,7.233327 14.89988,-9.416285 29.79891,-18.832457 44.69797,-28.249083 8.02964,7.157712 16.05869,14.314873 24.08764,21.471916 25.92366,-17.410041 51.84603,-34.819648 77.76865,-52.229867" />
    <path
       style="font-variation-settings:normal;opacity:1;vector-effect:none;fill:none;fill-opacity:1;stroke:#3d36e8;stroke-width:1.365;stroke-linecap:butt;stroke-linejoin:miter;stroke-miterlimit:4;stroke-dasharray:none;stroke-dashoffset:0;stroke-opacity:1;-inkscape-stroke:none;stop-color:#000000;stop-opacity:1"
       d="m 6.4702435,163.44081 c 1.2918966,-14.71623 2.5838147,-29.4327 6.3087275,-39.4846 3.724913,-10.05191 9.882526,-15.43878 17.700659,-18.25718 7.818133,-2.81839 17.296035,-3.06819 25.427953,-3.04102 8.131918,0.0272 14.917372,0.33127 21.78747,-1.11872 6.870098,-1.44999 13.824587,-4.653878 18.485093,-8.210782 4.660504,-3.556904 7.026964,-7.466737 9.936894,-10.426404 2.90994,-2.959667 6.36304,-4.968887 11.37995,-5.843152 5.01691,-0.874264 11.59697,-0.61361 18.5819,-1.172979 6.98492,-0.55937 14.37392,-1.938648 21.15359,-3.442913 6.77968,-1.504266 12.94924,-3.133331 18.85957,-4.963425 5.91032,-1.830094 11.56085,-3.861034 16.49317,-2.470627 4.93232,1.390408 9.14606,6.20167 12.23694,12.663977 3.09088,6.462307 5.05891,14.575207 8.4579,19.196392 3.39899,4.621183 8.2285,5.750693 13.6075,6.233953 5.379,0.48327 11.30722,0.32036 16.23347,0.32581 4.92624,0.005 8.85021,0.17922 14.27149,-0.11405 5.42128,-0.29327 12.33955,-1.05352 17.47692,-5.864891 5.13737,-4.811367 8.49387,-13.673648 10.82418,-23.779742 2.33031,-10.106094 3.63428,-21.455465 4.93831,-32.805294"
       id="path11158"
       inkscape:path-effect="#path-effect11160"
       inkscape:original-d="m 6.4702435,163.44081 c 1.2921821,-14.7162 2.5840997,-29.43267 3.8757525,-44.14939 6.15813,-5.38684 12.315749,-10.77371 18.473227,-16.16097 9.478547,-0.24953 18.956449,-0.49933 28.434276,-0.7494 6.785991,0.30438 13.571445,0.60848 20.356769,0.91232 6.95503,-3.20375 13.909519,-6.407638 20.863882,-9.611856 2.36681,-3.909724 4.73327,-7.819556 7.09951,-11.72973 3.4535,-2.009034 6.9066,-4.018254 10.3595,-6.027777 6.58073,0.260935 13.16079,0.521589 19.74099,0.781995 7.38971,-1.379096 14.77871,-2.758373 22.16789,-4.137998 6.1702,-1.628897 12.33977,-3.257962 18.50944,-4.887388 5.65101,-2.030756 11.30153,-4.061696 16.9519,-6.09294 4.21418,4.811723 8.42792,9.622988 12.64149,14.434086 1.96836,8.113485 3.93639,16.226383 5.90418,24.339178 4.82996,1.12981 9.65946,2.25932 14.48879,3.38858 5.92873,-0.16265 11.85695,-0.32555 17.78503,-0.48873 3.92439,0.17404 7.84836,0.34781 11.77215,0.52133 6.91881,-0.76002 13.83708,-1.52027 20.75521,-2.28079 3.35691,-8.862374 6.71341,-17.724654 10.0697,-26.587375 1.30429,-11.349559 2.60826,-22.69893 3.912,-34.048792"
       sodipodi:nodetypes="cccccccccccccccccccc" />
    <path
       style="fill:#000000;stroke:#3d36e8;stroke-width:1.106;stroke-linejoin:round;stroke-miterlimit:4.4;stroke-dasharray:none;stroke-dashoffset:0;stroke-opacity:1"
       id="path12007"
       d="m 16.974145,147.23217 c -0.647438,2.54662 -1.146898,5.12422 -1.574865,7.71563 -0.344781,1.73906 -0.35776,3.53388 -0.706338,5.27134 0.06762,-0.3988 0.03709,-0.18383 0.08601,-0.64567 0.0011,-0.005 -0.07573,-0.0206 -0.0768,-0.0151 v 0 c -0.02794,0.47608 -0.03881,0.25138 0.01824,0.67463 0.239055,-0.34821 0.303975,-0.8931 0.379638,-1.28325 0.251533,-1.297 0.42307,-2.60813 0.640416,-3.91085 0.414967,-2.60001 0.935077,-5.18325 1.292362,-7.79155 0.0011,-0.004 -0.05758,-0.0193 -0.05866,-0.0152 z" />
    <path
       style="fill:#000000;stroke:#3d36e8;stroke-width:1.106;stroke-linejoin:round;stroke-miterlimit:4.4;stroke-dasharray:none;stroke-dashoffset:0;stroke-opacity:1"
       id="path12009"
       d="m 16.688246,148.41243 c 1.080562,-1.91494 2.685975,-2.52008 4.738588,-2.94624 0.350669,-0.002 0.706842,-0.0686 1.052005,-0.007 1.542439,0.27674 1.802238,1.98399 1.482647,3.2707 -0.122851,0.49461 -0.366469,0.95111 -0.549703,1.42667 -1.273579,2.2582 -3.348843,4.57717 -6.072829,4.98047 -0.35623,0.0528 -0.719913,-0.0213 -1.079869,-0.0319 -0.420699,-0.0957 -1.295175,-0.29882 -1.135938,-0.97045 0.04006,-0.16897 0.186498,-0.29297 0.279748,-0.43945 0.0048,-0.007 -0.09151,-0.0752 -0.09634,-0.0684 v 0 c -0.114201,0.16675 -0.283692,0.30693 -0.342602,0.50026 -0.265658,0.87185 0.734385,1.22765 1.354714,1.37445 0.373635,-0.0312 0.752127,-0.0259 1.120906,-0.0935 2.873029,-0.52711 4.974919,-2.59433 6.271366,-5.11877 0.395368,-1.16243 0.695168,-1.60303 0.588605,-2.8164 -0.09674,-1.1015 -0.717836,-2.0208 -1.848789,-2.23715 -0.359247,-0.0687 -0.731501,-0.006 -1.097251,-0.008 -0.393989,0.0825 -0.796568,0.1314 -1.181967,0.24762 -1.490969,0.44964 -3.038292,1.38323 -3.665451,2.85975 -0.0055,0.0129 0.176696,0.0902 0.18216,0.0773 z" />
    <path
       style="fill:#000000;stroke:#3d36e8;stroke-width:1.106;stroke-linejoin:round;stroke-miterlimit:4.4;stroke-dasharray:none;stroke-dashoffset:0;stroke-opacity:1"
       id="path12011"
       d="m 29.511323,146.9658 c -2.119275,1.69197 -3.975063,3.62209 -5.099796,6.13329 -0.285215,0.63681 -0.471635,1.3134 -0.707453,1.9701 -0.116098,0.64157 -0.293424,1.27503 -0.348295,1.92471 -0.148727,1.76096 0.165699,4.31964 2.147035,4.9981 0.354457,0.12138 0.746226,0.0681 1.119338,0.10213 0.01601,-8e-4 0.0044,-0.227 -0.01153,-0.22618 v 0 c -0.344386,-0.0299 -0.703626,0.0148 -1.033156,-0.0896 -1.816915,-0.57575 -1.980299,-3.14062 -1.833756,-4.67272 0.06017,-0.6291 0.237995,-1.24133 0.356992,-1.86199 0.228428,-0.6408 0.413824,-1.29862 0.685286,-1.92241 0.800113,-1.83859 2.495493,-4.36471 4.152033,-5.56475 0.230711,-0.16714 0.516453,-0.24068 0.774679,-0.36101 0.03038,-0.0142 -0.170982,-0.44386 -0.201359,-0.42963 z" />
    <path
       style="fill:#000000;stroke:#3d36e8;stroke-width:1.106;stroke-linejoin:round;stroke-miterlimit:4.4;stroke-dasharray:none;stroke-dashoffset:0;stroke-opacity:1"
       id="path12013"
       d="m 36.692705,149.79556 c -2.221939,1.75689 -4.038399,3.95473 -6.060991,5.92113 -0.552913,0.53755 -1.144788,1.03351 -1.717185,1.55027 -0.37891,0.52664 -0.757822,1.05328 -1.136735,1.57993 -0.286094,0.35829 -0.585904,0.70605 -0.858282,1.07487 -0.171619,0.23239 -0.575374,0.8038 -0.426669,0.86543 0.112315,0.0465 0.655092,-0.40343 0.793247,-0.50636 0.220707,-0.18681 0.441415,-0.37362 0.66212,-0.56043 0.0095,-0.009 -0.11252,-0.14281 -0.122008,-0.13419 v 0 c -0.2096,0.19739 -0.419198,0.39476 -0.628798,0.59215 -0.155591,0.14782 -0.309986,0.29691 -0.46677,0.44347 -0.06579,0.0615 -0.117782,0.14594 -0.200887,0.18062 -0.05326,0.0222 0.06445,-0.0961 0.10246,-0.13955 0.163501,-0.18677 0.332007,-0.36913 0.501565,-0.55042 1.290151,-1.37938 0.723302,-0.80757 2.418188,-2.23893 0.48241,-0.6022 0.942348,-1.22311 1.447231,-1.80659 0.528199,-0.61044 1.102659,-1.17927 1.649884,-1.7727 1.36443,-1.47964 2.686031,-2.99949 4.085839,-4.44605 0.0037,-0.003 -0.03849,-0.0556 -0.04221,-0.0526 z" />
    <path
       style="fill:#000000;stroke:#3d36e8;stroke-width:1.106;stroke-linejoin:round;stroke-miterlimit:4.4;stroke-dasharray:none;stroke-dashoffset:0;stroke-opacity:1"
       id="path12015"
       d="m 27.056434,152.11483 c 0.910939,0.0237 1.330897,0.57107 1.939772,1.17232 0.301029,0.29725 0.651081,0.54868 0.915887,0.87861 0.326718,0.40708 0.554431,0.8848 0.846587,1.31736 0.305996,0.45305 0.631611,0.89254 0.947415,1.33881 1.00249,1.72128 0.48795,0.8146 1.369213,2.40951 0.265597,0.48067 0.48799,1.09606 0.983642,1.38367 0.0032,0.001 0.02122,-0.0437 0.01804,-0.045 v 0 c -0.370046,-0.31932 -0.552098,-1.00496 -0.74686,-1.4121 -0.556118,-1.16253 -0.640173,-1.26627 -1.301991,-2.45341 -1.088298,-1.92265 -0.441214,-0.9804 -1.858865,-2.67916 -0.326948,-0.39178 -0.595021,-0.84047 -0.977926,-1.17777 -0.538194,-0.4741 -1.445705,-0.77981 -2.155468,-0.78491 -0.0037,0.001 0.01688,0.0535 0.02056,0.0521 z" />
    <path
       style="fill:#000000;stroke:#3d36e8;stroke-width:1.106;stroke-linejoin:round;stroke-miterlimit:4.4;stroke-dasharray:none;stroke-dashoffset:0;stroke-opacity:1"
       id="path12017"
       d="m 35.905495,146.29198 c 2.227734,0.85885 4.363514,2.75933 5.767604,4.66049 0.420537,0.56942 0.757307,1.19618 1.135963,1.79426 0.236079,0.69051 0.558112,1.35739 0.708242,2.07153 0.463139,2.20311 0.07208,4.37173 -1.107298,6.28205 -0.897511,1.45376 -1.383249,1.70046 -2.627399,2.73481 -1.421165,0.73401 -0.743188,0.534 -1.984439,0.74758 -0.01243,0.003 0.02769,0.17854 0.04012,0.1757 v 0 c 1.36956,-0.096 0.626973,0.0592 2.185914,-0.63372 1.345938,-1.05209 1.841923,-1.26342 2.796159,-2.80239 1.229505,-1.98292 1.644885,-4.28862 1.159859,-6.57535 -0.157692,-0.74345 -0.497822,-1.43615 -0.746734,-2.15422 -0.38903,-0.61556 -0.725791,-1.26745 -1.16709,-1.84669 -1.470043,-1.92953 -3.760994,-3.91554 -6.161273,-4.52792 -0.0052,3e-5 -0.0048,0.0739 2.65e-4,0.0739 z" />
    <path
       style="fill:#ffffff;stroke:none;stroke-width:1.106;stroke-linejoin:round;stroke-miterlimit:4.4;stroke-dasharray:none;stroke-dashoffset:0;stroke-opacity:1"
       id="path12240"
       d="m 39.127535,64.464588 c 2.08198,-0.988351 4.20647,-2.18798 5.602989,-4.082097 0.241083,-0.326986 0.409204,-0.701937 0.613809,-1.052907 0.07021,-0.300876 0.207225,-0.593685 0.210614,-0.902626 0.01416,-1.288725 -1.425329,-1.52222 -2.39871,-1.362528 -0.308686,0.05064 -0.602083,0.170014 -0.903126,0.255019 -2.369706,1.056772 -3.223744,3.472429 -4.020595,5.757444 -0.907817,2.940857 -1.357056,5.991672 -2.120757,8.96882 0.06128,0.0588 -0.835888,2.29136 -1.144622,1.541147 0.06652,-0.312258 0.01278,-0.148135 0.182031,-0.485052 0.0021,-0.004 -0.05513,-0.03474 -0.0573,-0.03069 v 0 c -0.156208,0.362294 -0.111588,0.18575 -0.155414,0.523705 0.410229,0.748567 1.365237,-1.207794 1.381731,-1.471416 0.92633,-2.925498 1.391782,-5.965145 2.231094,-8.915146 0.700002,-2.254068 1.45375,-4.66285 3.772064,-5.708256 0.288882,-0.08497 0.570478,-0.200538 0.866648,-0.25491 0.815469,-0.149709 2.256263,-0.0673 2.190358,1.119211 -0.01593,0.28683 -0.161721,0.551315 -0.242583,0.826974 -0.209725,0.32866 -0.388851,0.678987 -0.629177,0.985983 -1.432854,1.830334 -3.492426,2.993342 -5.43139,4.199615 -0.0062,0.0037 0.04613,0.09141 0.05233,0.08771 z" />
    <path
       style="fill:none;stroke:#c51818;stroke-width:1.306;stroke-linejoin:round;stroke-miterlimit:4.4;stroke-dasharray:none;stroke-dashoffset:0;stroke-opacity:1"
       id="path12242"
       d="m 37.590039,61.993753 c 2.230091,-0.988243 4.41511,-2.067084 6.524215,-3.294126 1.989365,-1.354175 4.013059,-3.282458 4.015962,-5.887892 5.29e-4,-0.399571 -0.11185,-0.791276 -0.167775,-1.186916 -0.158059,-0.33914 -0.268113,-0.705114 -0.474176,-1.017423 -0.798287,-1.209879 -2.268614,-1.726057 -3.654184,-1.33604 -0.388046,0.109231 -0.741309,0.317026 -1.111962,0.475541 -2.988148,1.859804 -3.927676,5.181052 -4.656185,8.418676 -0.698545,3.483179 -0.822954,7.0529 -1.56461,10.525747 -0.237369,0.622054 -0.484916,2.112502 -1.075405,2.570088 -0.139345,0.107985 -0.113898,-0.137078 -0.115739,-0.154373 0.147719,-0.398971 0.04729,-0.189876 0.32634,-0.614614 0.0034,-0.0052 -0.06965,-0.05378 -0.07309,-0.04861 v 0 c -0.2612,0.458322 -0.174639,0.232725 -0.288671,0.664938 0.08532,0.28448 0.225731,0.248803 0.433927,-0.0011 0.552426,-0.663257 0.79393,-1.530593 1.064797,-2.327883 0.836414,-3.44987 1.070224,-7.000486 1.666396,-10.494849 0.70353,-3.228035 1.490141,-6.372838 4.396184,-8.317878 0.349351,-0.162285 0.679665,-0.374277 1.048049,-0.486854 1.266566,-0.387065 2.644672,0.07562 3.381889,1.182124 0.196273,0.294592 0.301021,0.640794 0.451532,0.961191 0.05498,0.375407 0.166788,0.746813 0.164944,1.12622 -0.01228,2.525845 -2.075082,4.321723 -3.951973,5.663367 -1.529776,0.89899 -1.235009,0.748059 -2.789674,1.573855 -0.778827,0.413692 -1.584372,0.776208 -2.359062,1.1976 -0.0164,0.0089 -1.07824,0.669496 -1.223195,0.759642 -0.0035,0.0021 0.02796,0.05186 0.03147,0.04964 z" />
    <path
       style="fill:none;stroke:#c51818;stroke-width:1.306;stroke-linejoin:round;stroke-miterlimit:4.4;stroke-dasharray:none;stroke-dashoffset:0;stroke-opacity:1"
       id="path12973"
       d="m 34.371232,65.831992 c 0.969671,-0.27186 1.989331,-0.190619 2.972162,-0.317786 0.407289,-0.0527 0.79914,-0.192553 1.204042,-0.261218 0.269664,-0.04573 1.531771,-0.172445 1.890575,-0.209494 0.35677,0.0196 1.218018,-0.229741 0.524267,0.308578 -0.0026,0.0021 0.02898,0.03896 0.03158,0.03673 v 0 c 0.636178,-0.569954 -0.119967,-0.47217 -0.587589,-0.515355 -2.286921,0.08657 0.878009,-0.04676 -1.918571,0.125862 -0.420584,0.02596 -0.846219,-0.0105 -1.263136,0.05069 -0.96592,0.141769 -1.918293,0.52792 -2.877643,0.715886 -0.0047,0.0019 0.01963,0.06782 0.02432,0.06611 z" />
    <path
       style="fill:none;stroke:#c51818;stroke-width:1.306;stroke-linejoin:round;stroke-miterlimit:4.4;stroke-dasharray:none;stroke-dashoffset:0;stroke-opacity:1"
       id="path12975"
       d="m 53.10483,58.125801 c -2.602754,1.296429 -4.766821,3.439303 -6.31031,5.891398 -0.397121,0.630893 -0.699767,1.316535 -1.049652,1.974805 -0.413676,1.341826 -0.834255,2.043559 -0.551649,3.449682 0.08803,0.437976 0.368623,0.813882 0.552934,1.220822 0.0043,0.01849 0.26587,-0.04193 0.261597,-0.06043 v 0 c -0.163777,-0.372849 -0.420288,-0.717561 -0.491334,-1.11855 -0.233839,-1.31985 0.201734,-2.011807 0.625438,-3.253314 0.348086,-0.638363 0.657619,-1.299311 1.04426,-1.915086 1.526765,-2.431584 3.54747,-4.54786 5.949225,-6.122072 0.0048,-0.0021 -0.02574,-0.06942 -0.03051,-0.06726 z" />
    <path
       style="fill:none;stroke:#c51818;stroke-width:1.306;stroke-linejoin:round;stroke-miterlimit:4.4;stroke-dasharray:none;stroke-dashoffset:0;stroke-opacity:1"
       id="path12977"
       d="m 58.677915,61.961344 c -2.8042,1.510117 -5.178046,3.696742 -7.308043,6.037368 -0.412062,0.57235 -1.026247,1.128324 -1.026295,1.880005 -7.94e-4,0.004 0.05609,0.01701 0.057,0.01299 v 0 c 0.178961,-0.669245 0.799608,-1.144908 1.20492,-1.667521 2.212412,-2.235157 4.550315,-4.365725 7.113138,-6.195451 0.0048,-0.0029 -0.03596,-0.07026 -0.04073,-0.06739 z" />
    <path
       style="fill:none;stroke:#c51818;stroke-width:1.306;stroke-linejoin:round;stroke-miterlimit:4.4;stroke-dasharray:none;stroke-dashoffset:0;stroke-opacity:1"
       id="path12979"
       d="m 51.165982,61.947591 c -0.154835,1.090078 0.06226,2.125001 0.406124,3.160948 0.165307,0.498004 0.312751,1.01029 0.571567,1.466744 0.503817,0.88854 1.30103,1.594683 2.012042,2.303666 1.261115,0.897197 0.645353,0.557789 1.80844,1.08571 0.01209,0.0033 0.05896,-0.167698 0.04687,-0.171011 v 0 C 54.965038,69.207152 55.503833,69.552213 54.413028,68.730301 54.094729,68.39478 53.738795,68.091319 53.458133,67.723736 53.153042,67.324157 52.923675,66.871995 52.665005,66.440909 52.393466,65.988374 52.08748,65.55288 51.867638,65.073098 51.41919,64.094412 51.245013,63.029036 51.228122,61.963185 c 0.0011,-0.0044 -0.06104,-0.02 -0.06214,-0.01558 z" />
    <path
       style="fill:none;stroke:#c51818;stroke-width:1.306;stroke-linejoin:round;stroke-miterlimit:4.4;stroke-dasharray:none;stroke-dashoffset:0;stroke-opacity:1"
       id="path12981"
       d="m 62.202192,58.198966 c 1.887055,2.358875 2.474518,5.51302 2.28533,8.476478 -0.05369,0.840996 -0.24484,1.667539 -0.36726,2.501307 -0.511096,1.802188 -1.150755,3.724989 -2.698568,4.929068 -0.256775,0.199753 -0.588293,0.277935 -0.88244,0.416902 -0.01363,0.0068 0.0823,0.199485 0.09592,0.192701 v 0 c 0.336402,-0.127807 0.71033,-0.182983 1.009203,-0.383421 1.712166,-1.148255 2.429288,-3.152471 2.997346,-5.022469 0.128645,-0.859234 0.336441,-1.710301 0.385939,-2.5777 0.157261,-2.755779 -0.434644,-5.736503 -2.1542,-7.959365 -0.186002,-0.240443 -0.433581,-0.426197 -0.65037,-0.639295 -0.0047,-0.0016 -0.02556,0.06432 -0.0209,0.06579 z" />
  </g>
</svg>
