<?xml version="1.0" encoding="UTF-8" standalone="no"?>
<!-- Created with Inkscape (http://www.inkscape.org/) -->

<svg
   width="257.12494mm"
   height="170.09721mm"
   viewBox="0 0 257.12494 170.09721"
   version="1.1"
   id="svg7686"
   inkscape:version="1.2.2 (1:1.2.2+202212051550+b0a8486541)"
   sodipodi:docname="ellipse.svg"
   xmlns:inkscape="http://www.inkscape.org/namespaces/inkscape"
   xmlns:sodipodi="http://sodipodi.sourceforge.net/DTD/sodipodi-0.dtd"
   xmlns="http://www.w3.org/2000/svg"
   xmlns:svg="http://www.w3.org/2000/svg">
  <sodipodi:namedview
     id="namedview7688"
     pagecolor="#ffffff"
     bordercolor="#666666"
     borderopacity="1.0"
     inkscape:showpageshadow="2"
     inkscape:pageopacity="0.0"
     inkscape:pagecheckerboard="0"
     inkscape:deskcolor="#d1d1d1"
     inkscape:document-units="mm"
     showgrid="true"
     inkscape:zoom="0.4792789"
     inkscape:cx="346.35366"
     inkscape:cy="370.34804"
     inkscape:window-width="1294"
     inkscape:window-height="704"
     inkscape:window-x="72"
     inkscape:window-y="27"
     inkscape:window-maximized="1"
     inkscape:current-layer="layer1">
    <inkscape:grid
       type="xygrid"
       id="grid8224"
       originx="-32.043664"
       originy="-4.9026536" />
  </sodipodi:namedview>
  <defs
     id="defs7683">
    <marker
       style="overflow:visible"
       id="Arrow2"
       refX="0"
       refY="0"
       orient="auto-start-reverse"
       inkscape:stockid="Arrow2"
       markerWidth="7.6999998"
       markerHeight="5.5999999"
       viewBox="0 0 7.7 5.6"
       inkscape:isstock="true"
       inkscape:collect="always"
       preserveAspectRatio="xMidYMid">
      <path
         transform="scale(0.7)"
         d="M -2,-4 9,0 -2,4 c 2,-2.33 2,-5.66 0,-8 z"
         style="fill:context-stroke;fill-rule:evenodd;stroke:none"
         id="arrow2L" />
    </marker>
    <inkscape:path-effect
       effect="bspline"
       id="path-effect8228"
       is_visible="true"
       lpeversion="1"
       weight="33.333333"
       steps="2"
       helper_size="0"
       apply_no_weight="true"
       apply_with_weight="true"
       only_selected="false" />
    <marker
       style="overflow:visible"
       id="Arrow2-7"
       refX="0"
       refY="0"
       orient="auto-start-reverse"
       inkscape:stockid="Arrow2"
       markerWidth="7.6999998"
       markerHeight="5.5999999"
       viewBox="0 0 7.7 5.6"
       inkscape:isstock="true"
       inkscape:collect="always"
       preserveAspectRatio="xMidYMid">
      <path
         transform="scale(0.7)"
         d="M -2,-4 9,0 -2,4 c 2,-2.33 2,-5.66 0,-8 z"
         style="fill:context-stroke;fill-rule:evenodd;stroke:none"
         id="arrow2L-0" />
    </marker>
    <inkscape:path-effect
       effect="bspline"
       id="path-effect8228-9"
       is_visible="true"
       lpeversion="1"
       weight="33.333333"
       steps="2"
       helper_size="0"
       apply_no_weight="true"
       apply_with_weight="true"
       only_selected="false" />
  </defs>
  <g
     inkscape:label="Layer 1"
     inkscape:groupmode="layer"
     id="layer1"
     transform="translate(-32.043664,-4.9026536)">
    <ellipse
       style="fill:#d0ff9b;fill-opacity:1;fill-rule:evenodd;stroke:#000000;stroke-width:0.712;stroke-dasharray:none;stroke-opacity:1"
       id="path7859"
       cx="152.80055"
       cy="90.634491"
       rx="80.358498"
       ry="44.525242" />
    <path
       style="font-variation-settings:normal;opacity:1;vector-effect:none;fill:none;fill-opacity:1;stroke:#000000;stroke-width:1.365;stroke-linecap:butt;stroke-linejoin:miter;stroke-miterlimit:4;stroke-dasharray:none;stroke-dashoffset:0;stroke-opacity:1;-inkscape-stroke:none;marker-end:url(#Arrow2);stop-color:#000000;stop-opacity:1"
       d="M 32.046232,90.278211 C 114.88747,89.966473 197.72845,89.654735 280.56916,89.342999"
       id="path8226"
       inkscape:path-effect="#path-effect8228"
       inkscape:original-d="M 32.046232,90.278211 C 114.88747,89.966738 197.72845,89.655001 280.56916,89.342999" />
    <path
       style="font-variation-settings:normal;vector-effect:none;fill:none;fill-opacity:1;stroke:#000000;stroke-width:1.38481;stroke-linecap:butt;stroke-linejoin:miter;stroke-miterlimit:4;stroke-dasharray:none;stroke-dashoffset:0;stroke-opacity:1;-inkscape-stroke:none;marker-end:url(#Arrow2-7);stop-color:#000000"
       d="M 153.69202,174.9935 C 153.19787,121.20436 152.70373,67.41539 152.20958,13.62659"
       id="path8226-3"
       inkscape:path-effect="#path-effect8228-9"
       inkscape:original-d="M 153.69202,174.9935 C 153.19829,121.20436 152.70415,67.415386 152.20958,13.62659" />
    <ellipse
       style="fill:#0a0c07;fill-opacity:1;fill-rule:evenodd;stroke:#000000;stroke-width:0.676454;stroke-dasharray:none;stroke-opacity:1"
       id="path8340"
       cx="106.86641"
       cy="89.770973"
       rx="3.1444798"
       ry="3.3113966" />
    <ellipse
       style="fill:#0a0c07;fill-opacity:1;fill-rule:evenodd;stroke:#000000;stroke-width:0.676454;stroke-dasharray:none;stroke-opacity:1"
       id="path8340-0"
       cx="198.64249"
       cy="89.188683"
       rx="3.1444798"
       ry="3.3113966" />
    <ellipse
       style="fill:#0a0c07;fill-opacity:1;fill-rule:evenodd;stroke:#000000;stroke-width:0.676454;stroke-dasharray:none;stroke-opacity:1"
       id="path8340-6"
       cx="233.38931"
       cy="88.780724"
       rx="3.1444798"
       ry="3.3113966" />
    <ellipse
       style="fill:#0a0c07;fill-opacity:1;fill-rule:evenodd;stroke:#000000;stroke-width:0.676454;stroke-dasharray:none;stroke-opacity:1"
       id="path8340-2"
       cx="72.916885"
       cy="89.452019"
       rx="3.1444798"
       ry="3.3113966" />
    <ellipse
       style="fill:#0a0c07;fill-opacity:1;fill-rule:evenodd;stroke:#000000;stroke-width:0.676454;stroke-dasharray:none;stroke-opacity:1"
       id="path8340-61"
       cx="153.27493"
       cy="136.95413"
       rx="3.1444798"
       ry="3.3113966" />
    <ellipse
       style="fill:#0a0c07;fill-opacity:1;fill-rule:evenodd;stroke:#000000;stroke-width:0.676454;stroke-dasharray:none;stroke-opacity:1"
       id="path8340-8"
       cx="153.26648"
       cy="45.983589"
       rx="3.1444798"
       ry="3.3113966" />
    <path
       style="fill:#0000ff;fill-opacity:1;stroke:#000000;stroke-width:0.865;stroke-linejoin:round;stroke-miterlimit:4.4;stroke-dasharray:none;stroke-opacity:1"
       id="path8432"
       d="m 107.14668,103.00621 c 1.06846,0.32059 2.11312,0.71041 3.15309,1.11207 0.21539,0.0514 0.32769,0.23103 0.26424,-0.065 -8e-4,-0.002 -0.0317,0.008 -0.031,0.0102 v 0 c 0.0258,0.0124 0.0707,0.065 0.0775,0.0371 0.0247,-0.10187 -0.47492,0.0163 -0.26689,-0.16626 -0.99729,-0.52592 -2.0717,-0.92734 -3.19332,-1.07867 -0.0106,-2.5e-4 -0.0142,0.15025 -0.004,0.15051 z" />
    <path
       style="fill:#0000ff;fill-opacity:1;stroke:#000000;stroke-width:0.865;stroke-linejoin:round;stroke-miterlimit:4.4;stroke-dasharray:none;stroke-opacity:1"
       id="path8434"
       d="m 114.28327,101.9405 c 1.32188,-0.24826 2.41803,-0.81933 3.37035,-1.76229 0.35494,-0.338394 0.82185,-1.587431 -0.15323,-1.143027 -1.31158,1.143957 -2.09161,2.788807 -2.83824,4.329177 -0.33585,0.79071 -0.65022,1.60623 -0.74424,2.46725 -0.0107,0.0983 -0.0416,0.50738 0.0538,0.64753 0.0307,0.0451 0.0962,0.0515 0.14434,0.0772 0.24178,-0.15167 0.28268,-0.4105 0.29643,-0.67438 0.001,-0.004 -0.0493,-0.0192 -0.0504,-0.0156 v 0 c -0.0766,0.19379 -0.14777,0.38968 -0.23339,0.57982 -0.0638,0.17592 -0.0183,-0.24219 0.0512,-0.53044 0.19548,-0.81093 0.51577,-1.58565 0.85234,-2.34618 0.7408,-1.51451 1.45131,-3.10855 2.54871,-4.401698 0.74056,-0.500428 0.0974,0.762196 -0.10566,0.826209 -0.92276,0.861909 -2.04882,1.394359 -3.23132,1.817729 -0.009,0.003 0.0302,0.13147 0.0393,0.12869 z" />
    <path
       style="fill:#0000ff;fill-opacity:1;stroke:#000000;stroke-width:0.865;stroke-linejoin:round;stroke-miterlimit:4.4;stroke-dasharray:none;stroke-opacity:1"
       id="path8436"
       d="m 111.50958,107.45298 c 2.16401,0.24195 4.34782,0.13993 6.51543,0.008 0.60179,-0.0788 1.22824,-0.0521 1.79346,-0.29399 0.006,-0.001 -0.0123,-0.0925 -0.0187,-0.0911 v 0 c -0.60904,-0.12779 -1.23022,-0.0483 -1.84873,-0.0584 -2.1521,0.0725 -4.30318,0.16493 -6.45366,0.27526 -0.0113,7.9e-4 7.9e-4,0.1611 0.0122,0.16024 z" />
    <path
       style="fill:#0000ff;fill-opacity:1;stroke:#000000;stroke-width:0.865;stroke-linejoin:round;stroke-miterlimit:4.4;stroke-dasharray:none;stroke-opacity:1"
       id="path8438"
       d="m 200.53481,99.748119 c 1.44788,-0.01662 2.68549,-0.800007 3.73664,-1.725599 0.4586,-0.217599 0.99972,-1.686481 -0.0571,-1.039569 -0.90092,1.09175 -1.27038,2.557957 -1.65208,3.894819 -0.20603,0.85285 -0.37842,1.71943 -0.4169,2.59832 -0.0113,0.25756 -0.0695,0.64212 0.17481,0.80444 0.17862,-0.21899 0.096,-0.0961 0.24003,-0.37386 0.002,-0.005 -0.0614,-0.0392 -0.0639,-0.0346 v 0 c -0.10915,0.25489 -0.0559,0.14966 -0.14924,0.32078 0.10892,-0.97292 0.33464,-2.16427 0.58109,-3.18224 0.33936,-1.320907 0.62578,-2.745149 1.37849,-3.901367 0.88564,-0.695923 -0.0288,0.698375 -0.2338,0.68608 -1.0431,0.857165 -2.19687,1.60229 -3.55409,1.826416 -0.009,0.0011 0.007,0.127537 0.016,0.12641 z" />
    <path
       style="fill:#0000ff;fill-opacity:1;stroke:#000000;stroke-width:0.865;stroke-linejoin:round;stroke-miterlimit:4.4;stroke-dasharray:none;stroke-opacity:1"
       id="path8440"
       d="m 198.26098,105.56517 c 2.83885,0.0872 5.6806,-0.016 8.51586,-0.16175 0.33466,-0.0233 1.17443,-0.0693 1.59039,-0.13221 0.0554,-0.008 0.16382,0.006 0.16038,-0.0498 -0.007,-0.11262 -0.29857,-0.0812 -0.55587,-0.0802 -0.008,0.001 0.0115,0.11582 0.0195,0.11444 v 0 c 0.27656,-0.0276 0.55786,-0.0188 0.52891,-0.15872 -0.0135,-0.0651 -0.11847,-0.065 -0.18381,-0.077 -0.45977,-0.0844 -1.22472,-0.0927 -1.63165,-0.10981 -2.83107,-0.0133 -5.6669,0.0913 -8.47579,0.46675 -0.0133,0.002 0.0187,0.19056 0.032,0.1883 z" />
    <path
       style="fill:#0a0c07;fill-opacity:1;stroke:#000000;stroke-width:0.865;stroke-linejoin:round;stroke-miterlimit:4.4;stroke-dasharray:none;stroke-opacity:1"
       id="path8805"
       d="m 238.44565,68.442752 c -0.32873,0.397909 -0.78842,1.519388 -0.0526,1.801061 0.13628,0.05217 0.29164,0.01074 0.43746,0.01609 1.03981,-0.37058 1.98923,-1.345517 1.92867,-2.527125 -0.01,-0.191011 -0.089,-0.372036 -0.13344,-0.558054 -0.0953,-0.143356 -0.16695,-0.305628 -0.2859,-0.430064 -0.69488,-0.726945 -1.47838,-0.423045 -2.18682,0.0449 -0.96395,0.824261 -1.33211,1.997744 -1.52352,3.208173 -0.16345,1.378911 0.29278,2.679978 0.69359,3.97483 0.19737,0.64288 0.50789,1.650931 -0.35901,1.952919 -0.1338,0.04661 -0.27927,0.04811 -0.4189,0.07217 -0.75611,-0.01048 -1.48189,-0.268327 -2.18368,-0.529037 -0.007,-0.0016 -0.0277,0.092 -0.0211,0.09349 v 0 c 0.69514,0.353039 1.45592,0.584382 2.24251,0.562316 0.14885,-0.03277 0.30482,-0.04224 0.44655,-0.09832 0.89011,-0.352166 0.68936,-1.350521 0.4851,-2.076329 -0.36865,-1.276874 -0.85002,-2.548768 -0.69265,-3.902617 0.16854,-1.174769 0.5031,-2.31744 1.4178,-3.137514 0.87037,-0.60308 1.60273,-0.722294 2.22269,0.276217 0.0387,0.1684 0.10999,0.332515 0.11623,0.505201 0.0393,1.088342 -0.85391,2.009796 -1.76318,2.447756 -0.12546,0.0048 -0.25526,0.04757 -0.37637,0.01447 -0.64594,-0.176514 -0.14188,-1.346541 0.0498,-1.675365 0.002,-0.0031 -0.0408,-0.03825 -0.0433,-0.03519 z" />
    <path
       style="fill:#0a0c07;fill-opacity:1;stroke:#000000;stroke-width:0.865;stroke-linejoin:round;stroke-miterlimit:4.4;stroke-dasharray:none;stroke-opacity:1"
       id="path8807"
       d="m 244.02148,69.895079 c 1.95356,-0.03983 3.89885,-0.283874 5.82774,-0.583367 0.21611,-0.04197 0.43223,-0.08394 0.64835,-0.12591 0.0137,-0.0031 -0.0307,-0.197313 -0.0444,-0.194169 v 0 c -0.22364,0.01029 -0.44727,0.02058 -0.6709,0.03087 -1.93704,0.172791 -3.86245,0.447886 -5.77448,0.80369 -0.005,0.0011 0.009,0.06986 0.0137,0.06889 z" />
    <path
       style="fill:#0a0c07;fill-opacity:1;stroke:#000000;stroke-width:0.865;stroke-linejoin:round;stroke-miterlimit:4.4;stroke-dasharray:none;stroke-opacity:1"
       id="path8809"
       d="m 247.60791,67.765315 c -0.64415,0.782754 -0.0745,0.0772 -0.87127,1.121072 -0.21204,0.277815 -0.48277,0.517704 -0.64243,0.82859 -0.17007,0.331137 -0.20847,0.715068 -0.3309,1.066615 -0.66398,1.906622 -0.11461,0.02782 -0.58102,1.710917 -0.0788,0.636315 -0.11008,0.367385 -0.004,0.812215 -2.3e-4,0.0052 0.0737,0.0085 0.0739,0.0033 v 0 c 0.0284,-0.39751 -0.003,-0.15217 0.15131,-0.72662 0.15339,-0.43129 0.43553,-1.268857 0.64364,-1.643235 0.17334,-0.311859 0.4465,-0.562313 0.6107,-0.879088 0.16127,-0.311134 0.2235,-0.66488 0.35745,-0.988716 0.24498,-0.592231 0.36067,-0.756169 0.65578,-1.254827 0.004,-0.0045 -0.0595,-0.05469 -0.0631,-0.05023 z" />
    <path
       style="fill:#0a0c07;fill-opacity:1;stroke:#000000;stroke-width:0.865;stroke-linejoin:round;stroke-miterlimit:4.4;stroke-dasharray:none;stroke-opacity:1"
       id="path8811"
       d="m 254.25086,67.361789 c -0.23495,0.508902 -0.54429,1.367922 -0.0459,1.845638 0.37825,0.362548 0.67849,0.247922 1.14915,0.231637 0.23052,-0.08973 0.47646,-0.146997 0.69154,-0.269174 0.65638,-0.372853 1.58083,-1.35586 1.14359,-2.203151 -0.0922,-0.178617 -0.2777,-0.290655 -0.41655,-0.435983 -0.21631,-0.06497 -0.42445,-0.170069 -0.64894,-0.19491 -1.23682,-0.136856 -2.50427,0.609216 -3.36226,1.426588 -0.24301,0.231505 -0.4419,0.505283 -0.66285,0.757923 -0.64304,0.984287 -0.98773,2.122463 -0.39523,3.223897 0.27647,0.51393 0.71272,0.889781 1.11519,1.296615 0.35359,0.377489 1.63847,1.226105 1.46646,1.880722 -0.0995,0.378756 -0.5159,0.469868 -0.80526,0.609306 -0.77283,0.202089 -1.60895,0.385527 -2.41291,0.241922 -0.21427,-0.03827 -0.41041,-0.145183 -0.61561,-0.217774 -0.0143,-0.0024 -0.0497,0.200298 -0.0353,0.202796 v 0 c 0.22393,0.08643 0.43647,0.21192 0.67178,0.259294 0.84017,0.169148 1.70699,-0.0425 2.49326,-0.321289 0.34765,-0.216934 0.71093,-0.33051 0.83288,-0.76708 0.22664,-0.811406 -1.00893,-1.637091 -1.46842,-2.107065 -0.37473,-0.35229 -0.76075,-0.661442 -1.0218,-1.11715 -0.58316,-1.018056 -0.20109,-2.081189 0.39447,-2.986408 0.21391,-0.239665 0.4096,-0.49693 0.64173,-0.718992 0.81514,-0.779766 1.96167,-1.535625 3.1453,-1.471956 0.20143,0.01085 0.39236,0.09389 0.58855,0.140832 0.11363,0.100079 0.26904,0.166952 0.34089,0.300236 0.40893,0.758502 -0.52862,1.668553 -1.08356,2.008987 -0.19598,0.120226 -0.42019,0.186819 -0.63028,0.280228 -0.30195,0.03097 -0.70607,0.157914 -0.98258,-0.08687 -0.47856,-0.423654 -0.15142,-1.281729 -0.0306,-1.774489 0.002,-0.004 -0.0543,-0.03834 -0.0567,-0.03433 z" />
    <path
       style="fill:#0a0c07;fill-opacity:1;stroke:#000000;stroke-width:0.865;stroke-linejoin:round;stroke-miterlimit:4.4;stroke-dasharray:none;stroke-opacity:1"
       id="path8813"
       d="m 254.99025,64.511544 c 0.99403,-0.06442 1.98753,-0.130816 2.98255,-0.17902 0.0175,-0.0029 -0.0236,-0.25073 -0.0412,-0.247817 v 0 c -0.99363,0.04418 -1.99313,0.09889 -2.95926,0.356979 -0.005,0.0013 0.0129,0.07112 0.0179,0.06986 z" />
    <path
       style="fill:#0a0c07;fill-opacity:1;stroke:#000000;stroke-width:0.865;stroke-linejoin:round;stroke-miterlimit:4.4;stroke-dasharray:none;stroke-opacity:1"
       id="path8815"
       d="m 262.17963,61.388548 c -0.80044,1.313741 -1.35976,2.760131 -1.87656,4.204171 -0.049,0.157163 -0.0981,0.314325 -0.14713,0.471488 -0.004,0.0094 0.12858,0.07168 0.13298,0.06227 v 0 c 0.0696,-0.146992 0.13911,-0.293987 0.20866,-0.440981 0.62253,-1.404888 1.16847,-2.839016 1.73637,-4.266362 0.003,-0.0038 -0.0522,-0.03443 -0.0543,-0.03059 z" />
    <path
       style="fill:#0a0c07;fill-opacity:1;stroke:#000000;stroke-width:0.865;stroke-linejoin:round;stroke-miterlimit:4.4;stroke-dasharray:none;stroke-opacity:1"
       id="path8817"
       d="m 237.7192,77.300689 c 2.66686,0.277855 5.36304,0.148389 8.03513,0.01812 3.38323,-0.182985 6.73756,-0.661371 10.10398,-1.013917 0.31622,-0.03918 0.63445,-0.0607 0.95085,-0.09847 0.0143,-0.0016 0.0568,-0.0092 0.0423,-0.0094 -0.24353,-0.0033 -0.49423,0.03723 -0.73527,0.06325 -0.007,0.0016 0.0161,0.09524 0.0227,0.09363 v 0 c 0.12427,-0.02003 0.6338,-0.03308 0.71909,-0.175816 0.15017,-0.251314 -1.28595,0.03472 -1.04919,-0.157935 -3.40264,0.0244 -6.78248,0.366361 -10.16767,0.688771 -2.63883,0.236056 -5.27737,0.451247 -7.92777,0.497864 -0.007,5.29e-4 -7.9e-4,0.09427 0.006,0.09386 z" />
    <path
       style="fill:#0a0c07;fill-opacity:1;stroke:#000000;stroke-width:0.865;stroke-linejoin:round;stroke-miterlimit:4.4;stroke-dasharray:none;stroke-opacity:1"
       id="path8819"
       d="m 243.79083,81.195486 c 0.96056,-0.865227 1.95363,-1.605952 3.23375,-1.885035 1.31528,-0.06604 0.85615,0.864868 0.42529,1.61117 -0.45886,0.696632 -1.07497,1.262364 -1.69797,1.808152 -0.2024,0.177323 -0.38897,0.378121 -0.61796,0.51944 -2.0324,1.254218 0.36499,-0.493403 -0.96811,0.50436 -0.49959,0.252118 -0.39518,0.348723 -0.52201,0.844269 0.0113,0.135771 0.06,0.273587 0.0339,0.407308 -0.0673,0.34526 -0.62903,1.204788 -0.85645,1.540293 -0.0152,0.01738 -0.0477,0.07509 -0.0455,0.05214 0.0176,-0.180398 0.20948,-0.353152 0.36688,-0.397351 1.15345,0.218758 2.31698,0.362675 3.49027,0.460285 1.25891,0.07838 2.52064,0.116229 3.78195,0.09321 0.40492,-0.0074 1.00044,0.01596 1.41496,-0.113964 -0.28393,-0.05035 -0.57814,-0.03706 -0.86528,-0.04149 -0.008,0.0011 0.008,0.119536 0.0166,0.118361 v 0 c 0.27972,-0.01363 0.58631,0.0041 0.8475,-0.114609 -0.38349,-0.189799 -1.06948,-0.169871 -1.45171,-0.190829 -1.25642,-0.06888 -2.51476,-0.06871 -3.77234,-0.09834 -1.15962,-0.02601 -2.32138,-0.06515 -3.47577,-0.147455 -0.10669,0.03571 -0.46263,0.299979 -0.33975,0.449829 0.0173,0.02106 0.0496,-0.02249 0.0745,-0.03373 0.31472,-0.317251 0.54995,-0.708157 0.74213,-1.110125 0.0656,-0.137211 0.0974,-0.291248 0.17869,-0.419817 0.0777,-0.123003 0.19451,-0.216448 0.29177,-0.324673 0.0185,-0.119856 0.0833,-0.450792 0.0379,-0.487979 -0.0392,-0.03205 -0.0798,0.06317 -0.11327,0.101079 -0.007,0.0076 0.0199,-0.0037 0.0296,-0.0064 0.22179,-0.06346 0.1468,-0.04331 0.42116,-0.159954 0.82057,-0.434496 0.002,0.06587 0.83963,-0.737751 0.1974,-0.189433 0.43605,-0.331104 0.64356,-0.50941 0.64656,-0.555575 1.24242,-1.169821 1.6754,-1.909953 0.44884,-0.927158 0.77608,-1.825315 -0.63168,-1.861838 -1.38738,0.240614 -2.35566,0.915233 -3.24846,1.99204 -0.003,0.0043 0.0573,0.05311 0.0608,0.04881 z" />
    <path
       style="fill:#0a0c07;fill-opacity:1;stroke:#000000;stroke-width:0.865;stroke-linejoin:round;stroke-miterlimit:4.4;stroke-dasharray:none;stroke-opacity:1"
       id="path8821"
       d="m 32.918815,76.417838 c 0.967825,-0.05771 1.933313,-0.146518 2.898836,-0.233219 0.02373,-0.0052 -0.04959,-0.340728 -0.07331,-0.335545 v 0 c -0.956217,0.118624 -1.918237,0.222102 -2.854182,0.461473 -0.0076,0.0021 0.02109,0.109318 0.02866,0.107291 z" />
    <path
       style="fill:#0a0c07;fill-opacity:1;stroke:#000000;stroke-width:0.865;stroke-linejoin:round;stroke-miterlimit:4.4;stroke-dasharray:none;stroke-opacity:1"
       id="path8823"
       d="m 40.450076,69.810888 c 1.083064,0.309862 2.326291,-0.09129 3.120665,-0.880824 0.168503,-0.167473 0.285399,-0.379881 0.428099,-0.56982 0.0478,-0.208685 0.143311,-0.411964 0.143396,-0.626054 2.65e-4,-0.960565 -0.965316,-1.480532 -1.800505,-1.553028 -0.241668,-0.02098 -0.484878,0.01638 -0.727319,0.02458 -1.28003,0.286523 -2.254721,1.232837 -2.638954,2.48969 -0.07089,0.23188 -0.09285,0.475977 -0.139274,0.713967 -0.09867,1.555729 0.781137,2.422634 1.834163,3.40787 0.190685,0.217504 0.92324,0.735042 0.582764,1.113338 -0.17362,0.19291 -0.516716,0.283422 -0.736362,0.366183 -0.583176,0.185553 -1.167223,0.212479 -1.751703,0.04249 -0.007,-0.0011 -0.02148,0.09822 -0.01447,0.09924 v 0 c 0.610404,0.228105 1.212633,0.215064 1.830141,-0.0127 1.176295,-0.546039 0.995823,-0.898803 0.177866,-1.763626 -0.953796,-0.945623 -1.82803,-1.731171 -1.718884,-3.191978 0.04557,-0.225176 0.06852,-0.456144 0.136729,-0.675529 0.281818,-0.906436 0.94584,-1.800876 1.829205,-2.197822 0.202922,-0.09118 0.428119,-0.121166 0.642178,-0.18175 0.228563,-0.01005 0.457422,-0.04549 0.685689,-0.03014 0.723855,0.04869 1.62842,0.428543 1.636225,1.292458 0.0016,0.189666 -0.08757,0.369101 -0.131362,0.553653 -0.137073,0.172657 -0.252077,0.365416 -0.411221,0.51797 -0.768834,0.736984 -1.916017,1.131824 -2.968038,1.005165 -0.004,-5.29e-4 -0.01304,0.05603 -0.009,0.05667 z" />
    <path
       style="fill:#0a0c07;fill-opacity:1;stroke:#000000;stroke-width:0.865;stroke-linejoin:round;stroke-miterlimit:4.4;stroke-dasharray:none;stroke-opacity:1"
       id="path8825"
       d="m 45.592454,70.707493 c 1.607852,-0.287084 3.213542,-0.592956 4.800502,-0.9808 0.015,-0.0046 -0.04926,-0.216652 -0.06426,-0.212109 v 0 c -1.610003,0.262885 -3.214883,0.590839 -4.761971,1.116947 -0.0054,0.0019 0.02037,0.07778 0.02574,0.07596 z" />
    <path
       style="fill:#0a0c07;fill-opacity:1;stroke:#000000;stroke-width:0.865;stroke-linejoin:round;stroke-miterlimit:4.4;stroke-dasharray:none;stroke-opacity:1"
       id="path8827"
       d="m 48.088412,68.13924 c -0.05017,0.42554 -0.07625,0.853377 -0.11942,1.279576 -0.02809,0.277344 -0.122711,0.553788 -0.09364,0.831035 0.02916,0.278132 0.194009,0.525579 0.264261,0.796271 0.09068,0.349425 0.123192,0.711616 0.199183,1.064527 2.9e-5,0.0094 0.13316,0.009 0.133133,-2.64e-4 v 0 c -0.03253,-0.351094 -0.113072,-0.700985 -0.09788,-1.053254 0.01106,-0.256738 0.129842,-0.505383 0.116811,-0.762029 -0.0146,-0.287684 -0.145807,-0.557876 -0.198223,-0.841121 -0.104132,-0.562692 -0.09942,-0.773274 -0.124338,-1.302295 7.93e-4,-0.0057 -0.07901,-0.01797 -0.07988,-0.01233 z" />
    <path
       style="fill:#0a0c07;fill-opacity:1;stroke:#000000;stroke-width:0.865;stroke-linejoin:round;stroke-miterlimit:4.4;stroke-dasharray:none;stroke-opacity:1"
       id="path8829"
       d="m 53.912992,69.154547 c 1.110776,-0.165002 2.302883,-0.571931 3.146813,-1.34684 0.15035,-0.138054 0.259914,-0.314801 0.389872,-0.472199 0.03263,-0.147897 0.116821,-0.293418 0.09791,-0.443685 -0.114736,-0.911501 -1.745832,-0.704782 -2.277382,-0.546902 -0.316241,0.09393 -0.609825,0.25187 -0.914739,0.377806 -0.275021,0.182044 -0.571651,0.33504 -0.825061,0.546132 -0.809916,0.674669 -1.515091,1.772436 -1.151157,2.865311 0.07243,0.217487 0.220499,0.401952 0.330751,0.602929 1.155091,1.255985 2.888943,1.451452 4.412887,2.009688 0.09809,0.06425 0.22161,0.100719 0.294267,0.192754 0.144373,0.182878 -0.253693,0.35401 -0.288695,0.371092 -0.653386,0.318833 -1.419045,0.447767 -2.118317,0.616847 -0.858647,0.198982 -1.727415,0.37393 -2.610575,0.310086 -0.0093,1.56e-4 -0.0071,0.131072 0.0021,0.130916 v 0 c 0.906757,0.167425 1.80475,0.02516 2.695398,-0.194374 0.325541,-0.09047 2.75966,-0.666689 2.366444,-1.337667 -0.06813,-0.116252 -0.203007,-0.177236 -0.304512,-0.265856 -1.413692,-0.646348 -3.067629,-0.825254 -4.26094,-1.893557 -0.106984,-0.180652 -0.250798,-0.344066 -0.320955,-0.541951 -0.485635,-1.369832 0.902666,-2.536216 1.909183,-3.153751 0.286509,-0.129929 0.562711,-0.285544 0.859531,-0.389792 0.35307,-0.124003 1.994191,-0.492178 2.08326,0.258715 0.01505,0.126865 -0.07405,0.244538 -0.111083,0.366807 -0.130444,0.137756 -0.245546,0.291867 -0.391334,0.413266 -0.862767,0.718442 -1.975099,1.120021 -3.026672,1.461879 -0.0044,7.93e-4 0.0085,0.06326 0.01291,0.06235 z" />
    <path
       style="fill:#0a0c07;fill-opacity:1;stroke:#000000;stroke-width:0.865;stroke-linejoin:round;stroke-miterlimit:4.4;stroke-dasharray:none;stroke-opacity:1"
       id="path8831"
       d="m 54.311078,62.570359 c 1.429904,-0.01929 2.85482,-0.146547 4.280377,-0.248113 0.01598,-0.0024 -0.01812,-0.228306 -0.0341,-0.225896 v 0 c -1.431668,-0.01815 -2.858011,0.110795 -4.26448,0.385678 -0.0062,0.0013 0.01196,0.08962 0.0182,0.08833 z" />
    <path
       style="fill:#0a0c07;fill-opacity:1;stroke:#000000;stroke-width:0.865;stroke-linejoin:round;stroke-miterlimit:4.4;stroke-dasharray:none;stroke-opacity:1"
       id="path8833"
       d="m 63.039606,58.731144 c -0.185804,1.396338 -0.3677,2.791677 -0.629328,4.176159 -0.0055,0.01812 0.250735,0.09629 0.256263,0.07817 v 0 c 0.309411,-1.391706 0.508142,-2.81028 0.457533,-4.240305 0.0011,-0.006 -0.08348,-0.02 -0.08447,-0.01402 z" />
    <path
       style="fill:#0a0c07;fill-opacity:1;stroke:#000000;stroke-width:0.865;stroke-linejoin:round;stroke-miterlimit:4.4;stroke-dasharray:none;stroke-opacity:1"
       id="path8835"
       d="m 42.150868,76.842984 c 2.417501,0.202967 4.853636,-0.04421 7.263302,-0.250753 2.246265,-0.104286 4.49045,-0.686274 6.74615,-0.554078 0.19064,0.03645 0.734258,0.09889 0.253701,0.287444 -0.0026,0.0013 0.01672,0.03809 0.01931,0.03673 v 0 c 0.45865,-0.236762 -0.0045,-0.378759 -0.275699,-0.472456 -2.25562,-0.442185 -4.590809,0.0531 -6.851147,0.19412 -2.382695,0.269168 -4.769374,0.52637 -7.162416,0.681291 -0.0055,5.29e-4 0.0013,0.07818 0.0068,0.0777 z" />
    <path
       style="fill:#0a0c07;fill-opacity:1;stroke:#000000;stroke-width:0.865;stroke-linejoin:round;stroke-miterlimit:4.4;stroke-dasharray:none;stroke-opacity:1"
       id="path8837"
       d="m 47.549051,80.834814 c 0.23659,-0.317596 1.102614,-1.33536 1.571765,-0.955239 0.09196,0.07451 0.119692,0.204222 0.179538,0.306335 0.274056,1.755161 -0.601604,3.423822 -1.413047,4.920321 -0.342931,0.520107 -0.633243,1.0966 -1.059516,1.559121 -0.105314,0.114271 -0.268531,0.269282 -0.280815,0.04971 0.12166,-0.392094 0.215043,-0.666795 0.650692,-0.704984 1.57098,0.02453 3.13332,-0.214609 4.683125,-0.444162 0.764575,-0.120689 1.527715,-0.249452 2.287934,-0.395007 0.08702,-0.01667 0.173427,-0.03676 0.260948,-0.05055 0.01087,-0.0016 0.04294,1.91e-4 0.03273,0.0043 -0.04291,0.01728 -0.08926,0.02429 -0.133898,0.03642 -0.319039,0.08092 -0.154368,0.04024 -0.494109,0.121663 -0.0054,0.0019 0.02151,0.07855 0.02694,0.07664 v 0 c 0.340354,-0.0943 0.177905,-0.03964 0.488315,-0.161063 0.231507,-0.17491 0.0159,-0.182567 -0.215959,-0.183528 -0.783359,-0.0032 -1.560544,0.138293 -2.335405,0.229053 -1.538854,0.233934 -3.067328,0.540313 -4.615585,0.705381 -0.410628,0.0769 -0.613577,0.349915 -0.672394,0.767464 0.07491,0.234349 0.214162,0.189381 0.412049,0.0369 0.511128,-0.393859 0.846008,-0.980516 1.215001,-1.493184 0.77428,-1.354563 1.562053,-2.906966 1.413804,-4.524414 -0.0186,-0.202986 -0.0919,-0.397182 -0.137843,-0.595771 -0.09469,-0.120393 -0.158604,-0.273306 -0.284056,-0.36118 -0.622467,-0.436017 -1.393098,0.584589 -1.635736,1.022721 -0.0024,0.0039 0.05318,0.03697 0.05552,0.03304 z" />
    <path
       style="fill:#0a0c07;fill-opacity:1;stroke:#000000;stroke-width:0.865;stroke-linejoin:round;stroke-miterlimit:4.4;stroke-dasharray:none;stroke-opacity:1"
       id="path8839"
       d="m 160.76755,158.09314 c 1.19201,0.12934 2.36881,0.36815 3.51648,0.71422 0.26489,0.10598 0.41351,0.12794 0.0819,0.16135 -0.003,7.9e-4 0.008,0.0412 0.0113,0.0404 v 0 c 0.36718,-0.0929 0.17822,-0.17006 -0.0716,-0.32907 -1.11738,-0.47746 -2.32806,-0.71168 -3.54504,-0.65788 -0.005,5.3e-4 0.002,0.0715 0.007,0.071 z" />
    <path
       style="fill:#0a0c07;fill-opacity:1;stroke:#000000;stroke-width:0.865;stroke-linejoin:round;stroke-miterlimit:4.4;stroke-dasharray:none;stroke-opacity:1"
       id="path8841"
       d="m 169.56768,149.77478 c 0.0198,0.57515 0.19596,1.35319 0.88165,1.47996 0.49834,0.0921 0.8219,-0.1823 1.24058,-0.39636 1.13073,-0.90397 2.61123,-2.61246 2.50744,-4.17336 -0.0154,-0.23241 -0.13578,-0.44561 -0.20367,-0.66841 -0.17367,-0.15581 -0.31279,-0.36217 -0.52102,-0.46743 -1.14065,-0.57657 -2.68092,0.3098 -3.54495,0.99273 -0.30193,0.23864 -0.56194,0.52597 -0.84291,0.78896 -0.83102,1.01113 -1.45798,2.20872 -1.08421,3.54718 0.19489,0.69788 0.47342,1.02591 0.8619,1.62596 0.42645,0.67908 2.1709,2.13444 1.98191,2.98407 -0.0314,0.14104 -0.15035,0.24677 -0.22552,0.37015 -0.15194,0.0843 -0.29307,0.19199 -0.45581,0.25285 -0.6286,0.23509 -1.59397,0.28166 -2.21761,-0.0106 -0.10352,-0.0485 -0.18015,-0.14079 -0.27023,-0.21119 -0.007,-0.003 -0.0547,0.096 -0.0476,0.0994 v 0 c 0.10013,0.084 0.18511,0.19038 0.3004,0.25191 0.65698,0.35063 1.66244,0.30293 2.32538,0.008 0.17539,-0.0781 0.32215,-0.20893 0.48323,-0.31339 0.0852,-0.14491 0.21402,-0.27184 0.25567,-0.43471 0.26959,-1.05424 -1.3645,-2.32102 -1.87089,-3.09611 -0.35446,-0.51732 -0.6873,-0.91454 -0.87361,-1.52497 -0.38165,-1.25046 0.30554,-2.37385 1.07136,-3.30291 0.26715,-0.25558 0.51516,-0.5328 0.80145,-0.76675 0.77031,-0.62949 2.22025,-1.534 3.26952,-1.09688 0.16079,0.067 0.27257,0.21695 0.40885,0.32543 0.0529,0.19568 0.15432,0.38439 0.15862,0.58703 0.0301,1.41897 -1.41423,3.13197 -2.38569,4.04548 -0.38773,0.2476 -0.60914,0.50413 -1.08892,0.45592 -0.61809,-0.0621 -0.75105,-0.87613 -0.84664,-1.3454 5.3e-4,-0.005 -0.0682,-0.0113 -0.0686,-0.006 z" />
    <path
       style="fill:#0a0c07;fill-opacity:1;stroke:#000000;stroke-width:0.865;stroke-linejoin:round;stroke-miterlimit:4.4;stroke-dasharray:none;stroke-opacity:1"
       id="path8843"
       d="m 177.69163,149.70445 c 1.09566,0.007 2.19102,-0.0338 3.28628,-0.0588 0.0135,-0.002 -0.01,-0.19217 -0.0235,-0.19052 v 0 c -1.0945,-0.0328 -2.19305,0.001 -3.2754,0.18169 -0.005,8e-4 0.008,0.0686 0.0126,0.0677 z" />
    <path
       style="fill:#0a0c07;fill-opacity:1;stroke:#000000;stroke-width:0.865;stroke-linejoin:round;stroke-miterlimit:4.4;stroke-dasharray:none;stroke-opacity:1"
       id="path8845"
       d="m 187.10276,147.70506 c 0.0448,0.0965 0.0629,0.21082 0.1344,0.28963 0.57255,0.63084 1.58231,0.40731 2.19747,-0.0215 0.19221,-0.13399 0.34187,-0.32051 0.51279,-0.48076 0.53145,-0.81065 0.68187,-1.6232 -0.30057,-2.18411 -0.52593,-0.30028 -0.83646,-0.22859 -1.41933,-0.23813 -0.25932,0.0788 -0.53289,0.12075 -0.77795,0.23653 -1.09874,0.51912 -1.74752,1.64479 -1.84189,2.8307 -0.0256,0.32165 0.0223,0.64496 0.0334,0.96744 0.28143,1.92144 1.49477,3.45621 2.40949,5.10715 0.0694,0.17667 0.17415,0.34326 0.20808,0.53 0.20799,1.14487 -1.55134,1.05632 -2.21015,1.03812 -0.66492,-0.15104 -1.8079,-0.29718 -2.22948,-0.93255 -0.0582,-0.0878 -0.0648,-0.20043 -0.0972,-0.30064 -7.9e-4,-0.007 -0.10267,0.002 -0.10198,0.01 v 0 c 0.0266,0.11976 0.0182,0.25323 0.0798,0.35929 0.45805,0.78777 1.58067,0.9393 2.37388,1.08145 0.82059,-0.001 2.47144,-0.0375 2.35642,-1.28143 -0.018,-0.19512 -0.11073,-0.37594 -0.16609,-0.56391 -0.79791,-1.66748 -2.0111,-3.16262 -2.34106,-5.02251 -0.0177,-0.30572 -0.0688,-0.61134 -0.053,-0.91717 0.0578,-1.12194 0.64356,-2.1745 1.66779,-2.68767 0.22491,-0.11269 0.47743,-0.15878 0.71614,-0.23817 0.23322,-0.001 0.46869,-0.0363 0.69966,-0.004 0.78717,0.11023 1.47029,0.66936 1.16623,1.52845 -0.0688,0.19455 -0.20863,0.35613 -0.31295,0.53419 -0.15782,0.15112 -0.29665,0.325 -0.47348,0.45337 -0.52254,0.37934 -1.45048,0.66644 -2.0052,0.16864 -0.0783,-0.0702 -0.11281,-0.17747 -0.16921,-0.26621 -2.7e-4,-0.004 -0.0564,1.7e-4 -0.0561,0.004 z" />
    <path
       style="fill:#0a0c07;fill-opacity:1;stroke:#000000;stroke-width:0.865;stroke-linejoin:round;stroke-miterlimit:4.4;stroke-dasharray:none;stroke-opacity:1"
       id="path8847"
       d="m 192.98751,142.54967 c 0.84494,0.10908 1.69681,0.15027 2.54521,0.22583 0.0149,-8e-4 0.005,-0.21221 -0.0101,-0.2115 v 0 c -0.84478,-0.082 -1.69099,-0.12708 -2.5401,-0.0856 -0.005,2.7e-4 -6e-5,0.0717 0.005,0.0713 z" />
    <path
       style="fill:#0a0c07;fill-opacity:1;stroke:#000000;stroke-width:0.865;stroke-linejoin:round;stroke-miterlimit:4.4;stroke-dasharray:none;stroke-opacity:1"
       id="path8849"
       d="m 199.7531,139.84893 c -0.78421,1.60581 -1.52427,3.2406 -2.05928,4.94794 -0.006,0.0125 0.1705,0.0937 0.17625,0.0813 v 0 c 0.74006,-1.62785 1.44442,-3.27798 1.97657,-4.987 0.003,-0.007 -0.0906,-0.0488 -0.0935,-0.0422 z" />
    <path
       style="fill:#0a0c07;fill-opacity:1;stroke:#000000;stroke-width:0.865;stroke-linejoin:round;stroke-miterlimit:4.4;stroke-dasharray:none;stroke-opacity:1"
       id="path8851"
       d="m 172.21451,158.61619 c 2.79296,0.42432 5.62416,0.51585 8.44331,0.61304 3.87065,0.0348 7.82386,0.188 11.63825,-0.60121 0.70978,-0.25525 -0.13023,-0.27138 -0.33207,-0.29017 -0.01,0.001 0.008,0.13916 0.0181,0.13788 v 0 c 0.15111,-0.0166 0.30288,-0.0279 0.45332,-0.0497 0.0448,-0.006 0.1746,-0.0229 0.13106,-0.0351 -0.10476,-0.0294 -0.21721,-0.013 -0.32581,-0.0196 -3.88563,0.0141 -7.76957,0.20695 -11.65583,0.19836 -2.79114,-0.006 -5.58225,-0.0234 -8.37336,-0.0252 -0.005,2.2e-4 -0.002,0.0718 0.003,0.0716 z" />
    <path
       style="fill:#0a0c07;fill-opacity:1;stroke:#000000;stroke-width:0.865;stroke-linejoin:round;stroke-miterlimit:4.4;stroke-dasharray:none;stroke-opacity:1"
       id="path8853"
       d="m 180.48282,162.80306 c 0.78309,-0.40778 2.22476,-1.27849 3.12863,-1.05483 0.15165,0.0375 0.26178,0.17058 0.39267,0.25587 0.0348,0.15869 0.11089,0.31374 0.10438,0.47607 -0.0651,1.62356 -2.1723,3.51401 -3.23968,4.56353 -0.7932,0.71732 -1.6113,1.40856 -2.47549,2.03927 -0.12458,0.0909 -0.25093,0.17964 -0.38098,0.26253 -0.0412,0.0263 -0.0861,0.0816 -0.13184,0.0643 -0.0351,-0.0133 0.0475,-0.0582 0.0713,-0.0873 0.34507,-0.27486 0.67472,-0.77929 1.15344,-0.82555 0.14948,-0.0144 0.3003,0.005 0.45046,0.008 2.53143,0.13772 5.06744,0.1112 7.6,0.0274 0.54732,-0.0274 1.44107,-0.0693 2.03133,-0.10732 0.12712,-0.008 0.27143,0.0345 0.38094,-0.0305 0.0778,-0.0462 -0.17945,-0.0239 -0.26918,-0.0359 -0.005,0.002 0.0194,0.0759 0.0247,0.0742 v 0 c 0.0794,-0.052 0.28973,-0.0763 0.23812,-0.15595 -0.075,-0.11574 -0.26553,-0.0784 -0.40216,-0.0972 -0.70998,-0.0976 -1.34386,-0.0834 -2.06949,-0.0984 -2.52106,0.0317 -5.03944,0.14673 -7.55655,0.28915 -0.77569,0.0845 -1.15348,0.28519 -1.61632,0.93575 -0.008,0.0504 -0.0605,0.11607 -0.0235,0.15126 0.10074,0.0959 0.50651,-0.10871 0.63985,-0.17878 0.96847,-0.50888 1.81783,-1.21443 2.63712,-1.93012 1.08279,-1.0748 3.25027,-3.18079 3.10528,-4.88826 -0.018,-0.21212 -0.14549,-0.40012 -0.21824,-0.60018 -0.15634,-0.0997 -0.29045,-0.24918 -0.46903,-0.29907 -0.98112,-0.27408 -2.4235,0.59361 -3.15388,1.18725 -0.004,0.003 0.0443,0.0583 0.0482,0.0549 z" />
    <path
       style="fill:#0a0c07;fill-opacity:1;stroke:#000000;stroke-width:0.865;stroke-linejoin:round;stroke-miterlimit:4.4;stroke-dasharray:none;stroke-opacity:1"
       id="path8855"
       d="m 166.69083,21.065657 c -0.0701,0.464921 -0.31558,1.312649 0.2171,1.623462 0.42276,0.246684 0.71883,0.04987 1.13717,-0.07345 0.21613,-0.14152 0.45113,-0.257747 0.6484,-0.42456 0.7685,-0.649853 1.38263,-1.775405 1.03487,-2.802359 -0.0682,-0.201305 -0.21923,-0.364177 -0.32883,-0.546266 -0.18578,-0.126854 -0.3499,-0.293536 -0.55734,-0.380563 -1.02957,-0.431929 -2.29246,0.224588 -3.05585,0.885049 -0.27124,0.234668 -0.49332,0.520762 -0.73998,0.781143 -0.80152,1.136315 -1.38638,2.47822 -1.00939,3.890584 0.19609,0.734592 0.52079,1.103419 0.93764,1.72677 0.34378,0.535041 2.3422,2.212849 1.79101,2.934292 -0.0887,0.116112 -0.24069,0.165758 -0.36103,0.248637 -1.04504,0.316174 -2.01188,-0.09778 -2.83728,-0.728068 -0.0107,-0.005 -0.0812,0.145639 -0.0706,0.150631 v 0 c 0.92418,0.761301 1.81353,1.103041 2.99437,0.688386 0.13077,-0.103635 0.29399,-0.176082 0.39229,-0.310906 0.67286,-0.922946 -1.16822,-2.456634 -1.62963,-3.096307 -0.43331,-0.595808 -0.73561,-0.892384 -0.93626,-1.608885 -0.37244,-1.329902 0.23422,-2.600458 0.9596,-3.680544 0.22687,-0.255901 0.42901,-0.536057 0.68059,-0.767702 0.70453,-0.648697 1.8344,-1.298444 2.82166,-0.944591 0.16473,0.05904 0.29961,0.180893 0.44942,0.27134 0.0995,0.161064 0.23805,0.303783 0.29851,0.483193 0.41873,1.242631 -0.61665,2.42565 -1.5556,3.058342 -0.24956,0.09877 -0.64533,0.346099 -0.95541,0.194881 -0.50559,-0.246555 -0.24224,-1.139585 -0.26846,-1.557471 10e-4,-0.004 -0.0559,-0.01907 -0.057,-0.01504 z" />
    <path
       style="fill:#0a0c07;fill-opacity:1;stroke:#000000;stroke-width:0.865;stroke-linejoin:round;stroke-miterlimit:4.4;stroke-dasharray:none;stroke-opacity:1"
       id="path8857"
       d="m 173.33807,22.427847 c 1.10365,-0.04257 2.20946,0.01456 3.3132,0.04122 0.0193,-0.0019 -0.007,-0.274963 -0.0261,-0.273118 v 0 c -1.10364,-0.05317 -2.22006,-0.0988 -3.30648,0.150286 -0.006,0.0014 0.0136,0.08299 0.0194,0.08162 z" />
    <path
       style="fill:#0a0c07;fill-opacity:1;stroke:#000000;stroke-width:0.865;stroke-linejoin:round;stroke-miterlimit:4.4;stroke-dasharray:none;stroke-opacity:1"
       id="path8859"
       d="m 183.70705,20.456622 c -0.22706,1.095221 0.45367,1.663787 1.55094,1.577159 0.2876,-0.0227 0.5641,-0.121303 0.84614,-0.181955 0.87613,-0.364978 2.10216,-1.135265 1.85546,-2.291753 -0.12796,-0.599824 -0.48458,-0.70595 -0.94679,-1.034212 -0.28487,-0.07824 -0.56146,-0.19826 -0.85463,-0.234729 -1.31597,-0.163703 -2.80966,0.324545 -3.6807,1.350483 -0.19238,0.226597 -0.30976,0.507424 -0.46465,0.761136 -0.055,0.29328 -0.16116,0.581474 -0.16496,0.87984 -0.0204,1.595782 1.41676,3.139177 2.30802,4.347278 0.32006,0.489403 0.80192,1.14254 0.47074,1.766226 -0.30249,0.569659 -1.02816,0.597576 -1.57208,0.670391 -0.96274,-0.0236 -2.10059,-0.05899 -2.83236,-0.768606 -0.004,-0.007 -0.10287,0.04806 -0.099,0.05506 v 0 c 0.0952,0.108704 0.17136,0.23759 0.28556,0.326112 0.74878,0.58044 1.80397,0.597647 2.69961,0.590886 0.50138,-0.09242 0.86004,-0.09649 1.28621,-0.402307 0.85813,-0.615777 0.48475,-1.619385 0.0265,-2.348453 -0.18152,-0.262447 -0.35834,-0.528213 -0.54457,-0.787342 -0.7147,-0.99447 -1.75657,-2.069398 -1.78146,-3.380387 -0.005,-0.272007 0.0874,-0.537048 0.13108,-0.805572 0.14556,-0.231881 0.25633,-0.489652 0.43668,-0.695643 0.82617,-0.943676 2.24692,-1.401406 3.47492,-1.304101 0.27263,0.0216 0.53376,0.119486 0.80065,0.179228 0.40213,0.230877 0.71715,0.293509 0.83829,0.801993 0.24812,1.041486 -1.00676,1.749606 -1.75194,2.085824 -1.24625,0.325521 -2.32289,0.528967 -2.26324,-1.137348 0.001,-0.0038 -0.053,-0.02306 -0.0544,-0.01921 z" />
    <path
       style="fill:#0a0c07;fill-opacity:1;stroke:#000000;stroke-width:0.865;stroke-linejoin:round;stroke-miterlimit:4.4;stroke-dasharray:none;stroke-opacity:1"
       id="path8861"
       d="m 191.59653,18.755936 c 0.95226,-0.07053 1.90082,-0.181092 2.85188,-0.265897 0.0163,-0.0032 -0.0296,-0.23393 -0.0459,-0.230683 v 0 c -0.95061,0.07605 -1.90072,0.179186 -2.82715,0.416421 -0.006,0.0015 0.0155,0.08166 0.0212,0.08016 z" />
    <path
       style="fill:#0a0c07;fill-opacity:1;stroke:#000000;stroke-width:0.865;stroke-linejoin:round;stroke-miterlimit:4.4;stroke-dasharray:none;stroke-opacity:1"
       id="path8863"
       d="m 198.38692,16.320102 c -0.43855,1.074688 -0.90591,2.136442 -1.31376,3.223475 -0.006,0.01295 0.17685,0.100862 0.18307,0.08792 v 0 c 0.46236,-1.069777 0.95415,-2.14257 1.20247,-3.286622 0.002,-0.0051 -0.07,-0.02985 -0.0718,-0.02477 z" />
    <path
       style="fill:#0a0c07;fill-opacity:1;stroke:#000000;stroke-width:0.865;stroke-linejoin:round;stroke-miterlimit:4.4;stroke-dasharray:none;stroke-opacity:1"
       id="path8865"
       d="m 165.60082,31.345872 c 2.56835,0.583204 5.23182,0.660845 7.85196,0.833568 3.63451,0.210579 7.27788,0.266439 10.9157,0.124492 0.95996,-0.03634 1.91688,-0.127575 2.87626,-0.173502 0.19435,-0.0093 0.63798,-0.06147 0.8593,0.01562 -0.16476,0.04746 -0.336,0.06622 -0.50527,0.08947 -0.005,0.0012 0.0122,0.06476 0.0167,0.06358 v 0 c 0.17636,-0.03141 0.36708,-0.04149 0.49951,-0.177002 -0.19039,-0.217381 -0.65694,-0.198805 -0.90105,-0.212447 -0.96668,-0.05402 -1.93564,-0.003 -2.90281,-0.01298 -3.64115,-0.01867 -7.27557,-0.202908 -10.9134,-0.345114 -2.59733,-0.06511 -5.19889,-0.102314 -7.79202,-0.262744 -0.004,-3.44e-4 -0.009,0.05671 -0.005,0.05706 z" />
    <path
       style="fill:#0a0c07;fill-opacity:1;stroke:#000000;stroke-width:0.865;stroke-linejoin:round;stroke-miterlimit:4.4;stroke-dasharray:none;stroke-opacity:1"
       id="path8867"
       d="m 174.26509,36.069605 c 0.63824,-0.327852 2.14047,-1.274477 2.84839,-0.970182 0.14427,0.06201 0.22385,0.220282 0.33577,0.330422 0.0294,0.176887 0.0931,0.351419 0.0882,0.530662 -0.0393,1.426164 -1.13005,2.661829 -2.00748,3.674854 -0.62241,0.546691 -1.29144,1.536574 -2.22033,1.550391 -0.17315,-0.04634 -0.20739,-0.218586 -0.0339,-0.280512 0.58783,0.10195 1.18983,0.07357 1.78441,0.06152 2.61878,-0.151217 5.23664,-0.326435 7.85394,-0.504201 0.54289,0.08432 1.13061,-0.179818 1.67832,-0.08799 0.0211,0.0035 -0.0387,0.01892 -0.0594,0.02418 -0.0678,0.01728 -0.13642,0.03212 -0.20554,0.04326 -0.0868,0.014 -0.17463,0.02135 -0.26195,0.03204 -0.005,0.0013 0.0148,0.0789 0.0202,0.07747 v 0 c 1.64435,-0.310754 -1.2114,-0.583663 -1.23153,-0.459799 -2.6256,0.03749 -5.23449,0.294635 -7.83452,0.657919 -0.57981,0.06972 -1.16698,0.175545 -1.75221,0.137342 -0.2078,0.07948 -0.14198,0.281501 0.0459,0.351629 0.96401,0.129537 1.76961,-0.877954 2.41578,-1.424535 0.88131,-0.989331 2.1023,-2.433439 1.99019,-3.866835 -0.0177,-0.22637 -0.13104,-0.434806 -0.19656,-0.652208 -0.13924,-0.121093 -0.24764,-0.291665 -0.4177,-0.363279 -0.87678,-0.369212 -2.22195,0.584653 -2.89015,1.074241 -0.004,0.0035 0.0457,0.06715 0.0501,0.0636 z" />
  </g>
</svg>
